<?xml version="1.0" encoding="UTF-8"?>
<!DOCTYPE svg PUBLIC "-//W3C//DTD SVG 1.1//EN" "http://www.w3.org/Graphics/SVG/1.1/DTD/svg11.dtd">
<!-- Creator: CorelDRAW 2020 (64-Bit) -->
<svg xmlns="http://www.w3.org/2000/svg" xml:space="preserve" width="200mm" height="200mm" version="1.1" style="shape-rendering:geometricPrecision; text-rendering:geometricPrecision; image-rendering:optimizeQuality; fill-rule:evenodd; clip-rule:evenodd"
viewBox="0 0 20000 20000"
 xmlns:xlink="http://www.w3.org/1999/xlink"
 xmlns:xodm="http://www.corel.com/coreldraw/odm/2003">
 <defs>
  <style type="text/css">
   <![CDATA[
    .fil1 {fill:#3FB9B9}
    .fil0 {fill:#253D60}
    .fil3 {fill:#3FB9B9;fill-rule:nonzero}
    .fil2 {fill:#253D60;fill-rule:nonzero}
   ]]>
  </style>
 </defs>
 <g id="Слой_x0020_1">
  <metadata id="CorelCorpID_0Corel-Layer"/>
  <g id="_2364274139888">
   <path class="fil0" d="M4618.46 13651.01c2.37,44.64 3.63,89.77 3.63,135.35 0,909.6 -480.71,1646.98 -1073.7,1646.98 -592.99,0 -1073.71,-737.38 -1073.71,-1646.98 0,-129.14 9.71,-254.78 28.03,-375.35l2115.75 240z"/>
   <path class="fil0" d="M2219.48 13379.82c-28.33,136.81 -43.21,278.17 -43.21,422.78 0,965.22 661.4,1784.98 1580.73,2079.44 -188.79,46.44 -386.87,71.25 -591.11,71.25 -1288.03,0 -2332.18,-983.17 -2332.18,-2195.98 0,-342.07 83.09,-665.87 231.28,-954.5l458.83 505.18 695.66 71.83z"/>
   <polygon class="fil0" points="11982.31,8000.98 12627.01,5442.12 13304.92,5335.79 19932.26,6122.31 19844.88,11277.58 19313.17,11317.44 19333.76,10604.54 17699.41,10845.08 16650.77,13104.56 12095.43,14055.69 12547.38,12659.96 11962.52,11410.47 "/>
   <polygon class="fil0" points="8560.11,8073.72 11863.3,8009.19 11863.3,11040.29 11856.2,11290.8 11231.44,10386.91 8560.11,10903.1 "/>
   <polygon class="fil0" points="5851.72,8034.23 8317.5,8046.87 8317.5,10959.13 5851.72,11543.81 "/>
   <polygon class="fil0" points="368.53,8112.83 2091.19,8100.6 2091.19,11324.53 368.53,10630.33 "/>
   <polygon class="fil1" points="5077.04,5601.55 7562.77,5481.91 6884.85,7435.93 4279.49,7489.09 "/>
   <polygon class="fil1" points="7738.89,5475.26 12401.29,5269.23 11856.29,7582.15 7110.83,7449.23 "/>
   <polygon class="fil0" points="5628.9,5501.92 5818.2,4973.31 8157.71,4720.75 7922.81,5384.78 "/>
   <polygon class="fil0" points="8228.09,4732.95 12424.68,4536.22 12411.39,5165.94 8017.42,5380.52 "/>
   <path class="fil1" d="M8787.51 4026.1c151.42,0 274.16,122.74 274.16,274.16 0,151.41 -122.74,274.15 -274.16,274.15 -6.64,0 -13.24,-0.24 -19.75,-0.7l-45.24 116.17 -86.4 2.89 53.16 -136.5c-102.88,-39.51 -175.92,-139.22 -175.92,-256.01 0,-151.42 122.74,-274.16 274.15,-274.16z"/>
   <polygon class="fil1" points="1631.41,11505.9 5393.22,11698.16 5393.22,13572.25 5393.04,13576.5 1631.41,13149.78 "/>
   <polygon class="fil0" points="5579.31,11728.53 7672.72,11642.42 7646.14,13051.44 5579.31,13564.97 "/>
   <polygon class="fil1" points="767.37,11311.93 1505.1,11501.1 1505.1,13108.29 767.37,12376.5 "/>
   <polygon class="fil0" points="7787.52,11641.11 7785.85,13024.37 8437.08,12885.27 8437.08,11595.88 "/>
   <polygon class="fil0" points="548.04,11211.94 704.21,11286.29 704.21,12300.98 548.04,12193.17 "/>
   <ellipse class="fil0" cx="10885.9" cy="14418.85" rx="1073.71" ry="1934.07"/>
   <g>
    <polygon class="fil2" points="2262.74,8212.69 3582.86,8244.57 5539.37,8136.23 5539.37,8295.6 3589.68,8403.56 2262.74,8371.67 "/>
    <polygon class="fil2" points="2262.74,8628.18 3578.67,8729.42 5539.37,8578.1 5539.37,8737.9 3578.7,8889.21 2262.74,8787.99 "/>
    <polygon class="fil2" points="2262.74,8990.74 3553.39,9167.88 5539.37,9003.95 5539.37,9163.93 3550.84,9328.04 2262.74,9151.27 "/>
    <polygon class="fil2" points="2262.74,9346 3535.55,9526.93 5539.37,9406.84 5539.37,9566.29 3528.81,9686.77 2262.74,9506.81 "/>
    <polygon class="fil2" points="2262.74,9714.08 3522.28,9865.98 5539.37,9757.82 5539.37,9917.14 3515.49,10025.66 2262.74,9874.6 "/>
    <polygon class="fil2" points="2262.74,10061.55 3521.71,10231.51 5539.37,10115.11 5539.37,10274.5 3516.04,10391.23 2262.74,10222.03 "/>
    <polygon class="fil2" points="2262.74,10405.1 3534.54,10603.53 5539.37,10454.79 5539.37,10614.51 3529.8,10763.6 2262.74,10565.91 "/>
    <polygon class="fil2" points="2262.74,10738.43 3496.42,10968.97 5539.37,10819.79 5539.37,10979.49 3488.16,11129.27 2262.74,10900.28 "/>
   </g>
   <path class="fil0" d="M10503.41 11805.99c262.91,0 515.65,48.15 751.45,136.83 -1001.77,289.38 -1741.08,1296.73 -1741.08,2495.11 0,1133.48 661.4,2096.12 1580.73,2441.92 -188.79,54.53 -386.87,83.66 -591.1,83.66 -1288.03,0 -2332.19,-1154.55 -2332.19,-2578.77 0,-1424.2 1044.16,-2578.75 2332.19,-2578.75z"/>
   <ellipse class="fil0" cx="19081.41" cy="12811.05" rx="765.13" ry="1221.25"/>
   <path class="fil0" d="M18808.84 11161.18c187.36,0 367.46,30.41 535.49,86.4 -713.86,182.73 -1240.7,818.81 -1240.7,1575.52 0,715.72 471.32,1323.58 1126.44,1541.93 -134.54,34.43 -275.69,52.82 -421.23,52.82 -917.86,0 -1661.92,-729.03 -1661.92,-1628.34 0,-899.3 744.06,-1628.33 1661.92,-1628.33z"/>
   <ellipse class="fil0" cx="344.43" cy="7306.26" rx="242.58" ry="398.77"/>
   <polygon class="fil2" points="300.97,8083.86 -58.77,7552.64 130.82,7259.61 829.78,8083.86 725.42,8083.86 139.36,7392.77 36.51,7551.73 396.87,8083.86 "/>
   <polygon class="fil0" points="12696.76,4537.92 12696.76,5116.14 19941.22,5900.41 19941.22,5322.19 "/>
   <path class="fil3" d="M7917.05 4724.95l-61.1 -137.98c-15.3,2.64 -31.03,4.04 -47.1,4.04 -151.41,0 -274.16,-122.75 -274.16,-274.16 0,-151.41 122.75,-274.16 274.16,-274.16 151.41,0 274.16,122.75 274.16,274.16 0,107.21 -61.54,200.03 -151.23,245.1l68.21 154.05 -82.94 8.95z"/>
  </g>
 </g>
</svg>
