<?xml version="1.0" encoding="UTF-8"?>
<!DOCTYPE svg PUBLIC "-//W3C//DTD SVG 1.1//EN" "http://www.w3.org/Graphics/SVG/1.1/DTD/svg11.dtd">
<!-- Creator: CorelDRAW 2020 (64-Bit) -->
<svg xmlns="http://www.w3.org/2000/svg" xml:space="preserve" width="200mm" height="200mm" version="1.1" style="shape-rendering:geometricPrecision; text-rendering:geometricPrecision; image-rendering:optimizeQuality; fill-rule:evenodd; clip-rule:evenodd"
viewBox="0 0 20000 20000"
 xmlns:xlink="http://www.w3.org/1999/xlink"
 xmlns:xodm="http://www.corel.com/coreldraw/odm/2003">
 <defs>
  <style type="text/css">
   <![CDATA[
    .fil8 {fill:none;fill-rule:nonzero}
    .fil1 {fill:#FEFEFE;fill-rule:nonzero}
    .fil3 {fill:#CBE9F6;fill-rule:nonzero}
    .fil2 {fill:#C7C6C5;fill-rule:nonzero}
    .fil6 {fill:#86CCCC;fill-rule:nonzero}
    .fil0 {fill:#6F7171;fill-rule:nonzero}
    .fil4 {fill:#3FB9B9;fill-rule:nonzero}
    .fil7 {fill:#2C2E2F;fill-rule:nonzero}
    .fil5 {fill:#253D60;fill-rule:nonzero}
   ]]>
  </style>
 </defs>
 <g id="Слой_x0020_1">
  <metadata id="CorelCorpID_0Corel-Layer"/>
  <g id="_2364275086256">
   <path class="fil0" d="M13148.78 16253.86l-772.26 -448.95c428.73,-247.67 776.27,-849.43 775.06,-1342.17l771.99 449.01c1.32,492.48 -346.07,1094.4 -774.79,1342.11z"/>
   <polygon class="fil0" points="7490.1,19520.41 6718.16,19071.88 12376.52,15804.91 13148.78,16253.86 "/>
   <path class="fil1" d="M10628.98 16949.74l7.13 -6.44 7.71 -6.92 7.71 -6.92 7.87 -7.6 8.14 -7.35 7.97 -7.76 7.87 -7.66 8.56 -8.29 7.6 -7.87 7.87 -7.71 7.82 -7.87 7.61 -7.4 7.65 -7.97 7.29 -7.34 6.92 -7.56 6.39 -6.92 -6.39 6.92 -6.92 7.56 -7.29 7.34 -7.65 7.97 -7.61 7.4 -7.82 7.87 -7.87 7.71 -7.6 7.87 -8.56 8.29 -7.87 7.66 -7.97 7.76 -8.14 7.35 -7.87 7.6 -7.71 6.92 -7.71 6.92 -7.13 6.44zm-0.53 -1l-0.95 1.69 -1.85 1.22 -1.43 1.16 -1.84 1.9 -1.43 1.11 -1.48 1.53 -1.95 1.58 -1.64 1.43 -1.64 1.48 -1.42 1.69 -1.69 1.43 -1.85 1.63 -1.43 1.22 -1.48 1.37 -1.42 1.27 -1.54 1.11 1.54 -1.11 1.42 -1.27 1.48 -1.37 1.43 -1.22 1.85 -1.63 1.69 -1.43 1.42 -1.69 1.64 -1.48 1.64 -1.43 1.95 -1.58 1.48 -1.53 1.43 -1.11 1.84 -1.9 1.43 -1.16 1.85 -1.22 0.95 -1.69zm-306.08 -34.65l4.75 -3.59 5.23 -2.9 4.91 -3.75 4.92 -3.81 5.44 -3.33 5.07 -3.64 5.33 -3.96 5.49 -3.91 5.23 -3.75 5.44 -3.7 4.76 -3.85 5.44 -3.75 5.12 -3.65 4.7 -3.54 4.75 -3.38 4.71 -3.75 -4.71 3.75 -4.75 3.38 -4.7 3.54 -5.12 3.65 -5.44 3.75 -4.76 3.85 -5.44 3.7 -5.23 3.75 -5.49 3.91 -5.33 3.96 -5.07 3.64 -5.44 3.33 -4.92 3.81 -4.91 3.75 -5.23 2.9 -4.75 3.59 -0.21 0.42 -1.22 0.32 -0.21 0.42 -0.74 0.53 -1.11 0.58 -0.37 0.37 -0.79 0.37 -0.79 0.58 -0.74 0.48 -0.74 0.47 -0.95 0.43 -0.48 0.68 -0.58 0.37 -1.16 0.58 -0.32 0.53 -0.74 0.21 0.74 -0.21 0.32 -0.53 1.16 -0.58 0.58 -0.37 0.48 -0.68 0.95 -0.43 0.74 -0.47 0.74 -0.48 0.79 -0.58 0.79 -0.37 0.37 -0.37 1.11 -0.58 0.74 -0.53 0.21 -0.42 1.22 -0.32 0.21 -0.42zm281.04 58.1l-11.67 -6.55 -11.94 -7.07 -12.14 -7.24 -12.36 -7.18 -12.57 -7.5 -13.1 -7.19 -13.1 -8.03 -13.26 -7.34 -13.1 -7.55 -13.15 -7.45 -12.57 -7.71 -12.73 -7.5 -12.36 -7.34 -12.41 -6.92 -12.15 -6.66 -11.14 -6.65 11.14 6.65 12.15 6.66 12.41 6.92 12.36 7.34 12.73 7.5 12.57 7.71 13.15 7.45 13.1 7.55 13.26 7.34 13.1 8.03 13.1 7.19 12.57 7.5 12.36 7.18 12.14 7.24 11.94 7.07 11.67 6.55zm-292.66 -51.18l-3.86 3.54 -4.75 3.43 -4.49 3.65 -4.97 3.85 -4.75 4.02 -4.7 3.33 -5.12 4.06 -5.07 3.81 -4.86 4.01 -4.97 3.86 -4.75 3.59 -5.44 3.85 -4.76 3.49 -4.7 3.54 -4.91 3.59 -4.17 3.06 4.17 -3.06 4.91 -3.59 4.7 -3.54 4.76 -3.49 5.44 -3.85 4.75 -3.59 4.97 -3.86 4.86 -4.01 5.07 -3.81 5.12 -4.06 4.7 -3.33 4.75 -4.02 4.97 -3.85 4.49 -3.65 4.75 -3.43 3.86 -3.54zm-328.85 -37.13l1.8 -1.74 1.69 -2.27 1.58 -1.59 1.69 -1.95 1.96 -2.06 2.16 -2.22 1.85 -2.22 1.69 -2.11 1.53 -1.96 2.22 -2.22 1.69 -1.79 2.33 -2.17 1.69 -2.27 1.95 -1.74 1.74 -2.17 1.53 -1.84 -1.53 1.84 -1.74 2.17 -1.95 1.74 -1.69 2.27 -2.33 2.17 -1.69 1.79 -2.22 2.22 -1.53 1.96 -1.69 2.11 -1.85 2.22 -2.16 2.22 -1.96 2.06 -1.69 1.95 -1.58 1.59 -1.69 2.27 -1.8 1.74zm251.84 97.45l-12.36 -7.61 -13.52 -7.71 -13.79 -7.97 -13.84 -8.3 -14.2 -7.92 -14.32 -8.4 -14.42 -8.39 -15.1 -8.3 -14.11 -8.82 -14.63 -8.29 -14.42 -8.24 -14.31 -8.45 -13.68 -8.08 -13.84 -8.08 -13.1 -7.19 -12.36 -7.66 12.36 7.66 13.1 7.19 13.84 8.08 13.68 8.08 14.31 8.45 14.42 8.24 14.63 8.29 14.11 8.82 15.1 8.3 14.42 8.39 14.32 8.4 14.2 7.92 13.84 8.3 13.79 7.97 13.52 7.71 12.36 7.61zm59.68 -1256.49c-0.74,-219.99 -79.33,-375.12 -207.1,-449.22l771.78 448.48c128.09,74.63 206.84,229.28 207.42,449.16 0.74,228.39 -82.45,483.87 -218.35,711.78 -31.64,-18.54 -63.59,-37.02 -95.34,-55.67 31.75,18.65 63.7,37.13 95.34,55.67 -135,227.97 -322.09,428.36 -529.03,547.89l-772.25 -448.54c80.44,-46.79 157.82,-105.26 230.39,-172.87 68.61,24.4 137.54,48.8 205.99,72.78 -68.45,-23.98 -137.38,-48.38 -205.99,-72.78 301.33,-281.31 518.15,-718.8 517.14,-1086.68z"/>
   <path class="fil1" d="M9001.75 17040.8c136.8,79.34 330.01,66.77 544.14,-56.41l772.25 448.54c-213.96,123.59 -407.23,136.32 -544.08,56.72 -231.45,-134.9 -540.91,-314.42 -772.31,-448.85z"/>
   <path class="fil2" d="M10085.95 15275.04c257.55,149.84 514.45,299.05 772.15,449.06 -136.69,-79.65 -330.32,-67.29 -544.66,56.78l-772.25 -449.12c214.33,-123.54 407.81,-136.06 544.76,-56.72z"/>
   <path class="fil2" d="M9774.06 17489.65l-772.31 -448.85c-128.08,-74.21 -207.15,-229.65 -207.73,-450.17 -1.43,-456.08 333.39,-1019.76 747.17,-1258.87l772.25 449.12c-414.15,238.73 -748.27,802.09 -747.32,1258.5 0.84,220.51 79.86,375.48 207.94,450.27z"/>
   <path class="fil0" d="M6937.51 19574.13l-772.15 -448.75c141.61,82.19 337.25,70.83 552.8,-53.5l771.94 448.53c-215.61,124.44 -410.88,135.9 -552.59,53.72z"/>
   <path class="fil1" d="M6335.7 18946.12l1.11 0.42 1.06 0.53 0.95 0.21 1.26 0 1.43 0.37 1.11 0.21 0.95 0.37 1.21 0 1.69 0.53 1.59 0.21 0.74 0.37 1.42 0.37 0.74 0 1.48 0.21 1.06 0.37 0.95 0.1 -3.96 -2.16 -4.02 -2.27 -3.85 -2.59 -4.54 -2.27 -4.23 -2.38 -4.49 -2.64 -3.85 -2.75 -4.76 -2.43 -4.49 -2.27 -4.22 -2.58 -4.39 -2.8 -4.49 -2.27 -3.48 -2.59 -4.39 -2.06 -4.01 -2.59 -4.01 -2.27 4.01 2.27 4.01 2.59 4.39 2.06 3.48 2.59 4.49 2.27 4.39 2.8 4.22 2.58 4.49 2.27 4.76 2.43 3.85 2.75 4.49 2.64 4.23 2.38 4.54 2.27 3.85 2.59 4.02 2.27 3.96 2.16 -0.95 -0.1 -1.06 -0.37 -1.48 -0.21 -0.74 0 -1.42 -0.37 -0.74 -0.37 -1.59 -0.21 -1.69 -0.53 -1.21 0 -0.95 -0.37 -1.11 -0.21 -1.43 -0.37 -1.26 0 -0.95 -0.21 -1.06 -0.53 -1.11 -0.42zm-172.29 -26.78l9.98 1.79 10.56 2.12 10.2 2.06 10.4 1.42 10.88 2.27 11.46 1.9 11.62 2.17 11.15 1.9 11.41 1.85 11.3 1.9 11.3 2.22 11.25 1.69 11.15 1.48 10.72 1.48 10.41 1.69 10.19 1.69 -10.19 -1.69 -10.41 -1.69 -10.72 -1.48 -11.15 -1.48 -11.25 -1.69 -11.3 -2.22 -11.3 -1.9 -11.41 -1.85 -11.15 -1.9 -11.62 -2.17 -11.46 -1.9 -10.88 -2.27 -10.4 -1.42 -10.2 -2.06 -10.56 -2.12 -9.98 -1.79 -0.21 -0.37 -0.74 0 -0.37 -0.58 -0.74 -0.21 -0.32 -0.37 -0.9 -0.16 -0.21 -0.58 -0.53 -0.11 -0.74 0 -0.21 -0.63 -0.69 -0.32 -0.52 -0.58 -0.74 0 -0.21 -0.37 -0.37 -0.26 -0.37 -0.11 0.37 0.11 0.37 0.26 0.21 0.37 0.74 0 0.52 0.58 0.69 0.32 0.21 0.63 0.74 0 0.53 0.11 0.21 0.58 0.9 0.16 0.32 0.37 0.74 0.21 0.37 0.58 0.74 0 0.21 0.37 3.8 2.27 3.86 2.16 4.01 2.28 3.75 2 3.86 2.64 4.54 2.38 3.64 2.06 4.23 2.64 3.96 2.22 3.8 2.27 3.86 2.17 3.8 2.64 3.96 1.9 3.65 2.01 3.48 2.27 3.8 1.85 -7.97 -3.17 -8.19 -3.17 -8.71 -3.7 -8.61 -3.96 -8.51 -3.33 -9.08 -3.75 -8.77 -3.91 -9.08 -3.69 -8.72 -3.75 -8.98 -3.7 -9.08 -3.91 -8.35 -3.75 -8.76 -3.54 -8.35 -3.38 -8.56 -3.7 -7.6 -3.17 7.6 3.17 8.56 3.7 8.35 3.38 8.76 3.54 8.35 3.75 9.08 3.91 8.98 3.7 8.72 3.75 9.08 3.69 8.77 3.91 9.08 3.75 8.51 3.33 8.61 3.96 8.71 3.7 8.19 3.17 7.97 3.17 -3.8 -1.85 -3.48 -2.27 -3.65 -2.01 -3.96 -1.9 -3.8 -2.64 -3.86 -2.17 -3.8 -2.27 -3.96 -2.22 -4.23 -2.64 -3.64 -2.06 -4.54 -2.38 -3.86 -2.64 -3.75 -2 -4.01 -2.28 -3.86 -2.16 -3.8 -2.27zm-222 -218.83c-2.06,-23.4 -3.27,-47.85 -3.27,-73.2l772.41 448.9c0.74,244.65 87.68,417.05 226.96,498.07l-771.94 -448.69c-98.82,-57.41 -171.39,-160.41 -205.09,-302.43 43.31,25.14 86.25,50.7 129.03,76 -42.78,-25.3 -85.72,-50.86 -129.03,-76 -9.09,-37.61 -15.64,-78.81 -19.07,-122.65 116.25,69.88 232.35,139.76 348.44,209.64 -116.09,-69.88 -232.19,-139.76 -348.44,-209.64z"/>
   <polygon class="fil0" points="13923.57,14911.75 13151.58,14462.74 13113.13,976.76 13885.22,1425.24 "/>
   <polygon class="fil1" points="7223.15,17299.88 6451.05,16851.13 12565.35,13321.02 13337.66,13769.77 "/>
   <polygon class="fil3" points="7658.59,6164.62 6886.17,5715.88 12068.49,2724.15 12840.53,3172.89 "/>
   <path class="fil4" d="M6717.47 19952.89l-772.41 -448.64c-195.43,-113.72 -316.65,-354.99 -317.55,-697.42l771.73 448.85c1.21,342.43 123.12,583.59 318.23,697.21z"/>
   <path class="fil0" d="M12886.38 478.89l772.15 448.7c139.49,81.02 226.01,253.21 226.69,497.65l-772.09 -448.48c-0.43,-244.5 -87.42,-416.84 -226.75,-497.87z"/>
   <path class="fil1" d="M12333.21 532.72c215.82,-124.66 411.46,-136.01 553.17,-53.83l772.15 448.7c-141.45,-82.4 -337.72,-70.83 -553.54,53.82 -231.5,-134.74 -540.43,-314.17 -771.78,-448.69z"/>
   <polygon class="fil3" points="7686.95,16137.87 6914.69,15689.18 6886.17,5715.88 7658.59,6164.62 "/>
   <path class="fil5" d="M12868.58 13146.04l-28.05 -9973.15 -5181.94 2991.73 28.36 9973.25 5181.63 -2991.83zm-5677.65 -7248.04l6114.3 -3530.11 32.43 11401.88 -6114.51 3530.11 -32.22 -11401.88z"/>
   <polygon class="fil6" points="12840.53,3172.89 12868.58,13146.04 7686.95,16137.87 7658.59,6164.62 "/>
   <polygon class="fil7" points="7223.15,17299.88 6451.05,16851.13 6418.68,5449.25 7190.93,5898 "/>
   <polygon class="fil1" points="6710.55,19076.21 5938.14,18627.31 5900.27,5141 6672.31,5589.75 "/>
   <polygon class="fil1" points="7447.1,4248.01 6675.06,3799.63 12333.21,532.72 13104.99,981.41 "/>
   <path class="fil1" d="M7205.83 4432.02c-13.1,-60.63 -21.61,-99.56 -29.21,-141.44 38.34,22.13 76.06,44.26 114.03,66.23 -29.15,23.66 -57.15,48.44 -84.82,75.21z"/>
   <path class="fil1" d="M6876.51 4866.72c-0.53,-27.31 -8.4,-51.34 -21.29,-64.17l43.1 24.98 -21.81 39.19z"/>
   <path class="fil1" d="M5900.27 5141c-1.8,-491.94 345.9,-1094.23 774.79,-1341.37l772.04 448.38c-53.45,31.11 -106.01,67.71 -156.45,108.8 -38.92,-22.18 -77.69,-45.05 -116.09,-67.39l2.06 1.16c7.6,41.88 16.11,80.81 29.21,141.44 -20.81,19.49 -41.1,40.2 -61.22,61.12 -57.41,-33.33 -114.88,-66.82 -172.4,-100.31 57.52,33.49 114.99,66.98 172.4,100.31 -20.81,22.07 -41.09,45.16 -61.16,68.92 -43.63,-65.86 -78.12,-117.15 -114.3,-169.49 36.18,52.34 70.67,103.63 114.3,169.49 -68.45,81.77 -130.89,171.24 -185.13,265.47l-43.1 -24.98 0 -0.27 0 0.27 -3.27 -2.12c13.99,8.29 24.03,35.39 24.56,66.29 -26.73,48.22 -50.6,97.87 -72.58,147.73l-3.48 -2.27 3.48 2.27 -0.95 2.01 -3.27 -4.28 3.27 4.28c-82.97,190.14 -131.15,389.59 -130.67,573.29 -231.45,-134.58 -540.44,-314.01 -772.04,-448.75z"/>
   <path class="fil4" d="M13148.78 16253.86l-5658.68 3266.55c-428.52,247.66 -778.6,48.12 -779.55,-444.2l-38.24 -13486.46c-1.43,-491.95 345.96,-1094.29 774.79,-1341.74l5657.89 -3266.6c429.2,-247.46 778.75,-48.28 780.23,443.83l38.35 13486.51c1.32,492.48 -346.07,1094.4 -774.79,1342.11zm1047.75 -15008.04c-2.32,-689.23 -492.16,-968.16 -1092.28,-621.78l-5658.36 3266.81c-599.6,346.28 -1086.53,1189.57 -1084.52,1878.74l37.87 13486.09c2.32,689.18 492.16,968.11 1091.81,621.94l5658.84 -3266.6c600.12,-346.8 1086.68,-1189.68 1084.73,-1878.75l-38.09 -13486.45z"/>
   <path class="fil7" d="M12068.49 2724.15l0.74 357.47 308.03 -177.84 -308.77 -179.63zm2.27 893.15l0 0 769.77 -444.41 28.05 9973.15 -28.05 -9973.15 -769.77 444.41z"/>
   <path class="fil7" d="M13305.23 2367.89l-772.37 -448.85 -5819.93 3360.24 -6.39 25.51 -0.74 3.28c-4.49,20.65 -8.72,40.99 -12.36,61.58l-2.96 15.9c-3.75,21.18 -7.24,42.52 -9.93,63.7l0 1.16c-2.54,20.39 -4.23,41.52 -5.49,61.8l-0.9 15.95c-1.11,20.65 -1.85,41.36 -1.85,61.59l0 6.97 518.62 301.28 6114.3 -3530.11z"/>
   <path class="fil1" d="M13337.66 13769.77l0 0 -32.43 -11401.88 32.43 11401.88zm-804.8 -11850.73l2.22 893.26 770.15 -444.41 -772.37 -448.85z"/>
   <line class="fil8" x1="12868.58" y1="13146.04" x2="12868.58" y2= "13146.04" />
   <path class="fil1" d="M7223.15 17299.88l-32.22 -11401.88 6114.3 -3530.11 32.43 11401.88 -6114.51 3530.11zm3094.99 133.05c-414.25,238.84 -750.39,63.17 -752.02,-393.55 -0.95,-456.41 333.17,-1019.77 747.32,-1258.5 414.15,-239.11 751.13,-63.28 752.08,392.38 1.48,457.04 -333.23,1020.77 -747.38,1259.67zm3324.01 -1669.17l28.53 -43.99c27.25,-45.16 52.97,-91.01 77.06,-137.6l22.5 -47.27c37.45,-78.91 68.4,-159.77 93.17,-240.59l13.94 -48.38c30.22,-113.66 46.59,-226.75 46.22,-334.18l-38.35 -13486.51c0,-107.49 -17.11,-201.03 -47.53,-279.09 -17.8,-44.74 -40.36,-84.25 -66.24,-118.16 -32.85,-42.83 -71.83,-76.74 -115.72,-102.09l-26.94 -14c-55.72,-25.72 -118.26,-38.19 -186.29,-36.71l-34.75 1.69c-23.3,2.22 -47.28,5.97 -71.52,11.36 -72.94,16.05 -150.69,46.79 -231.24,93.17l-2828.68 1633.19 -2829.21 1633.41c-67.29,38.98 -132.1,86.09 -193.95,140.49l-37.13 33.49c-24.35,22.55 -48.12,46.22 -70.93,71.15 -23.3,24.93 -45.9,50.38 -67.88,76.74 -22.02,26.41 -43.57,53.72 -63.91,81.71 -20.86,28.05 -40.88,56.78 -59.63,86.15 -19.43,29.15 -38.03,59.21 -55.35,89.52 -34.91,60.9 -66.6,123.49 -94.39,187.03 -21.12,47.8 -39.87,95.76 -56.04,144.57 -15.9,48.48 -30.21,97.13 -41.35,145.62l-10.2 48.43c-16,80.39 -24.51,160.04 -24.03,236.84l38.24 13486.46 0.95 45.1c1.43,29.42 4.49,58.16 8.51,85.52 5.81,40.83 14.78,78.96 26.4,114.4 10.94,35.39 25.57,67.66 41.62,97.45l17.33 28.52c30.32,46.06 67.13,83.67 109.33,112.35l25.46 15.9c61.75,35.33 133.79,52.87 213.18,51.23 101.99,-2.27 216.5,-36.55 336.77,-106.27l5658.68 -3266.55c120.69,-69.87 234.72,-167.64 336.29,-283.1 22.77,-25.67 44.63,-52.03 66.24,-79.23l31.63 -41.25c20.39,-28.58 40.41,-56.99 59.21,-86.52z"/>
   <path class="fil5" d="M10313.44 15780.88c-414.15,238.73 -748.27,802.09 -747.32,1258.5 1.63,456.72 337.77,632.87 752.02,393.55 414.15,-238.9 748.86,-802.63 747.38,-1258.98 -0.95,-456.35 -337.93,-632.18 -752.08,-393.07z"/>
   <path class="fil4" d="M13106.21 100.08c257.64,149.58 515.19,299.06 772.62,448.69 -198.49,-115.19 -472.56,-99.35 -774.58,75.27l-772.09 -448.69c302.01,-174.41 576.08,-190.47 774.05,-75.27z"/>
   <polygon class="fil5" points="6399.24,19255.68 5627.51,18806.83 5589.27,5320.64 6361.37,5769.59 "/>
   <polygon class="fil5" points="7445.89,3890.85 6673.79,3442.26 12332.16,175.35 13104.25,624.04 "/>
   <path class="fil4" d="M6361.37 5769.59l-772.1 -448.95c-2.16,-689.01 484.77,-1532.26 1084.52,-1878.38l772.1 448.59c-599.6,346.28 -1086.53,1189.57 -1084.52,1878.74z"/>
   <path class="fil4" d="M6130.87 10719.04l-131.25 76.21c27.15,-15.84 44.73,-54.14 44.95,-108.27l131.14 -76.33c0,54.2 -17.48,92.44 -44.84,108.39z"/>
   <polygon class="fil4" points="6054.18,7275.02 6185.54,7198.43 6175.71,10610.65 6044.57,10686.98 "/>
   <path class="fil4" d="M5857.27 7027.46l131.31 -76.16c21.02,-12.26 47.75,-11.41 77.22,5.7l-131.47 76.27c-29.47,-16.85 -56.09,-18.01 -77.06,-5.81z"/>
   <path class="fil4" d="M5934.33 7033.27l131.47 -76.27c66.55,38.51 119.95,145.94 119.74,241.43l-131.36 76.59c0.21,-95.81 -53.14,-203.3 -119.85,-241.75z"/>
   <path class="fil1" d="M5934.33 7033.27c66.71,38.45 120.06,145.94 119.85,241.75l-9.61 3411.96c-0.37,95.7 -54.2,141.13 -120.69,102.89 -67.98,-39.2 -121.17,-146.79 -120.96,-242.28l9.83 -3412.17c0.1,-95.49 53.98,-141.18 121.58,-102.15z"/>
   <path class="fil5" d="M12213.47 2128.46c77.01,-44.74 139.97,-8.92 139.97,79.92 0.53,88.89 -61.69,196.59 -139.23,241.69l-3460.23 1997.64c-77.48,44.74 -140.44,9.19 -140.81,-79.6 0,-88.99 62.22,-196.9 139.7,-241.85l3460.6 -1997.8z"/>
  </g>
 </g>
</svg>
