<?xml version="1.0" encoding="UTF-8"?>
<!DOCTYPE svg PUBLIC "-//W3C//DTD SVG 1.1//EN" "http://www.w3.org/Graphics/SVG/1.1/DTD/svg11.dtd">
<!-- Creator: CorelDRAW 2020 (64-Bit) -->
<svg xmlns="http://www.w3.org/2000/svg" xml:space="preserve" width="200mm" height="200mm" version="1.1" style="shape-rendering:geometricPrecision; text-rendering:geometricPrecision; image-rendering:optimizeQuality; fill-rule:evenodd; clip-rule:evenodd"
viewBox="0 0 20000 20000"
 xmlns:xlink="http://www.w3.org/1999/xlink"
 xmlns:xodm="http://www.corel.com/coreldraw/odm/2003">
 <defs>
  <style type="text/css">
   <![CDATA[
    .fil0 {fill:#FEFEFE}
    .fil4 {fill:#FEFEFE}
    .fil1 {fill:#3FB9B9}
    .fil3 {fill:#253D60}
    .fil5 {fill:#FEFEFE;fill-rule:nonzero}
    .fil2 {fill:#253D60;fill-rule:nonzero}
   ]]>
  </style>
 </defs>
 <g id="Слой_x0020_1">
  <metadata id="CorelCorpID_0Corel-Layer"/>
  <path class="fil0" d="M8991.45 263.79l6028.23 0c971.34,0 1766.06,794.73 1766.06,1766.06l0 10892.77c0,971.33 -794.72,1766.06 -1766.06,1766.06l-6028.23 0c-971.34,0 -1766.06,-794.73 -1766.06,-1766.06l0 -10892.77c0,-971.33 794.72,-1766.06 1766.06,-1766.06z"/>
  <polygon class="fil1" points="7914.43,1259.71 15978.3,1259.71 15978.3,13384.03 7914.43,13384.03 "/>
  <path class="fil2" d="M8991.46 -69.32l6028.19 0c542.19,0 1035.09,221.74 1392.19,578.87 357.13,357.14 578.87,849.97 578.87,1392.19l0 10892.78c0,542.22 -221.74,1035.05 -578.87,1392.18 -357.1,357.13 -850,578.87 -1392.19,578.87l-6028.19 0c-542.18,0 -1035.09,-221.74 -1392.18,-578.87 -357.13,-357.13 -578.87,-849.96 -578.87,-1392.18l0 -10892.78c0,-542.22 221.74,-1035.05 578.87,-1392.19 357.09,-357.13 850,-578.87 1392.18,-578.87zm6028.19 410.01l-6028.19 0c-429.1,0 -819.39,175.72 -1102.34,458.71 -282.98,282.98 -458.7,673.27 -458.7,1102.34l0 10892.78c0,429.06 175.72,819.36 458.7,1102.34 282.95,282.99 673.24,458.7 1102.34,458.7l6028.19 0c429.11,0 819.4,-175.71 1102.34,-458.7 282.99,-282.98 458.71,-673.28 458.71,-1102.34l0 -10892.78c0,-429.07 -175.72,-819.36 -458.71,-1102.34 -282.94,-282.99 -673.23,-458.71 -1102.34,-458.71z"/>
  <path class="fil2" d="M6472.53 7257.7c-275.16,410.18 -576.8,883.91 -846.61,1333.61 -241.59,402.69 -457.6,786.08 -605.56,1086.44 -152.62,309.81 -231.18,528.85 -271.24,792.87 -40.63,267.69 -42.97,587.79 -42.97,1095.95 0,1084.43 9.18,2797.97 13.85,3678l0.48 25.36c3.87,803.06 4.03,811.65 473.57,811.65 603.27,0 1688.66,-9.18 2243.82,-13.79l11.25 -0.48c477.07,-3.61 485.13,-3.87 487.41,-89.7 2.39,-88.44 3.61,-219.89 4.19,-351.45l0.21 -356.5c0,-219.19 0.11,-230.81 115.39,-339.67l15.49 -14.59c59.2,-55.54 150.5,-141.27 240.15,-267.15 -378.93,-124.46 -707.99,-360.63 -947.46,-668.9 -259.62,-334.32 -414.74,-753.56 -414.74,-1207.13l0 -6204.42 -136.76 193.57c-106.68,152.2 -220.31,317.13 -340.47,496.33zm-1006.71 1237.8c271.13,-451.98 574.68,-928.63 851.7,-1341.56 117.83,-175.7 232.68,-342.38 342.7,-499.3 109.92,-156.81 212.41,-300.1 307.47,-431.77l169.23 -234.42 0 6783.77c0,410.44 140.37,789.85 375.27,1092.33 240.68,309.81 580.15,539.25 969.37,639.24l120.63 30.98 -63.23 106.85c-121.8,205.83 -257.98,333.57 -339.2,409.8l-15.49 14.59c-56.13,53 -56.18,60.63 -56.18,203.65l-0.95 357.24c-0.64,134 -1.86,267.26 -4.19,355.06 -7.22,266.46 -18.25,266.62 -673.09,272.14 -1.7,0.85 -8.22,0.16 -10.51,0.1 -585.08,4.88 -1730.25,14.54 -2245.3,14.54 -655,0 -655.11,-10.56 -660.36,-998.44l-0.11 -24.98c-4.93,-927.25 -14.58,-2732.46 -14.58,-3678.75 0,-516.38 2.49,-842.21 45.19,-1123.74 43.24,-285.09 126.84,-519.04 288.75,-847.73 149.81,-304.13 368.43,-692.13 612.88,-1099.6z"/>
  <path class="fil1" d="M4217.69 16041.74l4102.08 0c47.58,0 86.45,38.87 86.45,86.45l0 1700.1c0,47.57 -38.87,86.44 -86.45,86.44l-4102.08 0c-47.58,0 -86.45,-38.87 -86.45,-86.44l0 -1700.1c0,-47.58 38.87,-86.45 86.45,-86.45z"/>
  <path class="fil3" d="M3753.2 17457.21l5045.4 0c59.43,0 108.02,48.66 108.02,108.1l0 2257.35c0,59.44 -48.59,108.03 -108.02,108.03l-5045.4 0c-59.44,0 -108.07,-48.59 -108.07,-108.03l0 -2257.35c0,-59.44 48.63,-108.1 108.07,-108.1z"/>
  <polygon class="fil4" points="8202.55,3118.85 15659.13,3118.85 15659.13,5168.78 8202.55,5168.78 "/>
  <polygon class="fil4" points="8176.97,5604.36 15633.54,5604.36 15633.54,7654.29 8176.97,7654.29 "/>
  <polygon class="fil3" points="8202.55,8038.65 15659.13,8038.65 15659.13,10088.58 8202.55,10088.58 "/>
  <path class="fil0" d="M5723.12 11323.53c300.26,-319.32 805.43,-824.49 1282.02,-1262.96 476.6,-438.46 924.58,-810.2 1202.59,-976.21 278,-166 385.99,-126.3 514.68,-54.79 128.68,71.48 278.02,174.74 252.62,402.71 -25.4,227.96 -225.58,580.63 -549.65,1004.81 -324.08,424.15 -772.06,919.79 -1019.88,1334.44 -247.84,414.62 -295.5,748.23 -290.72,1143.81 4.75,395.56 61.95,853.07 -14.31,1215.28 -76.26,362.2 -285.95,629.11 -471.82,772.09 -185.87,142.97 -347.92,162.03 -533.77,-14.31 -185.87,-176.33 -395.58,-548.07 -533.79,-891.21 -138.2,-343.15 -204.93,-657.69 -247.82,-1000.83 -42.9,-343.15 -61.97,-714.89 -23.84,-967.48 38.13,-252.6 133.43,-386.03 433.69,-705.35z"/>
  <path class="fil2" d="M5619.82 11253.17c160.54,-170.74 380.02,-394.95 622.76,-634.08 212.2,-209.06 441.32,-428.67 663.13,-632.74 247.46,-227.66 487.9,-437.93 701.66,-611.43 199.74,-162.16 376.23,-292.09 513.45,-374.01 151.5,-90.46 260.07,-125 350.55,-127.19 96.39,-2.31 165.64,29.83 240.08,71.2 71.12,39.49 148.41,88.32 206.71,161.73 61.73,77.68 99.88,178.52 84.62,315.75 -13.55,121.74 -71.15,273 -166.46,447.2 -96.2,175.86 -231.26,376.73 -398.36,595.44 -106.03,138.75 -226.88,287.07 -349.57,437.62 -247.1,303.22 -502.05,616.1 -665.55,889.66 -119.4,199.75 -190.54,379.72 -231.16,557.03 -40.83,178.28 -51.16,354.94 -48.85,546.88 1.28,106.5 6.68,221.5 12.11,337.83 14.33,306.59 29.11,622.95 -27.91,893.83 -36.53,173.49 -102.02,326.26 -180.9,455.37 -95.36,156.06 -210.83,278.25 -318.91,361.41 -105.91,81.44 -207.61,127.66 -313.05,128.35 -63.98,0.45 -239.37,-7.63 -167.67,-137.28 18.96,-34.28 112.92,-14.29 167.06,-14.63 68.42,-0.46 140.78,-35.32 220.72,-96.8 95.06,-73.14 197.06,-181.33 281.99,-320.29 70.62,-115.58 129.22,-252.21 161.83,-407.12 53.16,-252.47 38.8,-559.1 24.93,-856.27 -5.41,-115.49 -10.77,-229.66 -12.11,-342.62 -2.46,-203.62 8.65,-391.59 52.4,-582.64 43.96,-191.99 120.65,-386.27 249.05,-601.08 169.25,-283.18 427.63,-600.25 678.05,-907.56 120.76,-148.17 239.69,-294.14 346.58,-434.03 163.11,-213.48 293.99,-407.8 385.87,-575.77 85.81,-156.86 137.28,-289.36 148.61,-391.21 10.09,-90.72 -13.71,-155.57 -52.46,-204.35 -42.15,-53.07 -103.95,-91.67 -161.45,-123.6 -54.19,-30.11 -103.38,-53.56 -162.61,-52.14 -65.15,1.56 -149.68,30.24 -276.11,105.75 -130.69,78.03 -301.17,203.72 -495.55,361.51 -210.02,170.48 -448.13,378.79 -694.52,605.47 -222.4,204.58 -450.03,422.73 -659.55,629.15 -240.47,236.88 -458.55,459.71 -618.61,629.93 -146.98,156.28 -243.36,266.46 -306.2,366.08 -45.13,71.57 -73.45,139.29 -92.15,217.97 -61.84,88.62 -158.69,36.87 -143.67,-54.15 22.37,-86.61 55.68,-163.26 107.12,-244.83 69.39,-110.05 170.83,-226.36 324.1,-389.34z"/>
  <polygon class="fil0" points="8151.3,10549.83 15607.91,10549.83 15607.91,12599.76 8151.3,12599.76 "/>
  <path class="fil5" d="M9658.71 2028.35l67.33 0 -154.1 436.92 -58.47 0 -114.54 -347.15 -114.54 347.15 -59.04 0 -153.49 -436.92 67.29 0 118.67 352.5 111.59 -352.5 59.04 0 111.58 352.5 118.68 -352.5zm375.5 275.17c0,7.85 -0.41,16.52 -1.18,25.95l-240.91 0c3.16,29.15 12.43,52.07 27.78,68.79 15.34,16.72 36.4,25.11 63.16,25.11 37.01,0 67.13,-15.35 90.33,-46.08l46.64 24.82c-14.94,22.03 -34.25,39.07 -57.85,51.06 -23.61,12.02 -49.6,18.01 -77.95,18.01 -46.84,0 -84.5,-14.86 -113.04,-44.57 -28.55,-29.72 -42.8,-69 -42.8,-117.79 0,-49.19 14.05,-88.95 42.19,-119.28 28.14,-30.28 65.07,-45.47 110.7,-45.47 45.67,0 82.56,14.7 110.7,44.01 28.18,29.32 42.23,67.78 42.23,115.44zm-152.93 -111.59c-25.59,0 -46.12,8.46 -61.67,25.39 -15.55,16.92 -24.7,40.53 -27.49,70.81l179.49 0c-2.75,-30.28 -11.99,-53.89 -27.74,-70.81 -15.75,-16.93 -36.6,-25.39 -62.59,-25.39zm223.17 273.34l0 -460.52 60.25 0 0 460.52 -60.25 0zm295.21 5.91c-48.79,0 -88.27,-14.98 -118.35,-44.86 -30.12,-29.92 -45.18,-69.48 -45.18,-118.67 0,-49.24 15.14,-88.79 45.46,-118.68 30.29,-29.92 70.25,-44.9 119.85,-44.9 39.76,0 74.79,11.82 105.11,35.43l-34.25 41.34c-20.08,-16.52 -43.49,-24.78 -70.25,-24.78 -31.1,0 -56.12,10.2 -74.99,30.69 -18.9,20.45 -28.34,47.41 -28.34,80.9 0,33.44 9.52,60.41 28.63,80.86 19.07,20.48 44.17,30.73 75.27,30.73 33.08,0 59.43,-10.45 79.11,-31.3l34.82 40.73c-29.51,28.34 -68.46,42.51 -116.89,42.51zm430.16 -45.18c-30.13,30.12 -69.76,45.18 -119,45.18 -49.19,0 -88.95,-15.06 -119.24,-45.18 -30.33,-30.09 -45.47,-69.56 -45.47,-118.35 0,-48.83 15.14,-88.27 45.47,-118.39 30.29,-30.13 70.05,-45.19 119.24,-45.19 49.24,0 88.87,15.06 119,45.19 30.08,30.12 45.14,69.56 45.14,118.39 0,48.79 -15.06,88.26 -45.14,118.35zm-119 -6.76c30.33,0 54.82,-10.25 73.53,-30.73 18.71,-20.45 28.06,-47.42 28.06,-80.86 0,-33.49 -9.35,-60.45 -28.06,-80.9 -18.71,-20.49 -43.2,-30.69 -73.53,-30.69 -30.69,0 -55.39,10.2 -74.09,30.69 -18.67,20.45 -28.02,47.41 -28.02,80.9 0,33.44 9.35,60.41 28.02,80.86 18.7,20.48 43.4,30.73 74.09,30.73zm599.28 -275.17c37.78,0 68.19,11.22 91.22,33.69 23.04,22.43 34.54,52.15 34.54,89.12l0 198.39 -60.21 0 0 -187.75c0,-24.41 -7.08,-44.09 -21.25,-59.03 -14.17,-14.98 -32.88,-22.43 -56.12,-22.43 -23.2,0 -41.99,7.45 -56.36,22.43 -14.38,14.94 -21.58,34.62 -21.58,59.03l0 187.75 -60.21 0 0 -187.75c0,-24.41 -7.09,-44.09 -21.26,-59.03 -14.17,-14.98 -32.87,-22.43 -56.08,-22.43 -23.24,0 -41.9,7.45 -56.07,22.43 -14.17,14.94 -21.26,34.62 -21.26,59.03l0 187.75 -60.25 0 0 -315.29 57.86 0 1.18 43.12c21.66,-32.67 54.53,-49.03 98.63,-49.03 46.8,0 80.65,18.71 101.54,56.12 21.63,-37.41 56.85,-56.12 105.68,-56.12zm498.3 159.45c0,7.85 -0.4,16.52 -1.17,25.95l-240.91 0c3.16,29.15 12.43,52.07 27.77,68.79 15.35,16.72 36.4,25.11 63.17,25.11 37,0 67.13,-15.35 90.33,-46.08l46.64 24.82c-14.94,22.03 -34.25,39.07 -57.86,51.06 -23.6,12.02 -49.6,18.01 -77.94,18.01 -46.85,0 -84.5,-14.86 -113.05,-44.57 -28.54,-29.72 -42.79,-69 -42.79,-117.79 0,-49.19 14.05,-88.95 42.19,-119.28 28.14,-30.28 65.06,-45.47 110.69,-45.47 45.68,0 82.56,14.7 110.7,44.01 28.18,29.32 42.23,67.78 42.23,115.44zm-152.93 -111.59c-25.58,0 -46.11,8.46 -61.66,25.39 -15.55,16.92 -24.7,40.53 -27.49,70.81l179.49 0c-2.76,-30.28 -11.99,-53.89 -27.74,-70.81 -15.75,-16.93 -36.6,-25.39 -62.6,-25.39zm583.37 279.25c-67.7,0 -122.32,-20.69 -163.86,-61.98 -41.5,-41.34 -62.27,-95.84 -62.27,-163.58 0,-66.89 20.65,-120.82 61.99,-161.76 41.34,-40.93 95.84,-61.42 163.54,-61.42 69.27,0 125.39,23.65 168.27,70.86l-39.56 40.16c-31.86,-39.35 -74.18,-59.03 -126.93,-59.03 -48.79,0 -87.99,15.63 -117.5,46.93 -29.52,31.3 -44.26,72.72 -44.26,124.26 0,51.99 14.86,93.89 44.54,125.76 29.72,31.9 68.59,47.86 116.61,47.86 59.07,0 104.91,-24.42 137.58,-73.25l43.12 38.99c-43.32,57.46 -103.73,86.2 -181.27,86.2zm408.58 -327.11c38.14,0 68.95,11.22 92.4,33.69 23.4,22.43 35.1,52.15 35.1,89.12l0 198.39 -60.21 0 0 -187.75c0,-24.41 -7.97,-44.09 -23.93,-59.03 -15.91,-14.98 -37.08,-22.43 -63.44,-22.43 -26.4,0 -47.54,7.45 -63.49,22.43 -15.95,14.94 -23.89,34.62 -23.89,59.03l0 187.75 -60.25 0 0 -460.52 60.25 0 0 190.1c23.2,-33.85 59.03,-50.78 107.46,-50.78zm272.13 53.16c24.01,-35.42 64.17,-53.16 120.45,-53.16l-4.13 55.51c-35.43,0 -63.44,8.06 -84.13,24.22 -20.65,16.15 -30.98,37.77 -30.98,64.94l0 176.53 -60.25 0 0 -315.29 57.86 0 1.18 47.25zm200.14 -112.76c-11.02,0 -20.05,-3.56 -27.13,-10.65 -7.09,-7.08 -10.65,-16.11 -10.65,-27.17 0,-11.01 3.56,-20.04 10.65,-27.12 7.08,-7.09 16.11,-10.65 27.13,-10.65 10.64,0 19.51,3.56 26.6,10.65 7.08,7.08 10.61,16.11 10.61,27.12 0,11.06 -3.53,20.09 -10.61,27.17 -7.09,7.09 -15.96,10.65 -26.6,10.65zm-30.09 380.8l0 -315.29 60.21 0 0 315.29 -60.21 0zm247.35 5.91c-49.19,0 -86.97,-11.62 -113.33,-34.86l23.61 -37.17c25.18,16.52 55.3,24.78 90.33,24.78 18.5,0 33.56,-3.92 45.14,-11.78 11.62,-7.89 17.45,-18.3 17.45,-31.3 0,-20.85 -20.08,-37 -60.24,-48.42l-30.69 -8.26c-28.35,-7.9 -49.81,-17.9 -64.38,-30.13 -14.54,-12.18 -21.83,-29.72 -21.83,-52.55 0,-29.11 10.73,-52.64 32.19,-70.53 21.42,-17.9 49.68,-26.89 84.71,-26.89 45.26,0 82.88,10.04 112.76,30.13l-25.39 40.16c-24.37,-14.98 -52.15,-22.43 -83.24,-22.43 -17.7,0 -32.07,3.73 -43.08,11.22 -11.02,7.45 -16.56,17.28 -16.56,29.51 0,11.02 4.53,19.76 13.6,26.28 9.03,6.48 22.23,12.27 39.56,17.41l30.69 8.26c62.19,16.92 93.29,47.41 93.29,91.51 0,28.74 -11.3,51.74 -33.93,69.07 -22.64,17.33 -52.84,25.99 -90.66,25.99zm320.03 -51.94c21.25,0 40.93,-3.57 59.03,-10.65l0 48.42c-21.26,9.44 -47.21,14.17 -77.94,14.17 -27.13,0 -49.07,-8.58 -65.8,-25.67 -16.76,-17.12 -25.1,-39.47 -25.1,-67.05l0 -178.88 -53.73 0 0 -49.6 53.73 0 0 -92.11 60.21 0 0 92.11 103.93 0 0 49.6 -103.93 0 0 166.49c0,15.75 4.53,28.55 13.6,38.39 9.03,9.84 21.06,14.78 36,14.78zm144.62 -334.77c-11.01,0 -20.04,-3.56 -27.12,-10.65 -7.09,-7.08 -10.65,-16.11 -10.65,-27.17 0,-11.01 3.56,-20.04 10.65,-27.12 7.08,-7.09 16.11,-10.65 27.12,-10.65 10.65,0 19.52,3.56 26.61,10.65 7.08,7.08 10.6,16.11 10.6,27.12 0,11.06 -3.52,20.09 -10.6,27.17 -7.09,7.09 -15.96,10.65 -26.61,10.65zm-30.08 380.8l0 -315.29 60.21 0 0 315.29 -60.21 0zm317.64 -321.2c38.14,0 68.95,11.22 92.4,33.69 23.4,22.43 35.1,52.15 35.1,89.12l0 198.39 -60.21 0 0 -187.75c0,-24.41 -7.97,-44.09 -23.93,-59.03 -15.91,-14.98 -37.09,-22.43 -63.44,-22.43 -26.4,0 -47.54,7.45 -63.49,22.43 -15.95,14.94 -23.89,34.62 -23.89,59.03l0 187.75 -60.25 0 0 -315.29 57.86 0 1.18 46.65c23.24,-35.03 59.43,-52.56 108.67,-52.56zm500.04 159.45c0,7.85 -0.4,16.52 -1.17,25.95l-240.91 0c3.15,29.15 12.43,52.07 27.77,68.79 15.35,16.72 36.4,25.11 63.16,25.11 37.01,0 67.14,-15.35 90.34,-46.08l46.64 24.82c-14.94,22.03 -34.25,39.07 -57.86,51.06 -23.6,12.02 -49.6,18.01 -77.94,18.01 -46.85,0 -84.5,-14.86 -113.05,-44.57 -28.54,-29.72 -42.79,-69 -42.79,-117.79 0,-49.19 14.05,-88.95 42.19,-119.28 28.14,-30.28 65.06,-45.47 110.69,-45.47 45.67,0 82.56,14.7 110.7,44.01 28.18,29.32 42.23,67.78 42.23,115.44zm-152.93 -111.59c-25.59,0 -46.11,8.46 -61.66,25.39 -15.55,16.92 -24.7,40.53 -27.49,70.81l179.48 0c-2.75,-30.28 -11.98,-53.89 -27.73,-70.81 -15.75,-16.93 -36.6,-25.39 -62.6,-25.39zm232.05 161.75l-5.91 -325.33 63.77 0 -5.92 325.33 -51.94 0zm53.16 106.86c-7.09,7.08 -16.16,10.64 -27.17,10.64 -11.01,0 -20.08,-3.56 -27.17,-10.64 -7.08,-7.09 -10.65,-16.12 -10.65,-27.13 0,-11.06 3.57,-20 10.65,-26.89 7.09,-6.88 16.16,-10.32 27.17,-10.32 11.01,0 20.08,3.44 27.17,10.32 7.04,6.89 10.61,15.83 10.61,26.89 0,11.01 -3.57,20.04 -10.61,27.13z"/>
  <path class="fil2" d="M9840.83 4037.87c-63.77,0 -113.17,-17.53 -148.19,-52.55l24.17 -43.08c33.08,29.11 73.04,43.69 119.89,43.69 31.05,0 55.67,-5.92 73.77,-17.74 18.1,-11.78 27.17,-27.94 27.17,-48.42 0,-20.05 -8.46,-35.8 -25.39,-47.21 -16.92,-11.42 -42.71,-22.23 -77.33,-32.48l-27.78 -7.69c-37.77,-10.2 -67.01,-24.29 -87.66,-42.19 -20.65,-17.94 -31.01,-43 -31.01,-75.31 0,-37.78 14.17,-68.18 42.51,-91.18 28.34,-23.04 65.96,-34.58 112.76,-34.58 56.32,0 103.33,16.76 141.15,50.21l-28.95 43.69c-31.5,-27.94 -68.87,-41.91 -112.2,-41.91 -27.12,0 -48.99,5.91 -65.51,17.69 -16.52,11.83 -24.82,27.37 -24.82,46.65 0,18.9 7.09,33.36 21.26,43.4 14.17,10.04 35.06,18.99 62.6,26.85l28.34 7.69c18.5,5.5 34.94,11.42 49.31,17.69 14.34,6.32 28.71,14.58 43.08,24.82 14.38,10.25 25.51,22.72 33.37,37.49 7.85,14.74 11.82,31.59 11.82,50.49 0,36.97 -14.86,66.89 -44.58,89.73 -29.72,22.83 -68.99,34.25 -117.78,34.25zm520.73 -167.66c0,7.85 -0.4,16.52 -1.17,25.95l-240.91 0c3.15,29.15 12.43,52.07 27.77,68.79 15.35,16.72 36.4,25.1 63.16,25.1 37.01,0 67.14,-15.34 90.34,-46.07l46.64 24.82c-14.94,22.02 -34.25,39.07 -57.86,51.06 -23.6,12.02 -49.6,18.01 -77.94,18.01 -46.85,0 -84.5,-14.86 -113.05,-44.58 -28.54,-29.71 -42.79,-68.99 -42.79,-117.78 0,-49.19 14.05,-88.95 42.19,-119.28 28.14,-30.29 65.06,-45.47 110.69,-45.47 45.67,0 82.56,14.7 110.7,44.01 28.18,29.32 42.23,67.78 42.23,115.44zm-152.93 -111.59c-25.59,0 -46.11,8.46 -61.66,25.39 -15.55,16.92 -24.7,40.53 -27.49,70.81l179.48 0c-2.75,-30.28 -11.98,-53.89 -27.73,-70.81 -15.75,-16.93 -36.6,-25.39 -62.6,-25.39zm223.18 273.34l0 -460.52 60.25 0 0 460.52 -60.25 0zm438.09 -161.75c0,7.85 -0.4,16.52 -1.17,25.95l-240.91 0c3.16,29.15 12.43,52.07 27.77,68.79 15.35,16.72 36.4,25.1 63.17,25.1 37,0 67.13,-15.34 90.33,-46.07l46.64 24.82c-14.94,22.02 -34.25,39.07 -57.86,51.06 -23.6,12.02 -49.6,18.01 -77.94,18.01 -46.85,0 -84.5,-14.86 -113.05,-44.58 -28.54,-29.71 -42.79,-68.99 -42.79,-117.78 0,-49.19 14.05,-88.95 42.19,-119.28 28.14,-30.29 65.06,-45.47 110.69,-45.47 45.68,0 82.56,14.7 110.7,44.01 28.18,29.32 42.23,67.78 42.23,115.44zm-152.93 -111.59c-25.58,0 -46.11,8.46 -61.66,25.39 -15.55,16.92 -24.7,40.53 -27.49,70.81l179.49 0c-2.76,-30.28 -11.99,-53.89 -27.74,-70.81 -15.75,-16.93 -36.6,-25.39 -62.6,-25.39zm366.07 279.25c-48.79,0 -88.27,-14.98 -118.35,-44.86 -30.13,-29.92 -45.19,-69.48 -45.19,-118.67 0,-49.24 15.14,-88.8 45.47,-118.68 30.29,-29.92 70.25,-44.9 119.85,-44.9 39.76,0 74.78,11.82 105.11,35.43l-34.25 41.34c-20.09,-16.52 -43.49,-24.78 -70.25,-24.78 -31.1,0 -56.12,10.2 -74.99,30.69 -18.91,20.45 -28.34,47.41 -28.34,80.9 0,33.44 9.51,60.41 28.62,80.85 19.07,20.49 44.18,30.74 75.27,30.74 33.08,0 59.44,-10.45 79.12,-31.3l34.82 40.73c-29.52,28.34 -68.47,42.51 -116.89,42.51zm304.07 -51.94c21.26,0 40.94,-3.57 59.04,-10.65l0 48.42c-21.26,9.44 -47.22,14.17 -77.95,14.17 -27.12,0 -49.07,-8.58 -65.79,-25.67 -16.76,-17.12 -25.1,-39.47 -25.1,-67.05l0 -178.88 -53.73 0 0 -49.6 53.73 0 0 -92.11 60.2 0 0 92.11 103.94 0 0 49.6 -103.94 0 0 166.49c0,15.75 4.54,28.55 13.61,38.39 9.03,9.84 21.05,14.78 35.99,14.78zm382.58 -275.17c39.4,0 71.06,11.22 95.07,33.69 24.01,22.43 36.04,52.15 36.04,89.11l0 198.4 -58.47 0 -1.17 -55.51c-10.65,19.31 -25.59,34.34 -44.86,45.19 -19.32,10.81 -40.17,16.23 -62.6,16.23 -31.5,0 -57.09,-8.66 -76.77,-25.99 -19.68,-17.33 -29.51,-40.13 -29.51,-68.47 0,-29.52 12.02,-53.24 36.03,-71.14 24.01,-17.93 55.88,-26.88 95.64,-26.88 27.16,0 54.33,2.95 81.46,8.86l0 -14.17c0,-25.18 -7.65,-45.06 -23,-59.64 -15.38,-14.57 -36.24,-21.82 -62.59,-21.82 -32.27,0 -59.24,10.2 -80.9,30.69l-26.56 -36.04c31.86,-28.34 72.64,-42.51 122.19,-42.51zm-18.86 283.42c23.2,0 43.89,-8.94 61.99,-26.88 18.09,-17.9 27.37,-41.83 27.73,-71.71 -25.59,-5.54 -50.17,-8.3 -73.77,-8.3 -22.84,0 -41.26,5.02 -55.23,15.07 -13.97,10.04 -20.97,23.11 -20.97,39.27 0,16.16 5.34,28.91 15.95,38.38 10.65,9.44 25.39,14.17 44.3,14.17zm563.28 -283.42c43.69,0 79.69,15.06 108.03,45.19 28.34,30.12 42.51,69.15 42.51,117.17 0,48.83 -14.17,88.47 -42.51,119 -28.34,30.49 -64.34,45.75 -108.03,45.75 -53.16,0 -91.71,-20.69 -115.72,-61.99l0 185.97 -60.24 0 0 -445.18 57.86 0 1.78 57.29c23.6,-42.15 62.39,-63.2 116.32,-63.2zm-14.17 275.17c30.69,0 55.39,-10.25 74.1,-30.74 18.7,-20.44 28.01,-47.61 28.01,-81.46 0,-33.44 -9.31,-60.33 -28.01,-80.57 -18.71,-20.29 -43.41,-30.41 -74.1,-30.41 -30.33,0 -54.82,10.2 -73.53,30.69 -18.7,20.45 -28.02,47.41 -28.02,80.9 0,33.44 9.32,60.41 28.02,80.85 18.71,20.49 43.2,30.74 73.53,30.74zm352.46 -275.17c39.4,0 71.06,11.22 95.07,33.69 24.01,22.43 36.03,52.15 36.03,89.11l0 198.4 -58.46 0 -1.18 -55.51c-10.65,19.31 -25.59,34.34 -44.86,45.19 -19.31,10.81 -40.16,16.23 -62.6,16.23 -31.5,0 -57.09,-8.66 -76.76,-25.99 -19.68,-17.33 -29.52,-40.13 -29.52,-68.47 0,-29.52 12.03,-53.24 36.04,-71.14 24.01,-17.93 55.87,-26.88 95.63,-26.88 27.17,0 54.34,2.95 81.47,8.86l0 -14.17c0,-25.18 -7.66,-45.06 -23,-59.64 -15.39,-14.57 -36.24,-21.82 -62.6,-21.82 -32.27,0 -59.23,10.2 -80.9,30.69l-26.56 -36.04c31.87,-28.34 72.64,-42.51 122.2,-42.51zm-18.87 283.42c23.2,0 43.89,-8.94 61.99,-26.88 18.1,-17.9 27.37,-41.83 27.74,-71.71 -25.59,-5.54 -50.17,-8.3 -73.78,-8.3 -22.83,0 -41.25,5.02 -55.22,15.07 -13.97,10.04 -20.98,23.11 -20.98,39.27 0,16.16 5.35,28.91 15.96,38.38 10.65,9.44 25.38,14.17 44.29,14.17zm360.15 -8.25c21.26,0 40.94,-3.57 59.04,-10.65l0 48.42c-21.26,9.44 -47.21,14.17 -77.95,14.17 -27.12,0 -49.07,-8.58 -65.79,-25.67 -16.76,-17.12 -25.1,-39.47 -25.1,-67.05l0 -178.88 -53.73 0 0 -49.6 53.73 0 0 -92.11 60.2 0 0 92.11 103.94 0 0 49.6 -103.94 0 0 166.49c0,15.75 4.54,28.55 13.61,38.39 9.03,9.84 21.05,14.78 35.99,14.78zm144.63 -334.77c-11.01,0 -20.04,-3.56 -27.13,-10.65 -7.08,-7.08 -10.65,-16.11 -10.65,-27.17 0,-11.01 3.57,-20.04 10.65,-27.12 7.09,-7.09 16.12,-10.65 27.13,-10.65 10.65,0 19.52,3.56 26.6,10.65 7.09,7.08 10.61,16.11 10.61,27.12 0,11.06 -3.52,20.09 -10.61,27.17 -7.08,7.09 -15.95,10.65 -26.6,10.65zm-30.08 380.8l0 -315.29 60.2 0 0 315.29 -60.2 0zm436.88 -161.75c0,7.85 -0.41,16.52 -1.18,25.95l-240.91 0c3.16,29.15 12.43,52.07 27.78,68.79 15.34,16.72 36.4,25.1 63.16,25.1 37.01,0 67.13,-15.34 90.33,-46.07l46.64 24.82c-14.94,22.02 -34.25,39.07 -57.85,51.06 -23.61,12.02 -49.6,18.01 -77.95,18.01 -46.84,0 -84.5,-14.86 -113.04,-44.58 -28.55,-29.71 -42.8,-68.99 -42.8,-117.78 0,-49.19 14.05,-88.95 42.19,-119.28 28.14,-30.29 65.07,-45.47 110.7,-45.47 45.67,0 82.56,14.7 110.7,44.01 28.18,29.32 42.23,67.78 42.23,115.44zm-152.93 -111.59c-25.59,0 -46.12,8.46 -61.67,25.39 -15.54,16.92 -24.7,40.53 -27.49,70.81l179.49 0c-2.75,-30.28 -11.99,-53.89 -27.74,-70.81 -15.75,-16.93 -36.6,-25.39 -62.59,-25.39zm389.71 -47.86c38.14,0 68.95,11.22 92.39,33.69 23.41,22.43 35.11,52.15 35.11,89.11l0 198.4 -60.21 0 0 -187.75c0,-24.41 -7.98,-44.09 -23.93,-59.03 -15.91,-14.98 -37.09,-22.43 -63.45,-22.43 -26.4,0 -47.53,7.45 -63.48,22.43 -15.96,14.94 -23.89,34.62 -23.89,59.03l0 187.75 -60.25 0 0 -315.29 57.86 0 1.17 46.65c23.24,-35.03 59.44,-52.56 108.68,-52.56zm337.68 275.17c21.25,0 40.93,-3.57 59.03,-10.65l0 48.42c-21.26,9.44 -47.21,14.17 -77.94,14.17 -27.13,0 -49.07,-8.58 -65.8,-25.67 -16.76,-17.12 -25.1,-39.47 -25.1,-67.05l0 -178.88 -53.73 0 0 -49.6 53.73 0 0 -92.11 60.21 0 0 92.11 103.93 0 0 49.6 -103.93 0 0 166.49c0,15.75 4.53,28.55 13.6,38.39 9.03,9.84 21.06,14.78 36,14.78zm-4817.53 708.47c21.26,0 40.93,-3.56 59.03,-10.64l0 48.42c-21.25,9.44 -47.21,14.17 -77.94,14.17 -27.13,0 -49.07,-8.58 -65.79,-25.67 -16.77,-17.12 -25.11,-39.47 -25.11,-67.05l0 -178.88 -53.73 0 0 -49.6 53.73 0 0 -92.11 60.21 0 0 92.11 103.94 0 0 49.6 -103.94 0 0 166.49c0,15.75 4.53,28.55 13.6,38.39 9.03,9.84 21.06,14.77 36,14.77zm375.21 6.77c-30.12,30.12 -69.76,45.18 -119,45.18 -49.19,0 -88.95,-15.06 -119.24,-45.18 -30.32,-30.09 -45.47,-69.56 -45.47,-118.35 0,-48.83 15.15,-88.27 45.47,-118.39 30.29,-30.13 70.05,-45.19 119.24,-45.19 49.24,0 88.88,15.06 119,45.19 30.09,30.12 45.15,69.56 45.15,118.39 0,48.79 -15.06,88.26 -45.15,118.35zm-119 -6.77c30.33,0 54.83,-10.24 73.53,-30.73 18.71,-20.44 28.06,-47.41 28.06,-80.85 0,-33.49 -9.35,-60.45 -28.06,-80.9 -18.7,-20.49 -43.2,-30.69 -73.53,-30.69 -30.69,0 -55.38,10.2 -74.09,30.69 -18.67,20.45 -28.02,47.41 -28.02,80.9 0,33.44 9.35,60.41 28.02,80.85 18.71,20.49 43.4,30.73 74.09,30.73zm483.57 51.95c-49.2,0 -86.97,-11.62 -113.33,-34.86l23.6 -37.17c25.19,16.52 55.31,24.78 90.33,24.78 18.51,0 33.57,-3.93 45.15,-11.78 11.62,-7.9 17.45,-18.3 17.45,-31.3 0,-20.85 -20.08,-37.01 -60.25,-48.42l-30.69 -8.26c-28.34,-7.9 -49.8,-17.9 -64.38,-30.13 -14.53,-12.18 -21.82,-29.72 -21.82,-52.55 0,-29.11 10.73,-52.64 32.19,-70.53 21.42,-17.9 49.68,-26.89 84.7,-26.89 45.27,0 82.88,10.04 112.77,30.12l-25.39 40.17c-24.38,-14.98 -52.15,-22.43 -83.25,-22.43 -17.69,0 -32.06,3.72 -43.08,11.21 -11.01,7.45 -16.56,17.29 -16.56,29.52 0,11.01 4.54,19.76 13.61,26.28 9.03,6.48 22.23,12.27 39.55,17.41l30.7 8.26c62.19,16.92 93.28,47.41 93.28,91.5 0,28.75 -11.29,51.75 -33.93,69.08 -22.63,17.33 -52.84,25.99 -90.65,25.99zm320.02 -51.95c21.26,0 40.94,-3.56 59.04,-10.64l0 48.42c-21.26,9.44 -47.21,14.17 -77.94,14.17 -27.13,0 -49.08,-8.58 -65.8,-25.67 -16.76,-17.12 -25.1,-39.47 -25.1,-67.05l0 -178.88 -53.73 0 0 -49.6 53.73 0 0 -92.11 60.2 0 0 92.11 103.94 0 0 49.6 -103.94 0 0 166.49c0,15.75 4.54,28.55 13.61,38.39 9.03,9.84 21.05,14.77 35.99,14.77zm230.83 -275.16c39.4,0 71.06,11.22 95.07,33.69 24.01,22.43 36.04,52.15 36.04,89.11l0 198.4 -58.47 0 -1.17 -55.51c-10.65,19.31 -25.59,34.34 -44.87,45.19 -19.31,10.81 -40.16,16.23 -62.59,16.23 -31.5,0 -57.09,-8.66 -76.77,-25.99 -19.68,-17.33 -29.52,-40.13 -29.52,-68.47 0,-29.52 12.03,-53.24 36.04,-71.14 24.01,-17.93 55.87,-26.88 95.63,-26.88 27.17,0 54.34,2.95 81.47,8.86l0 -14.17c0,-25.18 -7.65,-45.06 -23,-59.64 -15.38,-14.57 -36.24,-21.82 -62.59,-21.82 -32.27,0 -59.24,10.2 -80.9,30.69l-26.56 -36.04c31.86,-28.34 72.63,-42.51 122.19,-42.51zm-18.86 283.42c23.2,0 43.89,-8.94 61.98,-26.88 18.1,-17.9 27.37,-41.83 27.74,-71.71 -25.59,-5.54 -50.17,-8.3 -73.77,-8.3 -22.84,0 -41.26,5.02 -55.23,15.07 -13.97,10.04 -20.97,23.11 -20.97,39.27 0,16.15 5.34,28.91 15.95,38.38 10.65,9.44 25.39,14.17 44.3,14.17zm294.59 -230.26c24.01,-35.43 64.18,-53.16 120.46,-53.16l-4.13 55.51c-35.43,0 -63.45,8.06 -84.14,24.21 -20.65,16.16 -30.97,37.78 -30.97,64.95l0 176.53 -60.25 0 0 -315.29 57.86 0 1.17 47.25zm298.17 222c21.25,0 40.93,-3.56 59.03,-10.64l0 48.42c-21.26,9.44 -47.21,14.17 -77.94,14.17 -27.13,0 -49.07,-8.58 -65.8,-25.67 -16.76,-17.12 -25.1,-39.47 -25.1,-67.05l0 -178.88 -53.73 0 0 -49.6 53.73 0 0 -92.11 60.21 0 0 92.11 103.93 0 0 49.6 -103.93 0 0 166.49c0,15.75 4.53,28.55 13.6,38.39 9.03,9.84 21.06,14.77 36,14.77zm382.58 -275.16c39.4,0 71.06,11.22 95.07,33.69 24.01,22.43 36.03,52.15 36.03,89.11l0 198.4 -58.46 0 -1.18 -55.51c-10.65,19.31 -25.59,34.34 -44.86,45.19 -19.31,10.81 -40.16,16.23 -62.6,16.23 -31.5,0 -57.09,-8.66 -76.76,-25.99 -19.68,-17.33 -29.52,-40.13 -29.52,-68.47 0,-29.52 12.03,-53.24 36.04,-71.14 24.01,-17.93 55.87,-26.88 95.63,-26.88 27.17,0 54.34,2.95 81.47,8.86l0 -14.17c0,-25.18 -7.66,-45.06 -23,-59.64 -15.39,-14.57 -36.24,-21.82 -62.6,-21.82 -32.27,0 -59.23,10.2 -80.9,30.69l-26.56 -36.04c31.87,-28.34 72.64,-42.51 122.2,-42.51zm-18.87 283.42c23.2,0 43.89,-8.94 61.99,-26.88 18.1,-17.9 27.37,-41.83 27.74,-71.71 -25.59,-5.54 -50.17,-8.3 -73.78,-8.3 -22.83,0 -41.25,5.02 -55.22,15.07 -13.97,10.04 -20.98,23.11 -20.98,39.27 0,16.15 5.35,28.91 15.96,38.38 10.65,9.44 25.38,14.17 44.29,14.17zm484.74 43.69c-49.2,0 -86.97,-11.62 -113.33,-34.86l23.6 -37.17c25.19,16.52 55.31,24.78 90.34,24.78 18.5,0 33.56,-3.93 45.14,-11.78 11.62,-7.9 17.45,-18.3 17.45,-31.3 0,-20.85 -20.08,-37.01 -60.25,-48.42l-30.69 -8.26c-28.34,-7.9 -49.8,-17.9 -64.37,-30.13 -14.54,-12.18 -21.83,-29.72 -21.83,-52.55 0,-29.11 10.73,-52.64 32.19,-70.53 21.42,-17.9 49.68,-26.89 84.7,-26.89 45.27,0 82.89,10.04 112.77,30.12l-25.39 40.17c-24.37,-14.98 -52.15,-22.43 -83.25,-22.43 -17.69,0 -32.06,3.72 -43.08,11.21 -11.01,7.45 -16.56,17.29 -16.56,29.52 0,11.01 4.54,19.76 13.61,26.28 9.03,6.48 22.23,12.27 39.56,17.41l30.69 8.26c62.19,16.92 93.28,47.41 93.28,91.5 0,28.75 -11.29,51.75 -33.93,69.08 -22.63,17.33 -52.83,25.99 -90.65,25.99zm338.89 0c-48.79,0 -88.26,-14.98 -118.35,-44.86 -30.12,-29.92 -45.18,-69.48 -45.18,-118.67 0,-49.24 15.14,-88.8 45.47,-118.68 30.28,-29.92 70.25,-44.9 119.84,-44.9 39.77,0 74.79,11.82 105.11,35.43l-34.25 41.34c-20.08,-16.52 -43.48,-24.78 -70.25,-24.78 -31.09,0 -56.12,10.2 -74.98,30.69 -18.91,20.45 -28.35,47.41 -28.35,80.9 0,33.44 9.52,60.41 28.63,80.85 19.07,20.49 44.17,30.73 75.27,30.73 33.08,0 59.44,-10.44 79.11,-31.29l34.83 40.73c-29.52,28.34 -68.47,42.51 -116.9,42.51zm234.4 -273.95c24.01,-35.43 64.17,-53.16 120.45,-53.16l-4.13 55.51c-35.43,0 -63.45,8.06 -84.14,24.21 -20.65,16.16 -30.97,37.78 -30.97,64.95l0 176.53 -60.25 0 0 -315.29 57.86 0 1.18 47.25zm438.7 106.29c0,7.85 -0.41,16.52 -1.18,25.95l-240.91 0c3.16,29.15 12.43,52.07 27.78,68.79 15.34,16.72 36.4,25.1 63.16,25.1 37.01,0 67.13,-15.34 90.33,-46.07l46.64 24.82c-14.94,22.02 -34.25,39.07 -57.85,51.05 -23.61,12.03 -49.6,18.02 -77.95,18.02 -46.84,0 -84.5,-14.86 -113.04,-44.58 -28.55,-29.72 -42.8,-68.99 -42.8,-117.78 0,-49.19 14.05,-88.95 42.19,-119.28 28.14,-30.29 65.07,-45.47 110.7,-45.47 45.67,0 82.56,14.7 110.7,44.01 28.18,29.32 42.23,67.78 42.23,115.44zm-152.93 -111.59c-25.59,0 -46.12,8.46 -61.67,25.39 -15.54,16.92 -24.7,40.53 -27.49,70.81l179.49 0c-2.75,-30.28 -11.99,-53.89 -27.74,-70.81 -15.75,-16.93 -36.6,-25.39 -62.59,-25.39zm508.95 111.59c0,7.85 -0.41,16.52 -1.18,25.95l-240.91 0c3.16,29.15 12.43,52.07 27.78,68.79 15.34,16.72 36.4,25.1 63.16,25.1 37.01,0 67.13,-15.34 90.33,-46.07l46.65 24.82c-14.94,22.02 -34.26,39.07 -57.86,51.05 -23.61,12.03 -49.6,18.02 -77.94,18.02 -46.85,0 -84.51,-14.86 -113.05,-44.58 -28.55,-29.72 -42.8,-68.99 -42.8,-117.78 0,-49.19 14.05,-88.95 42.19,-119.28 28.14,-30.29 65.07,-45.47 110.7,-45.47 45.67,0 82.56,14.7 110.7,44.01 28.18,29.32 42.23,67.78 42.23,115.44zm-152.93 -111.59c-25.59,0 -46.12,8.46 -61.67,25.39 -15.54,16.92 -24.69,40.53 -27.49,70.81l179.49 0c-2.75,-30.28 -11.98,-53.89 -27.73,-70.81 -15.75,-16.93 -36.61,-25.39 -62.6,-25.39zm389.71 -47.86c38.14,0 68.95,11.22 92.39,33.69 23.41,22.43 35.11,52.15 35.11,89.11l0 198.4 -60.21 0 0 -187.75c0,-24.41 -7.98,-44.09 -23.93,-59.03 -15.91,-14.98 -37.09,-22.43 -63.44,-22.43 -26.4,0 -47.54,7.45 -63.49,22.43 -15.95,14.94 -23.89,34.62 -23.89,59.03l0 187.75 -60.25 0 0 -315.29 57.86 0 1.18 46.65c23.24,-35.03 59.43,-52.56 108.67,-52.56zm243.78 -59.6c-11.01,0 -20.04,-3.56 -27.12,-10.65 -7.09,-7.08 -10.65,-16.11 -10.65,-27.17 0,-11.01 3.56,-20.04 10.65,-27.12 7.08,-7.09 16.11,-10.65 27.12,-10.65 10.65,0 19.52,3.56 26.61,10.65 7.08,7.08 10.6,16.11 10.6,27.12 0,11.06 -3.52,20.09 -10.6,27.17 -7.09,7.09 -15.96,10.65 -26.61,10.65zm-30.08 380.8l0 -315.29 60.21 0 0 315.29 -60.21 0zm317.64 -321.2c38.14,0 68.95,11.22 92.39,33.69 23.41,22.43 35.11,52.15 35.11,89.11l0 198.4 -60.21 0 0 -187.75c0,-24.41 -7.98,-44.09 -23.93,-59.03 -15.91,-14.98 -37.09,-22.43 -63.44,-22.43 -26.4,0 -47.54,7.45 -63.49,22.43 -15.95,14.94 -23.89,34.62 -23.89,59.03l0 187.75 -60.25 0 0 -315.29 57.86 0 1.18 46.65c23.24,-35.03 59.43,-52.56 108.67,-52.56zm463.44 5.91l57.86 0 0 289.3c0,48.83 -16.44,87.98 -49.32,117.5 -32.84,29.51 -76.24,44.29 -130.17,44.29 -57.05,0 -103.33,-13.6 -138.76,-40.73l13 -47.82c34.66,24.38 75.96,36.6 123.98,36.6 36.23,0 65.47,-10.24 87.7,-30.73 22.22,-20.44 33.36,-47.41 33.36,-80.85l0 -28.95c-24.42,41.74 -63,62.59 -115.72,62.59 -43.69,0 -79.72,-15.26 -108.06,-45.75 -28.35,-30.53 -42.52,-70.17 -42.52,-119 0,-48.38 14.17,-87.58 42.52,-117.46 28.34,-29.92 64.37,-44.9 108.06,-44.9 53.53,0 92.28,21.26 116.29,63.77l1.78 -57.86zm-104.51 269.25c30.7,0 55.39,-10.24 74.1,-30.73 18.71,-20.44 28.06,-47.41 28.06,-80.85 0,-33.49 -9.35,-60.45 -28.06,-80.9 -18.71,-20.49 -43.4,-30.69 -74.1,-30.69 -30.32,0 -54.9,10.12 -73.81,30.41 -18.86,20.24 -28.34,47.13 -28.34,80.57 0,33.44 9.48,60.53 28.34,81.18 18.91,20.65 43.49,31.01 73.81,31.01z"/>
  <path class="fil2" d="M11497.12 6756.28c-63.77,0 -113.17,-17.54 -148.19,-52.56l24.17 -43.08c33.08,29.11 73.05,43.69 119.89,43.69 31.06,0 55.67,-5.91 73.77,-17.74 18.1,-11.78 27.17,-27.93 27.17,-48.42 0,-20.04 -8.46,-35.79 -25.39,-47.21 -16.92,-11.42 -42.71,-22.23 -77.33,-32.47l-27.78 -7.7c-37.77,-10.2 -67.01,-24.29 -87.66,-42.19 -20.64,-17.93 -31.01,-43 -31.01,-75.31 0,-37.77 14.17,-68.18 42.51,-91.18 28.35,-23.04 65.96,-34.58 112.77,-34.58 56.32,0 103.32,16.77 141.14,50.21l-28.95 43.69c-31.5,-27.94 -68.87,-41.91 -112.19,-41.91 -27.13,0 -49,5.91 -65.52,17.7 -16.51,11.82 -24.82,27.37 -24.82,46.64 0,18.91 7.09,33.36 21.26,43.4 14.17,10.05 35.07,18.99 62.6,26.85l28.34 7.69c18.5,5.51 34.94,11.42 49.32,17.7 14.33,6.31 28.7,14.57 43.08,24.82 14.37,10.24 25.5,22.71 33.36,37.49 7.85,14.74 11.82,31.58 11.82,50.49 0,36.97 -14.86,66.89 -44.58,89.72 -29.71,22.84 -68.99,34.26 -117.78,34.26zm377.85 0c-48.79,0 -88.27,-14.98 -118.35,-44.87 -30.13,-29.92 -45.19,-69.47 -45.19,-118.67 0,-49.23 15.14,-88.79 45.47,-118.67 30.29,-29.92 70.25,-44.91 119.85,-44.91 39.76,0 74.78,11.83 105.11,35.43l-34.26 41.34c-20.08,-16.52 -43.48,-24.78 -70.24,-24.78 -31.1,0 -56.12,10.21 -74.99,30.69 -18.91,20.45 -28.34,47.42 -28.34,80.9 0,33.44 9.51,60.41 28.62,80.86 19.07,20.49 44.18,30.73 75.27,30.73 33.08,0 59.44,-10.45 79.12,-31.3l34.82 40.73c-29.52,28.35 -68.47,42.52 -116.89,42.52zm292.25 -327.12c39.39,0 71.06,11.22 95.07,33.69 24.01,22.43 36.03,52.15 36.03,89.12l0 198.4 -58.46 0 -1.18 -55.52c-10.65,19.32 -25.59,34.34 -44.86,45.19 -19.31,10.81 -40.17,16.24 -62.6,16.24 -31.5,0 -57.09,-8.67 -76.77,-26 -19.67,-17.33 -29.51,-40.12 -29.51,-68.46 0,-29.52 12.02,-53.25 36.03,-71.14 24.01,-17.94 55.88,-26.89 95.64,-26.89 27.17,0 54.34,2.96 81.46,8.87l0 -14.17c0,-25.19 -7.65,-45.07 -22.99,-59.64 -15.39,-14.58 -36.24,-21.83 -62.6,-21.83 -32.27,0 -59.24,10.21 -80.9,30.69l-26.56 -36.03c31.87,-28.34 72.64,-42.52 122.2,-42.52zm-18.87 283.43c23.2,0 43.89,-8.95 61.99,-26.89 18.1,-17.89 27.37,-41.82 27.73,-71.7 -25.59,-5.55 -50.16,-8.3 -73.77,-8.3 -22.83,0 -41.26,5.02 -55.23,15.06 -13.96,10.04 -20.97,23.12 -20.97,39.27 0,16.16 5.35,28.91 15.95,38.39 10.65,9.43 25.39,14.17 44.3,14.17zm403.27 -283.43c38.14,0 68.96,11.22 92.4,33.69 23.4,22.43 35.1,52.15 35.1,89.12l0 198.4 -60.2 0 0 -187.75c0,-24.42 -7.98,-44.1 -23.93,-59.04 -15.92,-14.98 -37.09,-22.43 -63.45,-22.43 -26.4,0 -47.54,7.45 -63.49,22.43 -15.95,14.94 -23.89,34.62 -23.89,59.04l0 187.75 -60.24 0 0 -315.29 57.85 0 1.18 46.64c23.24,-35.02 59.44,-52.56 108.67,-52.56z"/>
  <path class="fil5" d="M11771.96 9308.03l-42.51 -101.55 -217.27 0 -43.12 101.55 -67.29 0 189.53 -436.92 58.42 0 188.97 436.92 -66.73 0zm-237.95 -153.5l173.57 0 -86.76 -206.05 -86.81 206.05zm594.54 -307.03l60.21 0 0 460.53 -57.86 0 -1.74 -57.86c-24.01,42.51 -62.8,63.77 -116.33,63.77 -43.69,0 -79.72,-14.98 -108.02,-44.86 -28.35,-29.93 -42.52,-69.12 -42.52,-117.5 0,-48.83 14.17,-88.47 42.52,-119 28.3,-30.49 64.33,-45.75 108.02,-45.75 52.76,0 91.31,21.05 115.72,63.2l0 -202.53zm-102.15 414.49c30.73,0 55.43,-10.24 74.09,-30.73 18.71,-20.45 28.06,-47.41 28.06,-80.86 0,-33.48 -9.35,-60.45 -28.06,-80.9 -18.66,-20.48 -43.36,-30.69 -74.09,-30.69 -30.29,0 -54.91,10.33 -73.78,30.98 -18.9,20.69 -28.34,47.74 -28.34,81.18 0,33.48 9.44,60.33 28.34,80.61 18.87,20.25 43.49,30.41 73.78,30.41zm499.51 -414.49l60.21 0 0 460.53 -57.86 0 -1.74 -57.86c-24.01,42.51 -62.8,63.77 -116.33,63.77 -43.68,0 -79.72,-14.98 -108.02,-44.86 -28.34,-29.93 -42.52,-69.12 -42.52,-117.5 0,-48.83 14.18,-88.47 42.52,-119 28.3,-30.49 64.34,-45.75 108.02,-45.75 52.76,0 91.31,21.05 115.72,63.2l0 -202.53zm-102.15 414.49c30.73,0 55.43,-10.24 74.09,-30.73 18.71,-20.45 28.06,-47.41 28.06,-80.86 0,-33.48 -9.35,-60.45 -28.06,-80.9 -18.66,-20.48 -43.36,-30.69 -74.09,-30.69 -30.29,0 -54.91,10.33 -73.77,30.98 -18.91,20.69 -28.35,47.74 -28.35,81.18 0,33.48 9.44,60.33 28.35,80.61 18.86,20.25 43.48,30.41 73.77,30.41z"/>
  <path class="fil2" d="M11767.14 11480.56l-197.18 0 0 148.75 172.97 0 0 51.95 -172.97 0 0 184.23 -63.2 0 0 -436.92 260.38 0 0 51.99zm95.64 4.13c-11.01,0 -20.04,-3.57 -27.13,-10.65 -7.08,-7.09 -10.65,-16.12 -10.65,-27.17 0,-11.01 3.57,-20.04 10.65,-27.13 7.09,-7.09 16.12,-10.65 27.13,-10.65 10.65,0 19.51,3.56 26.6,10.65 7.09,7.09 10.61,16.12 10.61,27.13 0,11.05 -3.52,20.08 -10.61,27.17 -7.09,7.08 -15.95,10.65 -26.6,10.65zm-30.08 380.8l0 -315.29 60.2 0 0 315.29 -60.2 0zm317.63 -321.2c38.14,0 68.96,11.21 92.4,33.68 23.4,22.43 35.1,52.15 35.1,89.12l0 198.4 -60.2 0 0 -187.75c0,-24.42 -7.98,-44.1 -23.93,-59.04 -15.91,-14.98 -37.09,-22.43 -63.45,-22.43 -26.4,0 -47.53,7.45 -63.49,22.43 -15.95,14.94 -23.88,34.62 -23.88,59.04l0 187.75 -60.25 0 0 -315.29 57.86 0 1.17 46.64c23.24,-35.02 59.44,-52.55 108.67,-52.55zm460.49 -139.33l60.2 0 0 460.53 -57.85 0 -1.75 -57.86c-24.01,42.51 -62.79,63.77 -116.32,63.77 -43.69,0 -79.72,-14.98 -108.03,-44.86 -28.34,-29.93 -42.51,-69.12 -42.51,-117.5 0,-48.83 14.17,-88.47 42.51,-119 28.31,-30.49 64.34,-45.75 108.03,-45.75 52.76,0 91.3,21.05 115.72,63.2l0 -202.53zm-102.16 414.49c30.73,0 55.43,-10.24 74.1,-30.73 18.7,-20.45 28.06,-47.41 28.06,-80.86 0,-33.48 -9.36,-60.45 -28.06,-80.9 -18.67,-20.48 -43.37,-30.69 -74.1,-30.69 -30.28,0 -54.9,10.33 -73.77,30.98 -18.91,20.69 -28.34,47.73 -28.34,81.18 0,33.48 9.43,60.33 28.34,80.61 18.87,20.25 43.49,30.41 73.77,30.41z"/>
 </g>
</svg>
