<?xml version="1.0" encoding="UTF-8"?>
<!DOCTYPE svg PUBLIC "-//W3C//DTD SVG 1.1//EN" "http://www.w3.org/Graphics/SVG/1.1/DTD/svg11.dtd">
<!-- Creator: CorelDRAW 2020 (64-Bit) -->
<svg xmlns="http://www.w3.org/2000/svg" xml:space="preserve" width="300mm" height="300mm" version="1.1" style="shape-rendering:geometricPrecision; text-rendering:geometricPrecision; image-rendering:optimizeQuality; fill-rule:evenodd; clip-rule:evenodd"
viewBox="0 0 30000 30000"
 xmlns:xlink="http://www.w3.org/1999/xlink"
 xmlns:xodm="http://www.corel.com/coreldraw/odm/2003">
 <defs>
  <style type="text/css">
   <![CDATA[
    .fil0 {fill:#3FB9B9;fill-rule:nonzero}
    .fil1 {fill:#253D60;fill-rule:nonzero}
    .fil2 {fill:#6FC467;fill-rule:nonzero}
   ]]>
  </style>
 </defs>
 <g id="Слой_x0020_1">
  <metadata id="CorelCorpID_0Corel-Layer"/>
  <path class="fil0" d="M24450.59 12606.86c-275.41,576.1 -565.18,1141.47 -874.56,1700.7 172.82,37.94 339.15,117.71 482.81,239 313.13,-566.21 607.36,-1140.32 887.32,-1726.53l236.1 1612.91 532.89 -78.02 -427.09 -2917.43 -2489 1579.63 288.58 454.73 1362.95 -864.99zm-1931.95 3451.39c-188.2,286.56 -382.21,569.84 -583.19,850.6 -61.61,85.34 -123.48,170.3 -185.84,255.07 -869.34,1171.12 -1814.4,2229.92 -2902.74,3202.04 -484.03,428.01 -977.92,823.88 -1502.3,1201.47 -623,444.04 -1257.5,838.92 -1930.92,1201.89 -619,329.31 -1241.62,615.94 -1894.01,872.81 -693.88,269.23 -1388.03,491.74 -2108.4,678.8 -809.18,206.22 -1614.02,358.16 -2441.9,466.79 -796.63,100.87 -1583.41,158.28 -2386.07,179.54 -882.69,19.54 -1752.3,-5.65 -2632.85,-68.9l-39.7 537.09c897.96,64.55 1785.47,90.35 2685.6,70.19 960.56,-24.92 1902.57,-101.75 2853.43,-240.87 339.31,-51.18 674.76,-109.23 1011.47,-175.38 1087.8,-219.15 2125.95,-514.23 3162.84,-910.1 673.85,-261.1 1317.92,-553.35 1957.76,-889.37 608.15,-323.51 1185.32,-672.01 1754.81,-1059.56 629.08,-432.78 1218.84,-892.51 1793.18,-1395.63 586.93,-519 1131.58,-1059.94 1657.79,-1640.35 542.93,-604.84 1043.65,-1226.92 1522.15,-1883.86 220.72,-305.76 433.2,-614.07 639.11,-926.51 -126.1,-54.31 -244.69,-132.82 -348.54,-235.72 -29.16,-28.89 -56.34,-58.97 -81.68,-90.04z"/>
  <polygon class="fil1" points="3712.02,5950.34 3712.02,27397.63 4250.64,27397.63 4250.64,5949.73 5134.25,7311.76 5586.11,7018.6 3981.26,4544.87 2377.58,7018.68 2829.52,7311.69 "/>
  <polygon class="fil1" points="23275.5,25346.83 1828.2,25346.83 1828.2,25885.45 23276.11,25885.45 21914.07,26769.06 22207.23,27220.92 24680.97,25616.06 22207.16,24012.39 21914.15,24464.33 "/>
  <path class="fil1" d="M3489.89 2248.99l548.81 0 0 221.68 -817.89 0 0 -1131.28 805.67 0 0 221.67 -536.59 0 0 226.26 483.08 0 0 221.67 -483.08 0 0 240zm1433.98 221.68l-238.5 -391.37 -180.38 0 0 391.37 -269.08 0 0 -1131.28 504.49 0c121.3,0 219.12,33.89 293.55,101.68 74.39,67.74 111.6,157.21 111.6,268.27 0,70.35 -17.1,132.75 -51.22,187.29 -34.16,54.5 -81.79,97.59 -142.94,129.16l287.4 444.88 -314.92 0zm-418.88 -909.61l0 296.56 181.9 0c54.05,0 97.86,-13.74 131.49,-41.26 33.62,-27.51 50.46,-63.2 50.46,-107.02 0,-44.84 -14.55,-80.76 -43.59,-107.78 -29.05,-26.99 -67.02,-40.5 -113.89,-40.5l-206.37 0zm1562.37 909.61l-238.5 -391.37 -180.38 0 0 391.37 -269.08 0 0 -1131.28 504.49 0c121.3,0 219.12,33.89 293.55,101.68 74.39,67.74 111.6,157.21 111.6,268.27 0,70.35 -17.1,132.75 -51.22,187.29 -34.16,54.5 -81.79,97.59 -142.94,129.16l287.4 444.88 -314.92 0zm-418.88 -909.61l0 296.56 181.9 0c54.05,0 97.86,-13.74 131.49,-41.26 33.63,-27.51 50.46,-63.2 50.46,-107.02 0,-44.84 -14.54,-80.76 -43.59,-107.78 -29.04,-26.99 -67.02,-40.5 -113.89,-40.5l-206.37 0zm1400.36 924.91c-183.47,0 -331.26,-53.28 -443.36,-159.77 -112.09,-106.52 -168.16,-246.9 -168.16,-421.17 0,-174.28 56.07,-314.65 168.16,-421.18 112.1,-106.49 259.89,-159.77 443.36,-159.77 181.4,0 327.89,53.28 439.49,159.77 111.6,106.53 167.4,246.9 167.4,421.18 0,174.27 -55.8,314.65 -167.4,421.17 -111.6,106.49 -258.09,159.77 -439.49,159.77zm0 -221.67c98.85,0 178.58,-32.87 239.23,-98.63 60.65,-65.72 90.95,-152.59 90.95,-260.64 0,-108.02 -30.3,-194.92 -90.95,-260.65 -60.65,-65.76 -140.38,-98.62 -239.23,-98.62 -99.89,0 -180.42,32.86 -241.56,98.62 -61.15,65.73 -91.72,152.63 -91.72,260.65 0,108.05 30.57,194.92 91.72,260.64 61.14,65.76 141.67,98.63 241.56,98.63zm1476.76 206.37l-238.5 -391.37 -180.38 0 0 391.37 -269.08 0 0 -1131.28 504.49 0c121.3,0 219.12,33.89 293.55,101.68 74.39,67.74 111.6,157.21 111.6,268.27 0,70.35 -17.1,132.75 -51.22,187.29 -34.16,54.5 -81.79,97.59 -142.94,129.16l287.4 444.88 -314.92 0zm-418.88 -909.61l0 296.56 181.9 0c54.05,0 97.86,-13.74 131.49,-41.26 33.62,-27.51 50.46,-63.2 50.46,-107.02 0,-44.84 -14.54,-80.76 -43.59,-107.78 -29.05,-26.99 -67.02,-40.5 -113.89,-40.5l-206.37 0zm1788.63 924.91c-183.47,0 -332.02,-53.78 -445.64,-161.29 -113.62,-107.52 -170.46,-248.93 -170.46,-424.23 0,-173.28 56.3,-312.63 168.93,-418.13 112.63,-105.49 261.18,-158.24 445.64,-158.24 192.63,0 344.46,60.15 455.57,180.42l-168.17 172.74c-28.55,-40.76 -68.01,-72.86 -118.47,-96.29 -50.45,-23.47 -106.26,-35.19 -167.4,-35.19 -101.91,0 -183.7,32.86 -245.38,98.62 -61.64,65.73 -92.48,152.1 -92.48,259.12 0,108.01 31.61,195.19 94.77,261.41 63.21,66.26 146.26,99.39 249.2,99.39 130.45,0 232.36,-57.1 305.76,-171.22l180.37 162.02c-115.15,153.89 -279.23,230.87 -492.24,230.87zm1154.22 0c-183.47,0 -331.26,-53.28 -443.35,-159.77 -112.1,-106.52 -168.17,-246.9 -168.17,-421.17 0,-174.28 56.07,-314.65 168.17,-421.18 112.09,-106.49 259.88,-159.77 443.35,-159.77 181.41,0 327.89,53.28 439.49,159.77 111.6,106.53 167.41,246.9 167.41,421.18 0,174.27 -55.81,314.65 -167.41,421.17 -111.6,106.49 -258.08,159.77 -439.49,159.77zm0 -221.67c98.85,0 178.58,-32.87 239.23,-98.63 60.65,-65.72 90.95,-152.59 90.95,-260.64 0,-108.02 -30.3,-194.92 -90.95,-260.65 -60.65,-65.76 -140.38,-98.62 -239.23,-98.62 -99.89,0 -180.42,32.86 -241.56,98.62 -61.15,65.73 -91.72,152.63 -91.72,260.65 0,108.05 30.57,194.92 91.72,260.64 61.14,65.76 141.67,98.63 241.56,98.63zm1169.48 221.67c-167.13,0 -307.28,-48.93 -420.41,-146.79l100.91 -180.38c90.69,70.3 192.1,105.5 304.2,105.5 125.38,0 188.05,-33.63 188.05,-100.92 0,-33.62 -16.57,-60.11 -49.7,-79.5 -33.13,-19.35 -85.34,-38.7 -156.67,-58.09l-59.62 -15.27c-111.11,-29.58 -195.95,-69.04 -254.54,-118.47 -58.62,-49.47 -87.94,-118.51 -87.94,-207.17 0,-108.02 40.04,-195.15 120.04,-261.41 80,-66.26 185.72,-99.39 317.21,-99.39 149.8,0 281.79,43.32 395.94,129.96l-117.7 186.53c-84.62,-63.21 -176.34,-94.81 -275.19,-94.81 -49.92,0 -89.43,8.43 -118.47,25.23 -29.05,16.83 -43.59,40 -43.59,69.58 0,31.56 15.31,56.29 45.88,74.12 30.57,17.86 76.94,34.92 139.12,51.22l59.62 16.83c242.55,66.22 363.85,184.46 363.85,354.65 0,105 -41.53,189.31 -124.62,253.01 -83.05,63.7 -191.83,95.57 -326.37,95.57zm1444.67 -1146.58l0 221.67 -334.8 0 0 909.61 -269.04 0 0 -909.61 -334.81 0 0 -221.67 938.65 0zm730.75 909.6l548.81 0 0 221.68 -817.89 0 0 -1131.28 805.67 0 0 221.67 -536.59 0 0 226.26 483.08 0 0 221.67 -483.08 0 0 240zm1126.7 236.98c-167.14,0 -307.29,-48.93 -420.41,-146.79l100.91 -180.38c90.69,70.3 192.1,105.5 304.19,105.5 125.38,0 188.05,-33.63 188.05,-100.92 0,-33.62 -16.56,-60.11 -49.69,-79.5 -33.13,-19.35 -85.34,-38.7 -156.68,-58.09l-59.61 -15.27c-111.11,-29.58 -195.95,-69.04 -254.54,-118.47 -58.63,-49.47 -87.94,-118.51 -87.94,-207.17 0,-108.02 40.04,-195.15 120.04,-261.41 80,-66.26 185.72,-99.39 317.21,-99.39 149.8,0 281.78,43.32 395.94,129.96l-117.71 186.53c-84.61,-63.21 -176.33,-94.81 -275.18,-94.81 -49.92,0 -89.43,8.43 -118.47,25.23 -29.05,16.83 -43.59,40 -43.59,69.58 0,31.56 15.31,56.29 45.88,74.12 30.57,17.86 76.94,34.92 139.12,51.22l59.61 16.83c242.56,66.22 363.85,184.46 363.85,354.65 0,105 -41.52,189.31 -124.61,253.01 -83.06,63.7 -191.83,95.57 -326.37,95.57zm1180.21 0c-183.47,0 -332.02,-53.78 -445.64,-161.29 -113.63,-107.52 -170.46,-248.93 -170.46,-424.23 0,-173.28 56.3,-312.63 168.93,-418.13 112.63,-105.49 261.18,-158.24 445.64,-158.24 192.63,0 344.46,60.15 455.56,180.42l-168.16 172.74c-28.55,-40.76 -68.01,-72.86 -118.47,-96.29 -50.46,-23.47 -106.26,-35.19 -167.4,-35.19 -101.91,0 -183.7,32.86 -245.38,98.62 -61.64,65.73 -92.48,152.1 -92.48,259.12 0,108.01 31.6,195.19 94.77,261.41 63.2,66.26 146.26,99.39 249.19,99.39 130.46,0 232.37,-57.1 305.76,-171.22l180.38 162.02c-115.15,153.89 -279.23,230.87 -492.24,230.87zm1403.37 -15.3l-73.4 -188.05 -478.5 0 -74.88 188.05 -287.4 0 476.97 -1131.28 249.16 0 473.92 1131.28 -285.87 0zm-464.73 -409.69l304.2 0 -151.34 -388.32 -152.86 388.32zm1135.86 188.01l480.03 0 0 221.68 -749.11 0 0 -1131.28 269.08 0 0 909.6zm1409.52 221.68l-73.4 -188.05 -478.5 0 -74.88 188.05 -287.4 0 476.97 -1131.28 249.16 0 473.92 1131.28 -285.87 0zm-464.72 -409.69l304.19 0 -151.33 -388.32 -152.86 388.32zm1589.89 -721.59l0 221.67 -334.8 0 0 909.61 -269.04 0 0 -909.61 -334.81 0 0 -221.67 938.65 0zm146.75 1131.28l0 -1131.28 269.08 0 0 1131.28 -269.08 0zm1062.5 15.3c-183.47,0 -331.25,-53.28 -443.35,-159.77 -112.09,-106.52 -168.16,-246.9 -168.16,-421.17 0,-174.28 56.07,-314.65 168.16,-421.18 112.1,-106.49 259.88,-159.77 443.35,-159.77 181.41,0 327.9,53.28 439.5,159.77 111.6,106.53 167.4,246.9 167.4,421.18 0,174.27 -55.8,314.65 -167.4,421.17 -111.6,106.49 -258.09,159.77 -439.5,159.77zm0 -221.67c98.86,0 178.59,-32.87 239.24,-98.63 60.64,-65.72 90.95,-152.59 90.95,-260.64 0,-108.02 -30.31,-194.92 -90.95,-260.65 -60.65,-65.76 -140.38,-98.62 -239.24,-98.62 -99.88,0 -180.41,32.86 -241.56,98.62 -61.14,65.73 -91.71,152.63 -91.71,260.65 0,108.05 30.57,194.92 91.71,260.64 61.15,65.76 141.68,98.63 241.56,98.63zm788.81 206.37l0 -1131.28 166.64 0 672.66 677.24 -6.11 -677.24 269.04 0 0 1131.28 -165.11 0 -674.15 -678.77 6.11 678.77 -269.08 0z"/>
  <path class="fil2" d="M1957.28 19935.55c0,206.75 -60.57,374.15 -181.75,502.24 -121.18,128.09 -280.57,192.14 -478.12,192.14 -195.3,0 -352.36,-63.47 -471.25,-190.42 -118.89,-126.9 -178.32,-294.34 -178.32,-502.24 0,-217.1 67.75,-388.24 203.32,-513.47l194.69 189.54c-45.95,32.18 -82.14,76.68 -108.55,133.55 -26.41,56.83 -39.65,119.73 -39.65,188.66 0,114.85 37.06,207.06 111.14,276.52 74.08,69.51 171.45,104.28 292.05,104.28 121.76,0 219.96,-35.61 294.62,-106.83 74.69,-71.22 112.02,-164.85 112.02,-280.88 0,-147.02 -64.35,-261.86 -192.97,-344.57l182.63 -203.32c173.43,129.81 260.14,314.73 260.14,554.8zm0 -1140.63c0,155.08 -44.77,280 -134.38,374.77 -89.58,94.77 -207.33,142.13 -353.2,142.13 -145.88,0 -263.32,-47.36 -352.36,-142.13 -89.01,-94.77 -133.51,-219.69 -133.51,-374.77 0,-152.74 44.5,-276.25 133.51,-370.41 89.04,-94.2 206.48,-141.3 352.36,-141.3 145.87,0 263.62,47.1 353.2,141.3 89.61,94.16 134.38,217.67 134.38,370.41zm-316.14 155.08c43.06,-39.05 64.62,-90.16 64.62,-153.32 0,-63.21 -21.83,-114.01 -65.49,-152.52 -43.67,-38.47 -100.5,-57.71 -170.57,-57.71 -70.08,0 -126.95,19.24 -170.57,57.71 -43.67,38.51 -65.5,89.31 -65.5,152.52 0,63.16 21.57,114.27 64.62,153.32 43.09,39.04 100.23,58.58 171.45,58.58 71.22,0 128.35,-19.54 171.44,-58.58zm316.14 -1166.47c0,156.22 -39.04,280.87 -117.13,373.88l-177.48 -110.26c44.81,-83.85 67.21,-172.86 67.21,-267.06 0,-72.36 -20.11,-108.55 -60.3,-108.55 -19.54,0 -35.34,11.49 -47.4,34.47 -12.07,22.98 -24.39,58.59 -37.03,106.83l-17.25 67.17c-21.83,90.77 -51.98,159.39 -90.46,205.92 -38.47,46.52 -93.31,69.77 -164.53,69.77 -98.78,0 -178.32,-35.61 -238.63,-106.83 -60.3,-71.22 -90.45,-165.38 -90.45,-282.56 0,-152.78 32.71,-276.82 98.2,-372.17l189.54 122.33c-39.08,73.51 -58.59,150.49 -58.59,230.87 0,73.51 17.79,110.27 53.4,110.27 28.7,0 54.01,-40.76 75.8,-122.33l17.25 -65.45c24.12,-94.2 58.28,-166.87 102.52,-217.98 44.2,-51.1 106.52,-76.67 186.94,-76.67 93.05,0 167.71,37.32 223.97,112.02 56.29,74.65 84.42,173.43 84.42,296.33zm-251.52 -1047.54c0,-52.86 -9.77,-102.82 -29.31,-149.92l234.35 0c30.99,70.07 46.48,151.64 46.48,244.65 0,91.91 -28.7,165.99 -86.14,222.29 -57.4,56.29 -133.24,84.42 -227.44,84.42l-403.16 0 0 149.88 -239.5 0 0 -149.88 -275.68 0 0 -292.89 275.68 0 0 -244.69 239.5 0 0 244.69 341.14 0c36.75,0 66.64,-10.08 89.62,-30.16 22.97,-20.11 34.46,-46.25 34.46,-78.39z"/>
  <path class="fil2" d="M17233.66 27403.02l0 249.84 -377.32 0 0 1025.17 -303.28 0 0 -1025.17 -377.32 0 0 -249.84 1057.92 0zm402.32 180.07c-31.6,31.56 -72.1,47.36 -121.49,47.36 -49.39,0 -90.15,-15.8 -122.32,-47.36 -32.18,-31.6 -48.25,-72.1 -48.25,-121.49 0,-49.39 16.07,-89.88 48.25,-121.48 32.17,-31.57 72.93,-47.37 122.32,-47.37 49.39,0 89.89,15.8 121.49,47.37 31.56,31.6 47.36,72.09 47.36,121.48 0,49.39 -15.8,89.89 -47.36,121.49zm-269.65 1094.94l0 -939.03 292.89 0 0 939.03 -292.89 0zm1619.59 -956.24c114.88,0 207.63,33.59 278.27,100.76 70.65,67.21 105.96,155.95 105.96,266.22l0 589.26 -292.9 0 0 -544.45c0,-49.39 -14.08,-88.74 -42.21,-118.02 -28.17,-29.31 -65.19,-43.97 -111.14,-43.97 -47.1,0 -84.74,14.66 -112.87,43.97 -28.12,29.28 -42.21,68.63 -42.21,118.02l0 544.45 -292.89 0 0 -544.45c0,-49.39 -14.09,-88.74 -42.22,-118.02 -28.16,-29.31 -65.19,-43.97 -111.14,-43.97 -47.1,0 -84.69,14.66 -112.86,43.97 -28.13,29.28 -42.21,68.63 -42.21,118.02l0 544.45 -292.9 0 0 -939.03 282.55 0 3.48 96.49c65.45,-75.8 153.89,-113.7 265.34,-113.7 114.84,0 203.88,40.76 267.05,122.32 71.22,-81.56 168.85,-122.32 292.9,-122.32zm1502.45 472.09c0,41.33 -2.86,80.38 -8.62,117.17l-642.66 0c18.35,103.36 78.09,155.04 179.19,155.04 79.24,0 142.98,-28.7 191.22,-86.15l227.44 110.27c-41.34,63.21 -98.21,113.17 -170.57,149.92 -72.37,36.76 -153.36,55.11 -242.94,55.11 -148.16,0 -267.93,-43.62 -359.23,-130.91 -91.33,-87.33 -136.98,-202.74 -136.98,-346.33 0,-148.16 44.24,-267.93 132.67,-359.23 88.43,-91.33 205.03,-136.98 349.76,-136.98 143.59,0 259.58,43.05 348.05,129.19 88.44,86.19 132.67,200.46 132.67,342.9zm-480.72 -242.94c-93.05,0 -149.31,54.55 -168.85,163.67l341.14 0c-19.5,-109.12 -76.94,-163.67 -172.29,-163.67z"/>
  <path class="fil2" d="M7553.6 23026.37c0,117.06 -38.32,215.99 -114.96,296.83 -76.64,80.8 -181.14,134.46 -313.55,160.95l0 186.03 -365.79 0 0 -183.93c-153.28,-27.9 -284.96,-89.2 -395.03,-183.96l135.87 -246.64c124.01,96.14 263.36,144.23 418.01,144.23 170.04,0 255.03,-45.99 255.03,-137.97 0,-45.96 -22.67,-82.21 -67.93,-108.66 -45.31,-26.49 -116.72,-52.98 -214.24,-79.43l-79.42 -20.92c-151.91,-40.41 -268.28,-94.38 -349.08,-161.98 -80.84,-67.59 -121.22,-161.98 -121.22,-283.24 0,-121.22 37.6,-223.62 112.86,-307.24 75.23,-83.63 177.67,-139.35 307.25,-167.21l0 -186.03 365.79 0 0 186.03c133.78,26.48 252.21,79.42 355.34,158.85l-160.95 254.99c-117.06,-86.37 -243.16,-129.57 -378.31,-129.57 -68.29,0 -122.29,11.48 -162.02,34.46 -39.7,23.02 -59.55,54.69 -59.55,95.11 0,43.21 20.88,76.99 62.71,101.38 41.8,24.38 105.88,47.74 192.29,70.03l79.43 22.98c331.63,90.57 497.47,252.21 497.47,484.91z"/>
  <path class="fil2" d="M12844.8 21038.81c0,117.06 -38.32,215.99 -114.96,296.83 -76.64,80.8 -181.14,134.46 -313.54,160.95l0 186.03 -365.8 0 0 -183.93c-153.28,-27.9 -284.95,-89.2 -395.03,-183.97l135.88 -246.63c124,96.14 263.35,144.23 418.01,144.23 170.03,0 255.03,-45.99 255.03,-137.97 0,-45.96 -22.67,-82.21 -67.94,-108.66 -45.3,-26.49 -116.71,-52.98 -214.23,-79.43l-79.43 -20.92c-151.9,-40.42 -268.27,-94.38 -349.07,-161.98 -80.84,-67.59 -121.22,-161.98 -121.22,-283.24 0,-121.22 37.59,-223.62 112.86,-307.24 75.22,-83.63 177.67,-139.35 307.24,-167.22l0 -186.02 365.8 0 0 186.02c133.77,26.49 252.21,79.43 355.34,158.86l-160.96 254.99c-117.05,-86.37 -243.16,-129.58 -378.31,-129.58 -68.28,0 -122.29,11.49 -162.02,34.47 -39.69,23.01 -59.54,54.69 -59.54,95.11 0,43.21 20.88,76.99 62.71,101.37 41.79,24.39 105.87,47.75 192.28,70.04l79.43 22.98c331.64,90.57 497.47,252.21 497.47,484.91z"/>
  <path class="fil2" d="M14355.65 21025.38c0,117.06 -38.32,215.99 -114.96,296.83 -76.64,80.8 -181.14,134.46 -313.54,160.95l0 186.02 -365.79 0 0 -183.92c-153.28,-27.9 -284.96,-89.2 -395.04,-183.97l135.88 -246.64c124.01,96.15 263.35,144.24 418.01,144.24 170.03,0 255.03,-45.99 255.03,-137.98 0,-45.95 -22.67,-82.21 -67.94,-108.66 -45.3,-26.49 -116.71,-52.98 -214.23,-79.43l-79.43 -20.91c-151.9,-40.42 -268.27,-94.39 -349.07,-161.98 -80.84,-67.6 -121.22,-161.99 -121.22,-283.24 0,-121.22 37.59,-223.62 112.86,-307.25 75.23,-83.62 177.67,-139.35 307.24,-167.21l0 -186.03 365.8 0 0 186.03c133.78,26.49 252.21,79.43 355.34,158.85l-160.95 255c-117.06,-86.37 -243.17,-129.58 -378.32,-129.58 -68.28,0 -122.29,11.49 -162.02,34.46 -39.69,23.02 -59.54,54.7 -59.54,95.12 0,43.2 20.88,76.98 62.71,101.37 41.79,24.39 105.88,47.75 192.29,70.04l79.42 22.97c331.64,90.57 497.47,252.21 497.47,484.92z"/>
  <path class="fil2" d="M16714.39 17372.2c0,117.06 -38.32,215.99 -114.96,296.83 -76.64,80.8 -181.14,134.46 -313.54,160.95l0 186.02 -365.8 0 0 -183.92c-153.28,-27.9 -284.95,-89.2 -395.03,-183.97l135.88 -246.64c124,96.15 263.35,144.24 418.01,144.24 170.03,0 255.03,-45.99 255.03,-137.98 0,-45.95 -22.67,-82.21 -67.94,-108.66 -45.3,-26.49 -116.71,-52.98 -214.23,-79.43l-79.43 -20.91c-151.9,-40.42 -268.28,-94.39 -349.08,-161.98 -80.83,-67.6 -121.22,-161.99 -121.22,-283.24 0,-121.22 37.6,-223.62 112.87,-307.25 75.22,-83.62 177.66,-139.35 307.24,-167.21l0 -186.03 365.8 0 0 186.03c133.77,26.49 252.21,79.43 355.33,158.85l-160.95 255c-117.06,-86.38 -243.16,-129.58 -378.31,-129.58 -68.28,0 -122.29,11.49 -162.02,34.46 -39.69,23.02 -59.54,54.7 -59.54,95.12 0,43.2 20.88,76.98 62.71,101.37 41.79,24.39 105.87,47.75 192.28,70.04l79.43 22.97c331.64,90.57 497.47,252.21 497.47,484.92z"/>
  <path class="fil2" d="M18198.37 17372.16c0,117.06 -38.32,215.99 -114.96,296.83 -76.64,80.8 -181.14,134.46 -313.54,160.95l0 186.03 -365.8 0 0 -183.93c-153.28,-27.9 -284.95,-89.2 -395.03,-183.97l135.88 -246.64c124,96.15 263.35,144.24 418.01,144.24 170.03,0 255.03,-45.99 255.03,-137.98 0,-45.95 -22.67,-82.21 -67.94,-108.66 -45.3,-26.49 -116.71,-52.97 -214.23,-79.42l-79.43 -20.92c-151.9,-40.42 -268.27,-94.39 -349.07,-161.98 -80.84,-67.6 -121.22,-161.98 -121.22,-283.24 0,-121.22 37.59,-223.62 112.86,-307.25 75.22,-83.62 177.67,-139.35 307.24,-167.21l0 -186.03 365.8 0 0 186.03c133.78,26.49 252.21,79.43 355.34,158.85l-160.96 255c-117.05,-86.37 -243.16,-129.58 -378.31,-129.58 -68.28,0 -122.29,11.49 -162.02,34.47 -39.69,23.01 -59.54,54.69 -59.54,95.11 0,43.2 20.88,76.98 62.71,101.37 41.79,24.39 105.87,47.75 192.29,70.04l79.42 22.98c331.64,90.57 497.47,252.2 497.47,484.91z"/>
  <path class="fil2" d="M19762.89 17392.31c0,117.06 -38.32,215.99 -114.96,296.83 -76.64,80.8 -181.14,134.46 -313.55,160.95l0 186.03 -365.79 0 0 -183.93c-153.28,-27.9 -284.96,-89.2 -395.03,-183.97l135.87 -246.63c124.01,96.14 263.36,144.23 418.01,144.23 170.04,0 255.03,-45.99 255.03,-137.97 0,-45.96 -22.67,-82.22 -67.93,-108.67 -45.31,-26.48 -116.72,-52.97 -214.24,-79.42l-79.42 -20.92c-151.91,-40.42 -268.28,-94.39 -349.08,-161.98 -80.84,-67.59 -121.22,-161.98 -121.22,-283.24 0,-121.22 37.6,-223.62 112.86,-307.25 75.23,-83.62 177.67,-139.34 307.25,-167.21l0 -186.02 365.79 0 0 186.02c133.78,26.49 252.21,79.43 355.34,158.86l-160.95 254.99c-117.06,-86.37 -243.16,-129.58 -378.31,-129.58 -68.29,0 -122.29,11.49 -162.02,34.47 -39.7,23.01 -59.55,54.69 -59.55,95.11 0,43.21 20.88,76.99 62.71,101.37 41.8,24.39 105.88,47.75 192.29,70.04l79.43 22.98c331.63,90.57 497.47,252.21 497.47,484.91z"/>
  <path class="fil2" d="M23294.58 11583.25c0,117.06 -38.32,215.99 -114.96,296.83 -76.64,80.8 -181.14,134.46 -313.54,160.95l0 186.03 -365.8 0 0 -183.93c-153.28,-27.9 -284.95,-89.2 -395.03,-183.96l135.88 -246.64c124,96.14 263.35,144.23 418.01,144.23 170.03,0 255.03,-45.99 255.03,-137.97 0,-45.96 -22.67,-82.21 -67.94,-108.66 -45.3,-26.49 -116.71,-52.98 -214.23,-79.43l-79.43 -20.92c-151.9,-40.42 -268.28,-94.38 -349.08,-161.98 -80.83,-67.59 -121.21,-161.98 -121.21,-283.24 0,-121.22 37.59,-223.62 112.86,-307.24 75.22,-83.63 177.66,-139.35 307.24,-167.21l0 -186.03 365.8 0 0 186.03c133.77,26.48 252.21,79.42 355.33,158.85l-160.95 254.99c-117.06,-86.37 -243.16,-129.57 -378.31,-129.57 -68.28,0 -122.29,11.48 -162.02,34.46 -39.69,23.02 -59.54,54.69 -59.54,95.11 0,43.21 20.88,76.99 62.71,101.38 41.79,24.38 105.87,47.74 192.28,70.03l79.43 22.98c331.64,90.57 497.47,252.21 497.47,484.91z"/>
  <path class="fil2" d="M25329.05 10751.02c0,117.06 -38.32,215.99 -114.96,296.82 -76.64,80.8 -181.14,134.47 -313.54,160.95l0 186.03 -365.8 0 0 -183.93c-153.28,-27.9 -284.96,-89.19 -395.03,-183.96l135.88 -246.64c124,96.14 263.35,144.24 418,144.24 170.04,0 255.04,-46 255.04,-137.98 0,-45.95 -22.67,-82.21 -67.94,-108.66 -45.31,-26.49 -116.72,-52.98 -214.23,-79.43l-79.43 -20.91c-151.91,-40.42 -268.28,-94.39 -349.08,-161.99 -80.84,-67.59 -121.22,-161.98 -121.22,-283.23 0,-121.22 37.6,-223.63 112.86,-307.25 75.23,-83.63 177.67,-139.35 307.25,-167.21l0 -186.03 365.8 0 0 186.03c133.77,26.49 252.2,79.42 355.33,158.85l-160.95 255c-117.06,-86.38 -243.16,-129.58 -378.31,-129.58 -68.28,0 -122.29,11.49 -162.02,34.46 -39.7,23.02 -59.54,54.7 -59.54,95.12 0,43.2 20.87,76.98 62.71,101.37 41.79,24.39 105.87,47.75 192.28,70.03l79.43 22.98c331.63,90.57 497.47,252.21 497.47,484.92z"/>
  <path class="fil2" d="M27328.82 11490.09c0,117.06 -38.32,215.99 -114.96,296.82 -76.64,80.8 -181.14,134.47 -313.54,160.96l0 186.02 -365.79 0 0 -183.92c-153.28,-27.91 -284.96,-89.2 -395.04,-183.97l135.88 -246.64c124.01,96.15 263.35,144.24 418.01,144.24 170.03,0 255.03,-46 255.03,-137.98 0,-45.95 -22.67,-82.21 -67.94,-108.66 -45.3,-26.49 -116.71,-52.98 -214.23,-79.43l-79.43 -20.91c-151.9,-40.42 -268.27,-94.39 -349.07,-161.98 -80.84,-67.6 -121.22,-161.99 -121.22,-283.24 0,-121.22 37.59,-223.63 112.86,-307.25 75.23,-83.62 177.67,-139.35 307.24,-167.21l0 -186.03 365.8 0 0 186.03c133.78,26.49 252.21,79.43 355.34,158.85l-160.95 255c-117.06,-86.38 -243.17,-129.58 -378.32,-129.58 -68.28,0 -122.29,11.49 -162.02,34.46 -39.69,23.02 -59.54,54.7 -59.54,95.12 0,43.2 20.88,76.98 62.71,101.37 41.79,24.39 105.88,47.75 192.29,70.04l79.42 22.97c331.64,90.57 497.47,252.21 497.47,484.92z"/>
  <path class="fil2" d="M27864.92 13834.97c0,117.06 -38.32,215.99 -114.96,296.83 -76.64,80.8 -181.14,134.46 -313.54,160.95l0 186.03 -365.8 0 0 -183.93c-153.28,-27.9 -284.95,-89.2 -395.03,-183.97l135.88 -246.64c124,96.15 263.35,144.24 418.01,144.24 170.03,0 255.03,-45.99 255.03,-137.98 0,-45.95 -22.67,-82.21 -67.94,-108.66 -45.3,-26.49 -116.71,-52.97 -214.23,-79.42l-79.43 -20.92c-151.9,-40.42 -268.28,-94.39 -349.08,-161.98 -80.83,-67.6 -121.22,-161.98 -121.22,-283.24 0,-121.22 37.6,-223.62 112.87,-307.25 75.22,-83.62 177.66,-139.35 307.24,-167.21l0 -186.03 365.8 0 0 186.03c133.77,26.49 252.21,79.43 355.33,158.85l-160.95 255c-117.06,-86.37 -243.16,-129.58 -378.31,-129.58 -68.28,0 -122.29,11.49 -162.02,34.47 -39.69,23.01 -59.54,54.69 -59.54,95.11 0,43.2 20.88,76.98 62.71,101.37 41.79,24.39 105.87,47.75 192.28,70.04l79.43 22.98c331.64,90.57 497.47,252.2 497.47,484.91z"/>
  <path class="fil2" d="M22549.21 13922.83c0,117.06 -38.32,215.99 -114.96,296.83 -76.64,80.8 -181.14,134.46 -313.54,160.95l0 186.03 -365.8 0 0 -183.93c-153.28,-27.9 -284.95,-89.2 -395.03,-183.97l135.88 -246.63c124,96.14 263.35,144.23 418.01,144.23 170.03,0 255.03,-45.99 255.03,-137.97 0,-45.96 -22.67,-82.22 -67.94,-108.67 -45.3,-26.49 -116.71,-52.97 -214.23,-79.42l-79.43 -20.92c-151.9,-40.42 -268.27,-94.39 -349.07,-161.98 -80.84,-67.59 -121.22,-161.98 -121.22,-283.24 0,-121.22 37.59,-223.62 112.86,-307.25 75.22,-83.62 177.67,-139.35 307.24,-167.21l0 -186.02 365.8 0 0 186.02c133.77,26.49 252.21,79.43 355.34,158.85l-160.96 255c-117.05,-86.37 -243.16,-129.58 -378.31,-129.58 -68.28,0 -122.29,11.49 -162.02,34.47 -39.69,23.01 -59.54,54.69 -59.54,95.11 0,43.21 20.88,76.98 62.71,101.37 41.79,24.39 105.87,47.75 192.29,70.04l79.42 22.98c331.64,90.57 497.47,252.21 497.47,484.91z"/>
  <path class="fil2" d="M26615.97 15715.13c0,117.06 -38.32,215.99 -114.96,296.83 -76.64,80.8 -181.14,134.46 -313.54,160.95l0 186.02 -365.79 0 0 -183.92c-153.28,-27.9 -284.96,-89.2 -395.04,-183.97l135.88 -246.64c124,96.15 263.35,144.24 418.01,144.24 170.03,0 255.03,-45.99 255.03,-137.98 0,-45.95 -22.67,-82.21 -67.94,-108.66 -45.3,-26.49 -116.71,-52.98 -214.23,-79.43l-79.43 -20.91c-151.9,-40.42 -268.27,-94.39 -349.07,-161.98 -80.84,-67.6 -121.22,-161.99 -121.22,-283.24 0,-121.22 37.59,-223.63 112.86,-307.25 75.23,-83.62 177.67,-139.35 307.24,-167.21l0 -186.03 365.8 0 0 186.03c133.78,26.49 252.21,79.43 355.34,158.85l-160.95 255c-117.06,-86.38 -243.17,-129.58 -378.32,-129.58 -68.28,0 -122.29,11.49 -162.02,34.46 -39.69,23.02 -59.54,54.7 -59.54,95.12 0,43.2 20.88,76.98 62.71,101.37 41.79,24.39 105.88,47.75 192.29,70.04l79.42 22.97c331.64,90.57 497.47,252.21 497.47,484.92z"/>
  <path class="fil2" d="M28995.47 13652.03l-67.48 -2087.9 746.59 0 -67.47 2087.9 -611.64 0zm605.3 957.47c-77.33,78.74 -176.45,118.09 -297.36,118.09 -120.92,0 -220.76,-39.35 -299.5,-118.09 -78.7,-78.74 -118.09,-178.59 -118.09,-299.5 0,-120.91 39.39,-220.03 118.09,-297.36 78.74,-77.33 178.58,-115.99 299.5,-115.99 120.91,0 220.03,38.66 297.36,115.99 77.33,77.33 115.99,176.45 115.99,297.36 0,120.91 -38.66,220.76 -115.99,299.5z"/>
  <path class="fil2" d="M24024.07 15768.83c0,117.06 -38.32,215.99 -114.96,296.83 -76.64,80.8 -181.14,134.46 -313.54,160.95l0 186.03 -365.8 0 0 -183.93c-153.28,-27.9 -284.95,-89.2 -395.03,-183.97l135.88 -246.64c124,96.15 263.35,144.24 418.01,144.24 170.03,0 255.03,-45.99 255.03,-137.98 0,-45.95 -22.67,-82.21 -67.94,-108.66 -45.3,-26.49 -116.71,-52.97 -214.23,-79.42l-79.43 -20.92c-151.9,-40.42 -268.27,-94.39 -349.07,-161.98 -80.84,-67.6 -121.22,-161.98 -121.22,-283.24 0,-121.22 37.59,-223.62 112.86,-307.25 75.22,-83.62 177.67,-139.35 307.24,-167.21l0 -186.03 365.8 0 0 186.03c133.77,26.49 252.21,79.43 355.34,158.85l-160.96 255c-117.05,-86.37 -243.16,-129.58 -378.31,-129.58 -68.28,0 -122.29,11.49 -162.02,34.47 -39.69,23.01 -59.54,54.69 -59.54,95.11 0,43.2 20.88,76.98 62.71,101.37 41.79,24.39 105.87,47.75 192.28,70.04l79.43 22.97c331.64,90.58 497.47,252.21 497.47,484.92z"/>
 </g>
</svg>
