<svg id="svg" version="1.1" xmlns="http://www.w3.org/2000/svg" xmlns:xlink="http://www.w3.org/1999/xlink" width="400" height="86.18925831202046" viewBox="0, 0, 400,86.18925831202046"><g id="svgg"><path id="path0" d="M71.525 0.501 C 71.236 0.777,71.000 1.065,71.000 1.141 C 71.000 1.216,70.662 1.621,70.250 2.039 C 69.837 2.458,69.500 2.887,69.500 2.993 C 69.500 3.099,69.425 3.140,69.333 3.083 C 69.242 3.027,69.167 3.056,69.167 3.148 C 69.167 3.240,68.773 3.740,68.292 4.260 C 67.810 4.780,67.352 5.317,67.273 5.454 C 67.194 5.591,66.838 5.986,66.482 6.332 C 66.125 6.678,65.833 7.028,65.833 7.110 C 65.833 7.192,65.608 7.457,65.333 7.698 C 65.058 7.940,64.871 8.238,64.917 8.360 C 64.964 8.483,64.758 8.858,64.459 9.193 C 64.161 9.529,63.766 9.979,63.582 10.193 C 63.398 10.408,62.089 11.933,60.673 13.583 C 59.257 15.233,58.057 16.621,58.007 16.667 C 57.957 16.712,57.404 17.331,56.777 18.042 C 56.150 18.752,55.549 19.333,55.442 19.333 C 55.334 19.333,55.060 19.569,54.832 19.856 C 54.348 20.466,53.726 21.167,52.337 22.667 C 51.785 23.262,51.334 23.807,51.334 23.877 C 51.333 23.947,50.977 24.384,50.542 24.849 C 50.106 25.314,49.767 25.758,49.788 25.837 C 49.809 25.915,49.678 26.027,49.497 26.084 C 49.315 26.142,49.167 26.252,49.167 26.328 C 49.167 26.404,48.897 26.737,48.567 27.067 C 48.237 27.397,48.025 27.667,48.096 27.667 C 48.168 27.667,47.881 27.997,47.459 28.402 C 47.037 28.806,46.736 29.181,46.791 29.235 C 46.845 29.289,46.801 29.333,46.694 29.333 C 46.587 29.333,46.500 29.395,46.500 29.471 C 46.500 29.546,46.086 30.052,45.580 30.596 C 43.594 32.727,43.333 33.025,43.333 33.158 C 43.333 33.235,42.977 33.667,42.542 34.119 C 41.201 35.509,40.333 36.557,40.333 36.783 C 40.333 36.903,40.221 37.000,40.083 37.000 C 39.946 37.000,39.833 37.067,39.833 37.148 C 39.833 37.306,39.176 38.071,37.625 39.720 C 37.098 40.280,36.667 40.788,36.667 40.849 C 36.667 40.910,36.385 41.257,36.042 41.621 C 34.604 43.143,34.617 43.086,35.497 44.035 C 36.380 44.987,36.667 45.321,36.667 45.396 C 36.667 45.471,37.855 46.809,38.667 47.648 C 38.987 47.979,39.529 48.597,39.869 49.022 C 40.852 50.245,41.204 50.656,41.944 51.445 C 42.326 51.853,42.682 52.299,42.735 52.437 C 42.788 52.575,42.907 52.641,42.999 52.584 C 43.091 52.527,43.167 52.594,43.167 52.732 C 43.167 52.871,43.429 53.239,43.750 53.550 C 44.071 53.862,44.333 54.171,44.333 54.238 C 44.333 54.305,44.540 54.577,44.792 54.844 C 45.915 56.032,46.167 56.318,46.167 56.409 C 46.167 56.462,46.490 56.823,46.884 57.211 C 47.279 57.599,47.860 58.253,48.176 58.664 C 48.492 59.075,48.862 59.532,49.000 59.680 C 50.504 61.301,50.833 61.681,50.833 61.794 C 50.833 61.867,50.965 62.046,51.125 62.194 C 51.285 62.341,51.717 62.822,52.083 63.263 C 52.450 63.704,53.106 64.419,53.542 64.851 C 53.977 65.283,54.333 65.688,54.333 65.750 C 54.333 65.969,54.957 66.654,55.061 66.550 C 55.119 66.492,55.167 66.521,55.167 66.615 C 55.167 66.827,55.933 67.667,56.127 67.667 C 56.292 67.667,56.736 68.073,57.328 68.768 C 59.125 70.872,60.760 72.764,60.841 72.833 C 61.417 73.325,65.437 78.225,65.623 78.661 C 65.758 78.979,66.160 79.523,66.517 79.870 C 66.875 80.216,67.167 80.574,67.167 80.664 C 67.167 80.754,67.504 81.156,67.917 81.557 C 68.329 81.958,68.667 82.340,68.667 82.406 C 68.667 82.472,68.985 82.850,69.375 83.245 C 70.140 84.022,70.667 84.630,70.667 84.738 C 70.667 84.775,70.952 85.112,71.301 85.486 L 71.936 86.167 82.107 86.167 C 87.701 86.167,92.323 86.122,92.378 86.067 C 92.432 86.012,92.262 85.731,91.999 85.442 C 91.735 85.153,91.328 84.692,91.093 84.417 C 90.249 83.430,88.902 81.955,88.125 81.167 C 87.690 80.725,87.333 80.277,87.333 80.172 C 87.333 80.067,87.258 80.027,87.167 80.083 C 87.075 80.140,87.000 80.074,87.000 79.937 C 87.000 79.799,86.503 79.195,85.896 78.593 C 85.288 77.992,84.837 77.500,84.892 77.500 C 84.947 77.500,84.582 77.076,84.080 76.557 C 83.577 76.039,83.167 75.584,83.167 75.546 C 83.167 75.507,83.073 75.379,82.958 75.260 C 82.844 75.142,82.300 74.538,81.750 73.918 C 81.200 73.298,80.281 72.307,79.708 71.716 C 79.135 71.125,78.667 70.588,78.667 70.523 C 78.667 70.297,76.681 68.333,76.452 68.333 C 76.326 68.333,76.005 68.090,75.739 67.792 C 75.474 67.494,74.580 66.496,73.753 65.575 C 72.926 64.653,71.762 63.345,71.167 62.668 C 70.571 61.990,69.699 61.019,69.229 60.510 C 68.760 60.000,68.164 59.331,67.906 59.022 C 67.648 58.713,67.151 58.154,66.802 57.779 C 66.449 57.401,66.167 56.928,66.167 56.716 C 66.167 56.468,65.788 55.957,65.083 55.256 C 64.487 54.663,64.000 54.119,64.000 54.047 C 64.000 53.975,63.437 53.334,62.750 52.621 C 62.062 51.909,61.500 51.292,61.500 51.251 C 61.500 51.209,61.050 50.715,60.500 50.153 C 59.950 49.591,59.500 49.074,59.500 49.004 C 59.500 48.933,59.087 48.475,58.583 47.985 C 58.079 47.495,57.667 46.998,57.667 46.880 C 57.667 46.763,57.554 46.667,57.417 46.667 C 57.279 46.667,57.167 46.592,57.167 46.500 C 57.167 46.408,56.739 45.902,56.216 45.375 C 55.693 44.848,55.278 44.399,55.295 44.377 C 55.381 44.260,55.111 43.848,54.995 43.920 C 54.919 43.967,54.812 43.861,54.756 43.684 C 54.700 43.508,54.535 43.318,54.390 43.263 C 54.185 43.184,54.355 42.930,55.146 42.134 C 55.707 41.569,56.167 41.055,56.167 40.992 C 56.167 40.929,56.635 40.382,57.208 39.776 C 58.453 38.460,59.986 36.751,60.333 36.294 C 60.471 36.112,60.996 35.522,61.500 34.982 C 62.004 34.442,62.754 33.619,63.167 33.154 C 63.579 32.688,64.010 32.206,64.125 32.082 C 64.240 31.958,64.333 31.811,64.333 31.755 C 64.333 31.699,64.633 31.359,65.000 31.000 C 65.367 30.641,65.667 30.224,65.667 30.075 C 65.667 29.750,65.974 29.346,67.556 27.591 C 70.236 24.618,70.628 24.179,71.667 22.991 C 72.727 21.778,73.679 20.723,75.148 19.134 C 75.551 18.699,75.947 18.384,76.030 18.435 C 76.188 18.533,77.250 17.580,77.250 17.340 C 77.250 17.263,77.719 16.736,78.292 16.168 C 78.865 15.601,79.333 15.075,79.333 15.000 C 79.333 14.924,79.745 14.463,80.249 13.973 C 80.753 13.484,81.165 12.985,81.166 12.865 C 81.166 12.745,81.242 12.693,81.333 12.750 C 81.425 12.807,81.500 12.779,81.500 12.688 C 81.500 12.543,82.039 11.896,82.954 10.942 C 83.117 10.772,83.229 10.560,83.204 10.471 C 83.179 10.382,83.236 10.356,83.330 10.415 C 83.425 10.473,83.546 10.407,83.600 10.267 C 83.654 10.127,84.084 9.609,84.557 9.115 C 85.030 8.622,85.728 7.850,86.109 7.401 C 86.489 6.951,87.014 6.353,87.275 6.071 C 87.536 5.789,88.237 5.006,88.833 4.330 C 89.429 3.654,90.422 2.572,91.039 1.926 C 91.656 1.279,92.162 0.656,92.164 0.542 C 92.165 0.427,92.242 0.333,92.333 0.333 C 92.425 0.333,92.500 0.258,92.500 0.167 C 92.500 0.057,88.980 0.000,82.275 0.000 L 72.049 0.000 71.525 0.501 " stroke="none" fill="#3bbbbb" fill-rule="evenodd"></path><path id="path1" d="M36.958 2.612 C 36.156 2.649,35.500 2.742,35.500 2.818 C 35.500 2.895,34.750 3.010,33.833 3.075 C 32.917 3.140,32.167 3.253,32.167 3.325 C 32.167 3.398,31.642 3.509,31.000 3.572 C 30.358 3.635,29.833 3.748,29.833 3.822 C 29.833 3.896,29.452 4.008,28.985 4.070 C 28.519 4.131,28.013 4.244,27.860 4.320 C 27.708 4.395,27.021 4.636,26.333 4.854 C 25.646 5.072,25.058 5.306,25.028 5.375 C 24.997 5.444,24.791 5.500,24.569 5.500 C 24.348 5.500,24.167 5.575,24.167 5.667 C 24.167 5.758,24.073 5.834,23.958 5.834 C 23.844 5.835,23.549 5.940,23.303 6.069 C 23.057 6.197,22.626 6.352,22.345 6.414 C 22.063 6.476,21.833 6.590,21.833 6.667 C 21.833 6.744,21.608 6.856,21.333 6.917 C 21.058 6.977,20.833 7.096,20.833 7.180 C 20.833 7.264,20.726 7.333,20.595 7.333 C 20.464 7.333,20.257 7.427,20.134 7.542 C 20.011 7.656,19.556 7.936,19.122 8.163 C 18.688 8.390,18.333 8.625,18.333 8.685 C 18.333 8.745,18.202 8.839,18.042 8.892 C 17.627 9.032,17.106 9.381,16.950 9.625 C 16.877 9.740,16.742 9.833,16.651 9.833 C 16.496 9.833,16.304 9.967,15.756 10.458 C 15.628 10.573,15.459 10.667,15.379 10.667 C 15.299 10.667,15.050 10.888,14.826 11.160 C 14.601 11.431,14.327 11.656,14.217 11.660 C 13.958 11.669,8.833 16.820,8.833 17.071 C 8.833 17.117,8.627 17.379,8.375 17.652 C 7.757 18.321,7.636 18.481,7.189 19.208 C 6.979 19.552,6.737 19.833,6.653 19.833 C 6.569 19.833,6.500 19.940,6.500 20.071 C 6.500 20.202,6.397 20.412,6.272 20.538 C 6.147 20.663,5.991 20.933,5.926 21.138 C 5.861 21.343,5.626 21.707,5.404 21.946 C 5.182 22.186,5.000 22.484,5.000 22.608 C 5.000 22.732,4.925 22.833,4.833 22.833 C 4.742 22.833,4.667 22.946,4.667 23.084 C 4.667 23.222,4.517 23.614,4.333 23.956 C 4.150 24.299,4.000 24.673,4.000 24.789 C 4.000 24.905,3.931 25.000,3.847 25.000 C 3.762 25.000,3.644 25.225,3.583 25.500 C 3.523 25.775,3.408 26.000,3.328 26.000 C 3.247 26.000,3.133 26.262,3.072 26.583 C 3.012 26.904,2.903 27.167,2.829 27.167 C 2.756 27.167,2.645 27.467,2.583 27.833 C 2.521 28.200,2.411 28.500,2.338 28.500 C 2.264 28.500,2.154 28.836,2.093 29.246 C 2.031 29.656,1.910 30.036,1.824 30.089 C 1.737 30.143,1.667 30.357,1.667 30.565 C 1.667 30.774,1.615 30.996,1.552 31.059 C 1.489 31.122,1.416 31.303,1.390 31.462 C 1.220 32.485,1.108 32.938,0.987 33.091 C 0.912 33.186,0.797 33.786,0.733 34.424 C 0.669 35.062,0.561 35.621,0.493 35.667 C -0.081 36.052,-0.077 50.838,0.498 51.583 C 0.568 51.675,0.680 52.269,0.746 52.903 C 0.812 53.538,0.930 54.175,1.007 54.320 C 1.121 54.533,1.339 55.470,1.404 56.028 C 1.411 56.089,1.473 56.195,1.542 56.264 C 1.610 56.333,1.667 56.564,1.667 56.778 C 1.667 56.992,1.737 57.167,1.823 57.167 C 1.909 57.167,2.030 57.504,2.092 57.917 C 2.154 58.329,2.262 58.667,2.333 58.667 C 2.404 58.667,2.513 59.004,2.575 59.417 C 2.636 59.829,2.752 60.167,2.830 60.167 C 2.909 60.167,3.024 60.397,3.086 60.678 C 3.148 60.959,3.303 61.390,3.431 61.636 C 3.560 61.882,3.665 62.177,3.666 62.292 C 3.666 62.406,3.736 62.500,3.820 62.500 C 3.904 62.500,4.023 62.725,4.083 63.000 C 4.144 63.275,4.256 63.500,4.333 63.500 C 4.410 63.500,4.523 63.725,4.583 64.000 C 4.644 64.275,4.762 64.500,4.847 64.500 C 4.931 64.500,5.000 64.612,5.000 64.750 C 5.000 64.887,5.079 65.000,5.177 65.000 C 5.274 65.000,5.307 65.075,5.250 65.167 C 5.193 65.258,5.226 65.333,5.323 65.333 C 5.421 65.333,5.500 65.446,5.500 65.583 C 5.500 65.721,5.566 65.833,5.647 65.833 C 5.728 65.833,5.839 65.965,5.892 66.125 C 6.006 66.463,6.246 66.851,6.847 67.666 C 7.084 67.987,7.326 68.381,7.384 68.542 C 7.442 68.702,7.567 68.833,7.661 68.833 C 7.756 68.833,7.833 68.930,7.833 69.047 C 7.833 69.287,8.398 70.004,9.458 71.113 C 9.848 71.520,10.167 71.914,10.167 71.988 C 10.167 72.193,12.172 74.209,12.833 74.668 C 13.154 74.891,13.602 75.282,13.829 75.537 C 14.055 75.792,14.309 76.000,14.393 76.000 C 14.477 76.000,14.719 76.187,14.931 76.417 C 15.144 76.646,15.360 76.833,15.411 76.833 C 15.502 76.833,17.377 78.144,17.777 78.487 C 17.884 78.578,18.160 78.700,18.390 78.758 C 18.621 78.816,18.850 78.969,18.899 79.098 C 18.949 79.228,19.104 79.333,19.245 79.333 C 19.385 79.333,19.500 79.405,19.500 79.492 C 19.500 79.580,19.763 79.701,20.083 79.761 C 20.404 79.821,20.667 79.931,20.667 80.005 C 20.667 80.079,20.892 80.190,21.167 80.250 C 21.442 80.310,21.667 80.429,21.667 80.513 C 21.667 80.598,21.779 80.667,21.917 80.667 C 22.054 80.667,22.167 80.736,22.167 80.820 C 22.167 80.904,22.392 81.023,22.667 81.083 C 22.942 81.144,23.167 81.261,23.167 81.345 C 23.167 81.428,23.467 81.544,23.833 81.603 C 24.200 81.661,24.500 81.771,24.500 81.847 C 24.500 81.923,24.763 82.034,25.085 82.095 C 25.407 82.155,25.709 82.267,25.756 82.343 C 25.803 82.419,26.177 82.531,26.587 82.593 C 26.998 82.654,27.333 82.766,27.333 82.840 C 27.333 82.915,27.745 83.027,28.248 83.090 C 28.751 83.153,29.126 83.265,29.080 83.339 C 29.034 83.413,29.486 83.526,30.084 83.590 C 30.682 83.654,31.209 83.767,31.255 83.842 C 31.301 83.916,31.939 84.030,32.673 84.094 C 33.407 84.158,34.048 84.276,34.097 84.355 C 34.146 84.435,34.627 84.500,35.167 84.500 C 35.706 84.500,36.190 84.569,36.241 84.653 C 36.410 84.925,45.670 85.000,47.250 84.742 C 47.617 84.682,48.385 84.597,48.958 84.552 C 49.531 84.508,50.000 84.412,50.000 84.339 C 50.000 84.266,50.637 84.153,51.416 84.088 C 52.195 84.023,52.870 83.909,52.916 83.835 C 52.962 83.760,53.450 83.647,54.000 83.583 C 54.550 83.519,55.041 83.402,55.090 83.322 C 55.140 83.242,55.552 83.127,56.007 83.067 C 56.461 83.006,56.833 82.901,56.833 82.833 C 56.833 82.765,57.137 82.661,57.507 82.602 C 57.878 82.542,58.309 82.423,58.466 82.336 C 59.071 82.000,60.327 81.500,60.564 81.500 C 60.701 81.500,60.856 81.431,60.909 81.346 C 60.961 81.262,61.228 81.143,61.502 81.083 C 61.776 81.023,62.000 80.904,62.000 80.820 C 62.000 80.736,62.112 80.667,62.250 80.667 C 62.387 80.667,62.500 80.598,62.500 80.513 C 62.500 80.429,62.725 80.310,63.000 80.250 C 63.275 80.190,63.500 80.077,63.500 80.000 C 63.500 79.923,63.725 79.810,64.000 79.750 C 64.275 79.690,64.500 79.576,64.500 79.498 C 64.500 79.420,64.665 79.303,64.867 79.239 C 65.855 78.926,65.688 78.636,62.359 74.899 C 62.024 74.523,61.599 74.036,61.414 73.816 C 61.229 73.596,60.367 72.592,59.497 71.584 C 58.628 70.576,57.729 69.533,57.500 69.265 C 56.725 68.361,56.179 67.833,56.019 67.833 C 55.859 67.833,54.823 68.345,54.667 68.500 C 54.496 68.670,53.313 69.167,53.078 69.167 C 52.943 69.167,52.833 69.241,52.833 69.331 C 52.833 69.422,52.533 69.544,52.167 69.603 C 51.800 69.661,51.500 69.768,51.500 69.840 C 51.500 69.912,51.181 70.023,50.792 70.088 C 50.402 70.152,50.003 70.269,49.906 70.347 C 49.808 70.426,49.283 70.541,48.739 70.604 C 48.195 70.666,47.707 70.782,47.655 70.862 C 47.602 70.942,46.440 71.053,45.071 71.110 C 43.703 71.166,42.447 71.282,42.281 71.368 C 42.094 71.464,41.903 71.464,41.781 71.367 C 41.672 71.281,40.484 71.169,39.141 71.117 C 37.798 71.065,36.561 70.947,36.391 70.853 C 36.222 70.760,35.652 70.636,35.125 70.580 C 34.598 70.523,34.167 70.415,34.167 70.340 C 34.167 70.266,33.831 70.154,33.421 70.093 C 33.010 70.031,32.631 69.910,32.577 69.824 C 32.524 69.737,32.354 69.666,32.198 69.666 C 32.043 69.665,31.702 69.553,31.439 69.416 C 31.177 69.279,30.858 69.167,30.731 69.167 C 30.604 69.167,30.500 69.098,30.500 69.013 C 30.500 68.929,30.275 68.810,30.000 68.750 C 29.725 68.690,29.500 68.577,29.500 68.500 C 29.500 68.423,29.275 68.310,29.000 68.250 C 28.725 68.190,28.500 68.073,28.500 67.990 C 28.500 67.907,28.312 67.793,28.083 67.735 C 27.854 67.678,27.667 67.564,27.667 67.482 C 27.667 67.400,27.552 67.333,27.411 67.333 C 27.271 67.333,27.116 67.228,27.066 67.098 C 27.016 66.969,26.794 66.818,26.571 66.762 C 26.349 66.706,26.167 66.587,26.167 66.497 C 26.167 66.407,26.087 66.333,25.989 66.333 C 25.892 66.333,25.429 66.015,24.961 65.625 C 23.706 64.580,20.846 61.667,21.076 61.667 C 21.116 61.667,20.889 61.385,20.571 61.042 C 20.253 60.698,19.950 60.253,19.898 60.054 C 19.846 59.854,19.698 59.650,19.568 59.601 C 19.439 59.551,19.333 59.396,19.333 59.255 C 19.333 59.115,19.277 58.998,19.208 58.997 C 19.140 58.995,18.896 58.584,18.667 58.083 C 18.438 57.583,18.205 57.172,18.151 57.170 C 18.097 57.168,17.873 56.642,17.655 56.000 C 17.436 55.358,17.200 54.833,17.129 54.833 C 17.058 54.833,17.000 54.683,17.000 54.500 C 17.000 54.317,16.941 54.167,16.869 54.167 C 16.797 54.167,16.724 54.035,16.706 53.875 C 16.611 53.009,16.448 52.333,16.334 52.333 C 16.263 52.333,16.152 51.902,16.086 51.375 C 16.021 50.848,15.902 50.337,15.822 50.239 C 15.742 50.141,15.625 49.219,15.563 48.191 C 15.500 47.163,15.386 46.282,15.308 46.234 C 15.123 46.120,15.123 41.213,15.308 41.099 C 15.386 41.051,15.500 40.168,15.563 39.138 C 15.626 38.107,15.742 37.223,15.821 37.173 C 15.901 37.124,16.020 36.652,16.086 36.125 C 16.151 35.598,16.271 35.167,16.353 35.167 C 16.434 35.167,16.500 34.988,16.500 34.770 C 16.500 34.398,16.834 33.398,17.150 32.828 C 17.227 32.687,17.344 32.331,17.409 32.036 C 17.473 31.741,17.596 31.500,17.680 31.500 C 17.764 31.500,17.833 31.414,17.833 31.310 C 17.833 31.066,18.539 29.616,18.722 29.481 C 18.799 29.425,18.851 29.350,18.837 29.315 C 18.786 29.184,19.071 28.577,19.282 28.363 C 19.402 28.242,19.500 28.044,19.500 27.923 C 19.500 27.801,19.612 27.659,19.750 27.606 C 19.887 27.554,20.000 27.428,20.000 27.327 C 20.000 27.226,20.094 27.048,20.208 26.932 C 20.323 26.816,20.679 26.397,21.000 26.000 C 22.828 23.737,23.432 23.140,25.633 21.419 C 25.752 21.326,26.030 21.081,26.250 20.875 C 26.471 20.669,26.732 20.500,26.831 20.500 C 26.930 20.500,27.051 20.394,27.101 20.265 C 27.150 20.136,27.373 19.984,27.595 19.929 C 27.818 19.873,28.000 19.759,28.000 19.677 C 28.000 19.594,28.225 19.477,28.500 19.417 C 28.775 19.356,29.000 19.244,29.000 19.167 C 29.000 19.090,29.225 18.977,29.500 18.917 C 29.775 18.856,30.000 18.744,30.000 18.667 C 30.000 18.590,30.225 18.477,30.500 18.417 C 30.775 18.356,31.000 18.244,31.000 18.168 C 31.000 18.092,31.300 17.979,31.667 17.917 C 32.033 17.855,32.333 17.744,32.333 17.671 C 32.333 17.598,32.671 17.487,33.083 17.425 C 33.496 17.364,33.833 17.243,33.833 17.156 C 33.833 17.070,34.058 17.000,34.333 17.000 C 34.608 17.000,34.833 16.931,34.833 16.848 C 34.833 16.764,35.415 16.641,36.125 16.576 C 36.835 16.510,37.469 16.374,37.533 16.274 C 37.700 16.013,46.197 16.014,46.516 16.275 C 46.645 16.381,47.330 16.520,48.040 16.586 C 48.749 16.652,49.288 16.772,49.238 16.853 C 49.188 16.934,49.285 17.000,49.454 17.000 C 49.623 17.000,50.322 17.194,51.006 17.430 C 51.690 17.667,52.456 17.901,52.708 17.949 C 52.960 17.998,53.167 18.098,53.167 18.172 C 53.167 18.246,53.392 18.356,53.667 18.417 C 53.942 18.477,54.167 18.587,54.167 18.662 C 54.167 18.736,54.372 18.849,54.623 18.912 C 54.874 18.975,55.129 19.106,55.190 19.204 C 55.304 19.388,56.124 18.658,56.798 17.772 C 56.998 17.509,57.482 16.938,57.873 16.504 C 58.264 16.069,58.765 15.497,58.988 15.232 C 59.533 14.583,62.395 11.271,62.501 11.167 C 62.547 11.121,62.997 10.596,63.501 10.000 C 64.005 9.404,64.514 8.814,64.632 8.689 C 64.900 8.406,64.827 8.161,64.407 7.929 C 64.229 7.830,64.045 7.700,63.998 7.638 C 63.952 7.577,63.708 7.475,63.457 7.412 C 63.205 7.349,63.000 7.236,63.000 7.162 C 63.000 7.087,62.775 6.977,62.500 6.917 C 62.225 6.856,62.000 6.744,62.000 6.667 C 62.000 6.590,61.775 6.477,61.500 6.417 C 61.225 6.356,61.000 6.239,61.000 6.155 C 61.000 6.072,60.700 5.956,60.333 5.897 C 59.967 5.839,59.667 5.734,59.667 5.665 C 59.667 5.519,59.014 5.285,58.708 5.323 C 58.594 5.337,58.500 5.270,58.500 5.174 C 58.500 5.078,58.313 5.000,58.083 5.000 C 57.854 5.000,57.667 4.934,57.667 4.852 C 57.667 4.771,57.329 4.654,56.917 4.592 C 56.504 4.530,56.167 4.409,56.167 4.323 C 56.167 4.237,56.110 4.181,56.042 4.198 C 55.820 4.253,54.422 3.967,54.250 3.831 C 54.158 3.758,53.633 3.645,53.083 3.579 C 52.533 3.513,52.007 3.398,51.914 3.325 C 51.821 3.251,51.071 3.137,50.247 3.071 C 49.424 3.006,48.705 2.882,48.649 2.797 C 48.543 2.634,39.533 2.491,36.958 2.612 M74.807 19.857 C 73.390 21.429,73.621 21.170,71.919 23.086 C 70.523 24.655,69.587 25.699,69.167 26.154 C 69.029 26.303,68.429 26.979,67.833 27.657 C 67.237 28.334,66.544 29.118,66.292 29.398 C 65.852 29.886,65.651 30.833,65.987 30.833 C 66.071 30.833,66.190 31.058,66.250 31.333 C 66.310 31.608,66.421 31.833,66.495 31.833 C 66.569 31.833,66.679 32.096,66.739 32.417 C 66.799 32.737,66.910 33.000,66.986 33.000 C 67.062 33.000,67.174 33.315,67.236 33.700 C 67.298 34.085,67.413 34.479,67.493 34.575 C 67.572 34.671,67.724 35.162,67.829 35.667 C 68.388 38.337,68.527 39.222,68.610 40.667 C 68.660 41.537,68.768 42.321,68.851 42.408 C 69.047 42.616,69.045 45.000,68.849 45.000 C 68.765 45.000,68.651 45.806,68.595 46.792 C 68.540 47.777,68.477 48.865,68.455 49.208 C 68.434 49.552,68.360 49.833,68.292 49.833 C 68.223 49.833,68.167 50.091,68.167 50.407 C 68.167 50.722,68.097 51.023,68.012 51.076 C 67.926 51.129,67.805 51.584,67.742 52.088 C 67.679 52.592,67.566 53.043,67.490 53.089 C 67.414 53.136,67.302 53.510,67.241 53.921 C 67.179 54.331,67.068 54.667,66.994 54.667 C 66.920 54.667,66.807 54.910,66.742 55.208 C 66.678 55.506,66.569 55.788,66.502 55.833 C 65.835 56.284,66.327 57.021,69.833 60.825 C 69.971 60.974,70.683 61.767,71.417 62.587 C 72.150 63.407,72.825 64.162,72.917 64.265 C 73.008 64.367,73.860 65.325,74.810 66.392 C 76.716 68.536,76.729 68.544,77.133 67.834 C 77.289 67.560,77.473 67.335,77.542 67.334 C 77.610 67.334,77.667 67.251,77.667 67.151 C 77.667 67.051,77.817 66.779,78.000 66.545 C 78.183 66.312,78.333 65.990,78.333 65.829 C 78.333 65.668,78.446 65.492,78.583 65.440 C 78.721 65.387,78.833 65.229,78.833 65.089 C 78.833 64.948,78.900 64.833,78.982 64.833 C 79.064 64.833,79.182 64.628,79.245 64.377 C 79.308 64.126,79.410 63.882,79.472 63.835 C 79.533 63.788,79.715 63.469,79.875 63.125 C 80.035 62.781,80.298 62.219,80.458 61.875 C 80.619 61.531,80.813 61.204,80.889 61.148 C 80.966 61.092,81.021 60.998,81.011 60.939 C 80.979 60.735,81.219 59.937,81.441 59.511 C 81.564 59.276,81.665 58.952,81.666 58.792 C 81.666 58.631,81.735 58.500,81.818 58.500 C 81.901 58.500,82.020 58.125,82.083 57.667 C 82.146 57.208,82.261 56.833,82.339 56.833 C 82.416 56.833,82.531 56.477,82.594 56.042 C 82.657 55.606,82.768 55.174,82.842 55.082 C 82.915 54.989,83.028 54.444,83.092 53.870 C 83.157 53.296,83.276 52.786,83.355 52.736 C 83.435 52.687,83.500 52.318,83.500 51.917 C 83.500 51.515,83.570 51.143,83.656 51.090 C 83.742 51.037,83.813 50.864,83.813 50.705 C 83.814 50.546,83.897 49.179,83.998 47.667 C 84.301 43.133,84.325 42.348,84.158 42.245 C 84.071 42.191,83.996 41.345,83.991 40.365 C 83.987 39.385,83.908 38.058,83.816 37.417 C 83.724 36.775,83.608 35.894,83.558 35.458 C 83.509 35.023,83.410 34.667,83.339 34.667 C 83.268 34.667,83.158 34.142,83.095 33.500 C 83.032 32.858,82.918 32.333,82.842 32.333 C 82.767 32.333,82.654 31.921,82.591 31.417 C 82.528 30.912,82.416 30.500,82.343 30.500 C 82.270 30.500,82.160 30.125,82.099 29.667 C 82.038 29.208,81.923 28.833,81.842 28.833 C 81.762 28.833,81.645 28.533,81.583 28.167 C 81.521 27.800,81.402 27.500,81.319 27.500 C 81.235 27.500,81.164 27.369,81.161 27.208 C 81.158 27.048,81.010 26.617,80.833 26.250 C 80.656 25.883,80.509 25.490,80.506 25.375 C 80.503 25.260,80.425 25.167,80.333 25.167 C 80.242 25.167,80.167 25.054,80.167 24.917 C 80.167 24.779,80.094 24.667,80.005 24.667 C 79.916 24.667,79.887 24.554,79.940 24.417 C 79.992 24.279,79.953 24.167,79.851 24.167 C 79.750 24.167,79.667 24.054,79.667 23.917 C 79.667 23.779,79.598 23.667,79.513 23.667 C 79.429 23.667,79.310 23.442,79.250 23.167 C 79.190 22.892,79.071 22.667,78.987 22.667 C 78.902 22.667,78.833 22.560,78.833 22.429 C 78.833 22.298,78.739 22.091,78.623 21.970 C 78.507 21.849,78.320 21.563,78.208 21.333 C 77.946 20.803,77.640 20.326,77.375 20.037 C 77.260 19.912,77.167 19.753,77.167 19.685 C 77.167 19.533,76.259 18.500,76.126 18.500 C 76.074 18.500,75.480 19.111,74.807 19.857 M209.750 19.167 C 209.693 19.258,209.509 19.333,209.341 19.333 C 208.835 19.333,208.079 20.196,207.781 21.115 C 207.473 22.063,207.420 22.667,207.645 22.667 C 207.724 22.667,207.828 22.955,207.875 23.308 C 208.146 25.321,211.480 26.190,213.211 24.698 C 214.746 23.374,214.256 19.333,212.560 19.333 C 212.435 19.333,212.333 19.258,212.333 19.167 C 212.333 19.070,211.809 19.000,211.093 19.000 C 210.411 19.000,209.807 19.075,209.750 19.167 M375.101 20.930 C 374.891 21.478,374.988 60.755,375.200 60.967 C 375.338 61.105,376.189 61.167,377.950 61.167 L 380.500 61.167 380.500 40.917 L 380.500 20.667 377.851 20.667 C 375.590 20.667,375.188 20.705,375.101 20.930 M151.042 29.945 C 150.744 29.987,150.500 30.083,150.500 30.158 C 150.500 30.234,150.162 30.346,149.750 30.408 C 149.337 30.470,149.000 30.585,149.000 30.664 C 149.000 30.742,148.775 30.856,148.500 30.917 C 148.225 30.977,148.000 31.087,148.000 31.160 C 148.000 31.234,147.869 31.339,147.708 31.392 C 147.193 31.565,146.550 32.063,145.250 33.292 C 144.309 34.182,143.167 35.663,143.167 35.993 C 143.167 36.089,143.098 36.167,143.013 36.167 C 142.929 36.167,142.811 36.391,142.750 36.665 C 142.690 36.939,142.572 37.206,142.487 37.258 C 142.403 37.310,142.333 37.499,142.333 37.677 C 142.333 37.854,142.263 38.000,142.177 38.000 C 142.091 38.000,142.017 38.131,142.012 38.292 C 141.994 38.919,141.789 39.841,141.648 39.928 C 141.565 39.980,141.500 44.149,141.500 49.510 L 141.500 59.000 144.083 59.000 L 146.667 59.000 146.667 50.510 C 146.667 45.030,146.726 41.983,146.833 41.917 C 146.925 41.860,147.003 41.499,147.006 41.115 C 147.009 40.731,147.156 40.117,147.333 39.750 C 147.510 39.383,147.658 38.990,147.661 38.875 C 147.664 38.760,147.742 38.667,147.833 38.667 C 147.925 38.667,148.000 38.583,148.000 38.480 C 148.000 38.222,150.035 36.169,150.292 36.168 C 150.406 36.167,150.500 36.098,150.500 36.013 C 150.500 35.929,150.725 35.810,151.000 35.750 C 151.275 35.690,151.500 35.575,151.500 35.495 C 151.500 35.415,151.950 35.299,152.500 35.237 C 153.050 35.175,153.500 35.058,153.500 34.978 C 153.500 34.899,153.800 34.833,154.167 34.833 C 154.533 34.833,154.833 34.898,154.833 34.977 C 154.833 35.056,155.263 35.164,155.789 35.219 C 156.315 35.273,156.771 35.396,156.803 35.492 C 156.835 35.588,157.005 35.667,157.181 35.667 C 157.356 35.667,157.500 35.748,157.500 35.847 C 157.500 35.947,157.587 35.999,157.692 35.964 C 157.798 35.928,158.051 36.053,158.255 36.241 C 158.459 36.429,158.896 36.808,159.226 37.083 C 159.785 37.550,159.986 37.830,161.023 39.583 L 161.417 40.250 161.465 49.629 L 161.513 59.008 164.132 58.963 L 166.750 58.917 166.750 49.036 C 166.750 41.884,166.698 39.122,166.562 39.036 C 166.459 38.970,166.321 38.598,166.256 38.208 C 166.191 37.819,166.075 37.500,165.999 37.500 C 165.922 37.500,165.810 37.275,165.750 37.000 C 165.690 36.725,165.579 36.500,165.505 36.500 C 165.430 36.500,165.327 36.330,165.275 36.122 C 165.222 35.914,165.027 35.579,164.840 35.379 C 164.653 35.178,164.500 34.942,164.500 34.854 C 164.500 34.607,162.003 32.167,161.750 32.167 C 161.628 32.167,161.503 32.106,161.472 32.032 C 161.396 31.847,159.895 30.833,159.697 30.833 C 159.610 30.833,159.323 30.721,159.061 30.584 C 158.798 30.447,158.467 30.335,158.325 30.334 C 158.183 30.334,157.973 30.240,157.859 30.126 C 157.651 29.917,152.260 29.774,151.042 29.945 M233.167 30.143 C 233.167 30.221,232.628 30.335,231.971 30.397 C 231.313 30.458,230.694 30.572,230.596 30.651 C 230.497 30.730,230.173 30.847,229.875 30.911 C 229.577 30.974,229.333 31.090,229.333 31.167 C 229.333 31.244,229.108 31.356,228.833 31.417 C 228.558 31.477,228.333 31.596,228.333 31.680 C 228.333 31.764,228.221 31.833,228.083 31.833 C 227.946 31.833,227.833 31.903,227.833 31.989 C 227.833 32.074,227.665 32.197,227.458 32.262 C 227.252 32.327,226.918 32.557,226.716 32.773 C 226.514 32.990,226.285 33.167,226.207 33.167 C 226.042 33.167,225.000 34.212,225.000 34.377 C 225.000 34.438,224.766 34.727,224.481 35.019 C 224.195 35.312,223.857 35.783,223.728 36.067 C 223.600 36.351,223.423 36.696,223.335 36.833 C 222.834 37.615,222.332 38.996,222.234 39.855 C 222.173 40.397,222.058 40.881,221.978 40.930 C 221.898 40.979,221.833 45.178,221.833 50.260 L 221.833 59.500 224.500 59.500 L 227.167 59.500 227.167 50.417 C 227.167 45.248,227.230 41.333,227.314 41.333 C 227.396 41.333,227.513 40.996,227.575 40.583 C 227.636 40.171,227.757 39.833,227.844 39.833 C 227.930 39.833,228.000 39.715,228.000 39.571 C 228.000 39.427,228.094 39.209,228.208 39.086 C 228.323 38.963,228.583 38.644,228.787 38.377 C 229.463 37.492,230.367 36.667,230.660 36.667 C 230.755 36.667,230.833 36.595,230.833 36.506 C 230.833 36.418,231.130 36.266,231.493 36.169 C 231.856 36.071,232.198 35.918,232.253 35.829 C 232.308 35.740,232.574 35.667,232.843 35.667 C 233.113 35.667,233.333 35.592,233.333 35.500 C 233.333 35.405,233.833 35.333,234.500 35.333 C 235.167 35.333,235.667 35.405,235.667 35.500 C 235.667 35.592,235.833 35.667,236.036 35.667 C 236.503 35.667,237.846 36.169,238.137 36.452 C 238.258 36.570,238.464 36.667,238.595 36.667 C 238.726 36.667,238.833 36.736,238.833 36.820 C 238.833 36.904,239.096 37.135,239.417 37.333 C 239.737 37.532,240.000 37.773,240.000 37.869 C 240.000 37.966,240.184 38.216,240.410 38.425 C 240.635 38.634,240.869 38.999,240.928 39.236 C 240.987 39.473,241.094 39.667,241.164 39.667 C 241.275 39.667,241.510 40.483,241.482 40.774 C 241.476 40.832,241.572 40.941,241.694 41.017 C 241.874 41.128,241.927 42.901,241.972 50.327 L 242.027 59.500 244.604 59.500 L 247.181 59.500 247.132 49.472 C 247.094 41.633,247.038 39.429,246.875 39.375 C 246.760 39.337,246.667 39.181,246.667 39.028 C 246.669 38.637,246.126 37.167,245.980 37.167 C 245.914 37.167,245.812 36.948,245.753 36.681 C 245.694 36.413,245.538 36.153,245.406 36.102 C 245.275 36.052,245.167 35.896,245.167 35.755 C 245.167 35.615,245.097 35.500,245.011 35.500 C 244.926 35.500,244.807 35.347,244.748 35.160 C 244.618 34.752,243.254 33.338,242.571 32.902 C 242.303 32.731,242.023 32.496,241.950 32.379 C 241.877 32.262,241.714 32.167,241.589 32.167 C 241.464 32.167,241.336 32.105,241.306 32.030 C 241.226 31.835,239.111 30.833,238.778 30.833 C 238.625 30.833,238.500 30.764,238.500 30.680 C 238.500 30.596,237.994 30.480,237.375 30.422 C 236.756 30.365,236.120 30.246,235.961 30.159 C 235.601 29.961,233.167 29.947,233.167 30.143 M123.499 31.389 C 123.454 31.434,123.079 31.514,122.667 31.568 C 121.163 31.761,120.667 31.873,120.667 32.018 C 120.667 32.100,120.498 32.167,120.292 32.168 C 120.085 32.168,119.715 32.274,119.470 32.402 C 119.224 32.530,118.799 32.684,118.525 32.744 C 118.252 32.805,117.986 32.962,117.936 33.094 C 117.885 33.225,117.729 33.333,117.589 33.333 C 117.448 33.333,117.333 33.408,117.333 33.500 C 117.333 33.592,117.216 33.667,117.073 33.667 C 116.756 33.667,114.000 36.420,114.000 36.738 C 114.000 36.862,113.888 37.008,113.750 37.060 C 113.612 37.113,113.500 37.271,113.500 37.411 C 113.500 37.552,113.425 37.667,113.333 37.667 C 113.242 37.667,113.167 37.807,113.167 37.980 C 113.167 38.152,113.054 38.386,112.917 38.500 C 112.779 38.614,112.667 38.848,112.667 39.020 C 112.667 39.193,112.592 39.333,112.500 39.333 C 112.408 39.333,112.345 39.390,112.360 39.458 C 112.390 39.602,112.213 40.117,111.990 40.536 C 111.906 40.693,111.789 41.239,111.729 41.749 C 111.669 42.259,111.555 42.716,111.477 42.765 C 111.289 42.880,111.289 48.620,111.477 48.735 C 111.555 48.784,111.669 49.241,111.729 49.751 C 111.789 50.261,111.906 50.807,111.990 50.964 C 112.074 51.121,112.198 51.400,112.265 51.583 C 112.333 51.767,112.404 51.954,112.425 52.000 C 112.445 52.046,112.516 52.252,112.584 52.458 C 112.651 52.665,112.766 52.833,112.840 52.833 C 112.913 52.833,113.023 53.058,113.083 53.333 C 113.144 53.608,113.265 53.833,113.352 53.833 C 113.439 53.833,113.560 53.965,113.621 54.125 C 113.682 54.285,113.811 54.501,113.907 54.605 C 114.004 54.708,114.196 54.964,114.333 55.174 C 114.804 55.891,115.877 56.865,116.863 57.470 C 117.200 57.677,117.500 57.900,117.530 57.966 C 117.620 58.168,119.263 58.958,119.857 59.085 C 120.165 59.151,120.505 59.276,120.613 59.363 C 120.722 59.450,121.228 59.565,121.738 59.618 C 122.249 59.670,122.667 59.781,122.667 59.863 C 122.667 60.276,130.867 59.778,131.417 59.332 C 131.508 59.257,131.865 59.144,132.208 59.080 C 132.552 59.015,132.833 58.896,132.833 58.815 C 132.833 58.733,132.946 58.667,133.083 58.667 C 133.221 58.667,133.333 58.594,133.333 58.505 C 133.333 58.416,133.446 58.387,133.583 58.440 C 133.721 58.492,133.833 58.453,133.833 58.351 C 133.833 58.250,133.946 58.167,134.083 58.167 C 134.221 58.167,134.333 58.097,134.333 58.011 C 134.333 57.926,134.497 57.804,134.696 57.741 C 134.896 57.677,135.252 57.446,135.488 57.228 C 135.724 57.009,136.048 56.788,136.208 56.737 C 136.383 56.681,136.500 56.478,136.500 56.229 C 136.500 56.001,136.434 55.854,136.354 55.904 C 136.274 55.953,136.161 55.695,136.102 55.330 C 136.044 54.965,135.922 54.667,135.831 54.667 C 135.741 54.667,135.667 54.509,135.667 54.317 C 135.667 54.125,135.544 53.732,135.393 53.442 C 135.242 53.153,135.066 52.804,135.001 52.667 C 134.801 52.244,134.275 52.303,133.740 52.809 C 133.460 53.074,133.066 53.343,132.865 53.407 C 132.664 53.470,132.500 53.592,132.500 53.678 C 132.500 53.763,132.364 53.833,132.199 53.833 C 132.033 53.833,131.751 53.943,131.574 54.078 C 131.396 54.213,131.087 54.325,130.889 54.328 C 130.690 54.331,130.503 54.406,130.472 54.495 C 130.442 54.585,129.873 54.708,129.208 54.769 C 128.544 54.831,128.000 54.945,128.000 55.024 C 128.000 55.212,125.046 55.210,124.930 55.022 C 124.881 54.942,124.371 54.824,123.797 54.759 C 123.223 54.694,122.716 54.591,122.669 54.529 C 122.622 54.467,122.138 54.192,121.593 53.917 C 120.323 53.276,118.677 51.664,118.189 50.583 C 117.982 50.125,117.746 49.625,117.664 49.473 C 117.582 49.320,117.465 48.814,117.403 48.348 L 117.290 47.500 127.520 47.480 C 133.147 47.469,137.801 47.468,137.863 47.476 C 138.231 47.528,138.251 40.597,137.884 40.360 C 137.791 40.299,137.664 39.972,137.601 39.632 C 137.539 39.292,137.378 38.805,137.245 38.549 C 137.111 38.293,137.002 37.990,137.001 37.875 C 137.000 37.760,136.925 37.667,136.833 37.667 C 136.742 37.667,136.667 37.572,136.667 37.457 C 136.667 37.341,136.476 37.041,136.243 36.790 C 136.010 36.539,135.860 36.333,135.910 36.333 C 135.999 36.333,135.913 36.232,134.896 35.142 C 134.163 34.356,132.629 33.167,132.349 33.167 C 132.249 33.167,132.167 33.092,132.167 33.000 C 132.167 32.908,132.073 32.831,131.958 32.828 C 131.844 32.825,131.450 32.677,131.083 32.500 C 130.717 32.323,130.285 32.175,130.125 32.172 C 129.965 32.169,129.833 32.092,129.833 32.000 C 129.833 31.908,129.613 31.833,129.343 31.833 C 129.074 31.833,128.805 31.756,128.747 31.662 C 128.689 31.568,128.403 31.489,128.112 31.486 C 127.821 31.483,126.683 31.441,125.582 31.394 C 124.482 31.346,123.544 31.344,123.499 31.389 M185.621 31.435 C 185.555 31.501,185.257 31.566,184.959 31.580 C 184.346 31.608,183.499 31.818,183.250 32.004 C 183.158 32.072,182.822 32.184,182.502 32.253 C 181.970 32.367,181.203 32.756,181.000 33.015 C 180.954 33.074,180.748 33.174,180.542 33.239 C 180.335 33.303,180.167 33.426,180.167 33.511 C 180.167 33.597,180.084 33.667,179.982 33.667 C 179.744 33.667,178.167 35.248,178.167 35.486 C 178.167 35.585,178.093 35.667,178.003 35.667 C 177.913 35.667,177.793 35.854,177.735 36.083 C 177.678 36.313,177.578 36.500,177.514 36.500 C 177.371 36.500,176.895 37.571,176.737 38.250 C 176.673 38.525,176.566 38.825,176.499 38.917 C 176.135 39.418,176.157 44.296,176.523 44.069 C 176.602 44.020,176.667 44.210,176.667 44.491 C 176.667 44.772,176.817 45.281,177.000 45.623 C 177.183 45.965,177.333 46.340,177.333 46.456 C 177.333 46.572,177.408 46.667,177.500 46.667 C 177.592 46.667,177.667 46.740,177.667 46.830 C 177.667 47.139,178.750 48.452,179.333 48.849 C 179.654 49.068,179.977 49.341,180.050 49.457 C 180.123 49.572,180.292 49.667,180.425 49.667 C 180.558 49.667,180.667 49.736,180.667 49.820 C 180.667 49.904,180.892 50.023,181.167 50.083 C 181.442 50.144,181.667 50.254,181.667 50.329 C 181.667 50.447,182.267 50.685,182.750 50.757 C 182.842 50.771,183.048 50.831,183.208 50.891 C 183.954 51.170,184.120 51.218,184.667 51.314 C 185.761 51.507,190.724 51.413,190.795 51.198 C 190.831 51.089,191.117 51.000,191.431 51.000 C 191.744 51.000,192.000 50.925,192.000 50.833 C 192.000 50.742,192.056 50.679,192.125 50.694 C 192.362 50.746,193.167 50.464,193.167 50.329 C 193.167 50.254,193.392 50.144,193.667 50.083 C 193.942 50.023,194.167 49.910,194.167 49.831 C 194.167 49.753,194.335 49.636,194.541 49.570 C 195.154 49.376,197.198 47.183,197.441 46.458 C 197.495 46.298,197.599 46.167,197.673 46.167 C 197.747 46.167,197.856 45.942,197.917 45.667 C 197.977 45.392,198.087 45.167,198.161 45.167 C 198.235 45.167,198.343 44.923,198.400 44.625 C 198.458 44.327,198.560 43.821,198.628 43.500 C 198.814 42.614,198.730 39.163,198.517 38.950 C 198.416 38.849,198.333 38.600,198.333 38.397 C 198.333 38.194,198.264 38.003,198.179 37.972 C 197.810 37.839,197.783 37.000,198.149 37.000 C 198.342 37.000,198.500 36.935,198.500 36.855 C 198.500 36.775,198.948 36.659,199.495 36.597 C 200.042 36.535,200.534 36.413,200.588 36.326 C 200.642 36.238,200.851 36.166,201.052 36.166 C 201.252 36.165,201.709 36.084,202.066 35.984 L 202.716 35.804 202.603 33.697 C 202.474 31.287,202.476 31.291,201.583 31.524 C 201.217 31.619,200.673 31.736,200.375 31.784 C 200.077 31.831,199.833 31.929,199.833 32.002 C 199.833 32.075,199.383 32.186,198.833 32.250 C 198.283 32.314,197.796 32.426,197.750 32.500 C 197.704 32.574,197.217 32.686,196.667 32.750 C 196.116 32.814,195.624 32.934,195.573 33.016 C 195.451 33.214,194.000 33.211,194.000 33.013 C 194.000 32.929,193.775 32.810,193.500 32.750 C 193.225 32.690,193.000 32.572,193.000 32.489 C 193.000 32.405,192.700 32.289,192.333 32.231 C 191.967 32.172,191.667 32.059,191.667 31.979 C 191.667 31.899,191.454 31.833,191.194 31.833 C 190.935 31.833,190.670 31.781,190.606 31.717 C 190.370 31.481,185.832 31.224,185.621 31.435 M266.219 31.459 C 266.110 31.531,265.753 31.578,265.426 31.562 C 265.099 31.547,264.790 31.601,264.739 31.684 C 264.689 31.766,264.389 31.833,264.073 31.833 C 263.758 31.833,263.500 31.904,263.500 31.990 C 263.500 32.076,263.162 32.197,262.750 32.259 C 262.337 32.321,262.000 32.432,262.000 32.506 C 262.000 32.580,261.775 32.690,261.500 32.750 C 261.225 32.810,261.000 32.921,261.000 32.995 C 261.000 33.070,260.813 33.178,260.583 33.235 C 260.354 33.293,260.167 33.413,260.167 33.503 C 260.167 33.593,260.079 33.667,259.972 33.667 C 259.737 33.667,259.510 33.858,258.370 35.020 C 256.867 36.550,256.667 36.781,256.667 36.977 C 256.667 37.081,256.587 37.167,256.490 37.167 C 256.393 37.167,256.360 37.242,256.417 37.333 C 256.473 37.425,256.440 37.500,256.343 37.500 C 256.246 37.500,256.167 37.612,256.167 37.750 C 256.167 37.887,256.098 38.000,256.013 38.000 C 255.929 38.000,255.810 38.225,255.750 38.500 C 255.690 38.775,255.575 39.000,255.494 39.000 C 255.414 39.000,255.297 39.281,255.234 39.625 C 255.170 39.969,255.052 40.293,254.972 40.346 C 254.891 40.399,254.778 40.849,254.720 41.346 C 254.663 41.843,254.534 42.303,254.434 42.368 C 254.188 42.529,254.193 48.974,254.440 49.135 C 254.536 49.198,254.659 49.625,254.712 50.083 C 254.765 50.542,254.926 51.142,255.070 51.417 C 255.214 51.692,255.332 52.048,255.332 52.208 C 255.333 52.369,255.402 52.500,255.487 52.500 C 255.571 52.500,255.690 52.725,255.750 53.000 C 255.810 53.275,255.924 53.500,256.002 53.500 C 256.080 53.500,256.195 53.661,256.258 53.859 C 256.384 54.256,256.516 54.416,258.059 56.042 C 258.647 56.660,259.199 57.167,259.288 57.167 C 259.376 57.167,259.584 57.317,259.750 57.500 C 259.916 57.683,260.153 57.833,260.276 57.833 C 260.399 57.833,260.500 57.908,260.500 58.000 C 260.500 58.092,260.612 58.167,260.750 58.167 C 260.887 58.167,261.000 58.250,261.000 58.351 C 261.000 58.453,261.112 58.492,261.250 58.440 C 261.387 58.387,261.500 58.416,261.500 58.505 C 261.500 58.594,261.612 58.667,261.750 58.667 C 261.887 58.667,262.000 58.746,262.000 58.843 C 262.000 58.940,262.070 58.977,262.155 58.924 C 262.240 58.871,262.357 58.904,262.415 58.997 C 262.473 59.090,262.703 59.167,262.927 59.167 C 263.150 59.167,263.333 59.237,263.333 59.323 C 263.333 59.409,263.858 59.532,264.500 59.595 C 265.142 59.658,265.667 59.775,265.667 59.855 C 265.667 59.935,267.129 60.000,268.917 60.000 C 270.704 60.000,272.167 59.936,272.167 59.857 C 272.167 59.778,272.631 59.666,273.199 59.606 C 273.767 59.547,274.273 59.442,274.324 59.373 C 274.375 59.304,274.829 59.106,275.333 58.933 C 277.888 58.055,280.192 55.806,278.990 55.363 C 278.910 55.333,278.796 55.052,278.737 54.738 C 278.678 54.424,278.570 54.167,278.496 54.167 C 278.423 54.167,278.312 53.867,278.250 53.500 C 278.188 53.133,278.069 52.833,277.985 52.833 C 277.902 52.833,277.833 52.721,277.833 52.583 C 277.833 52.221,277.213 52.276,276.878 52.667 C 276.721 52.850,276.497 53.000,276.380 53.000 C 276.262 53.000,276.167 53.074,276.167 53.163 C 276.167 53.253,275.979 53.374,275.750 53.432 C 275.521 53.489,275.333 53.597,275.333 53.671 C 275.333 53.746,275.109 53.856,274.835 53.916 C 274.561 53.976,274.294 54.095,274.242 54.179 C 274.190 54.264,274.008 54.333,273.837 54.333 C 273.667 54.333,273.503 54.406,273.472 54.495 C 273.442 54.585,272.873 54.708,272.208 54.769 C 271.544 54.831,271.000 54.945,271.000 55.024 C 271.000 55.102,270.287 55.167,269.417 55.167 C 268.546 55.167,267.833 55.102,267.833 55.023 C 267.833 54.944,267.366 54.837,266.796 54.786 C 266.225 54.734,265.731 54.611,265.699 54.512 C 265.666 54.414,265.537 54.333,265.412 54.333 C 265.100 54.333,263.666 53.558,263.242 53.159 C 263.051 52.980,262.825 52.830,262.739 52.827 C 262.317 52.808,260.743 50.326,260.571 49.408 C 260.511 49.090,260.396 48.789,260.314 48.738 C 260.233 48.688,260.167 48.389,260.167 48.073 L 260.167 47.500 270.490 47.500 C 276.696 47.500,280.852 47.438,280.910 47.345 C 281.441 46.485,280.951 39.481,280.326 39.000 C 280.267 38.954,280.172 38.728,280.115 38.497 C 280.059 38.266,279.878 37.928,279.714 37.747 C 279.549 37.565,279.325 37.216,279.216 36.971 C 278.753 35.926,276.312 33.602,275.292 33.233 C 275.131 33.175,275.000 33.067,275.000 32.994 C 275.000 32.920,274.775 32.810,274.500 32.750 C 274.225 32.690,274.000 32.578,274.000 32.501 C 274.000 32.425,273.700 32.312,273.333 32.250 C 272.967 32.188,272.667 32.069,272.667 31.985 C 272.667 31.902,272.454 31.833,272.194 31.833 C 271.935 31.833,271.666 31.777,271.597 31.708 C 271.348 31.459,266.554 31.236,266.219 31.459 M297.639 31.417 C 297.583 31.473,297.210 31.549,296.810 31.585 C 295.645 31.691,294.833 31.860,294.833 31.997 C 294.833 32.067,294.524 32.174,294.146 32.234 C 293.767 32.295,293.301 32.454,293.108 32.589 C 292.916 32.723,292.660 32.833,292.539 32.833 C 292.333 32.833,292.158 32.949,291.589 33.458 C 291.462 33.573,291.291 33.667,291.211 33.667 C 290.663 33.667,288.180 36.315,287.493 37.631 C 287.268 38.063,287.046 38.454,287.000 38.500 C 286.817 38.683,286.500 39.341,286.499 39.539 C 286.498 39.655,286.391 39.956,286.259 40.207 C 286.128 40.459,285.968 41.022,285.904 41.457 C 285.840 41.893,285.710 42.300,285.616 42.360 C 285.362 42.524,285.384 49.045,285.639 49.130 C 285.746 49.165,285.833 49.366,285.833 49.576 C 285.833 50.251,286.788 53.000,287.023 53.000 C 287.082 53.000,287.178 53.188,287.235 53.417 C 287.293 53.646,287.413 53.833,287.503 53.833 C 287.593 53.833,287.667 53.934,287.667 54.058 C 287.667 54.181,287.817 54.417,288.000 54.583 C 288.183 54.749,288.333 54.957,288.333 55.044 C 288.333 55.226,290.308 57.167,290.493 57.167 C 290.561 57.167,290.796 57.315,291.016 57.497 C 291.236 57.679,291.492 57.888,291.583 57.963 C 291.900 58.223,293.944 59.167,294.188 59.167 C 294.323 59.167,294.508 59.241,294.599 59.332 C 294.690 59.423,295.230 59.547,295.799 59.606 C 296.368 59.666,296.833 59.782,296.833 59.864 C 296.833 59.950,298.206 59.985,300.042 59.947 C 303.175 59.882,305.500 59.612,305.500 59.315 C 305.500 59.233,305.663 59.167,305.862 59.167 C 306.260 59.167,308.287 58.230,308.637 57.884 C 308.758 57.765,308.933 57.667,309.025 57.667 C 309.117 57.667,309.417 57.442,309.692 57.167 C 309.967 56.892,310.270 56.667,310.365 56.667 C 310.591 56.667,310.395 55.623,310.005 54.750 C 309.842 54.383,309.608 53.802,309.487 53.458 C 309.366 53.115,309.206 52.833,309.133 52.833 C 309.060 52.833,309.000 52.721,309.000 52.583 C 309.000 52.221,308.380 52.276,308.045 52.667 C 307.888 52.850,307.663 53.000,307.546 53.000 C 307.429 53.000,307.333 53.074,307.333 53.163 C 307.333 53.253,307.146 53.374,306.917 53.432 C 306.688 53.489,306.500 53.603,306.500 53.685 C 306.500 53.766,306.387 53.833,306.250 53.833 C 306.112 53.833,306.000 53.913,306.000 54.010 C 306.000 54.107,305.930 54.143,305.845 54.090 C 305.760 54.038,305.643 54.071,305.585 54.164 C 305.527 54.257,305.304 54.333,305.087 54.333 C 304.871 54.333,304.669 54.406,304.639 54.495 C 304.608 54.585,304.040 54.708,303.375 54.769 C 302.710 54.831,302.167 54.945,302.167 55.024 C 302.167 55.102,301.454 55.167,300.583 55.167 C 299.712 55.167,299.000 55.102,299.000 55.024 C 299.000 54.945,298.535 54.832,297.968 54.773 C 297.400 54.714,296.894 54.609,296.843 54.541 C 296.792 54.473,296.330 54.207,295.816 53.951 C 294.448 53.268,293.783 52.734,293.000 51.693 C 292.771 51.387,292.490 51.037,292.375 50.914 C 292.260 50.791,292.166 50.591,292.166 50.470 C 292.165 50.349,292.052 50.034,291.915 49.771 C 291.777 49.507,291.617 48.888,291.559 48.396 L 291.454 47.500 301.795 47.500 L 312.136 47.500 312.256 45.888 C 312.388 44.140,312.227 40.642,312.009 40.503 C 311.935 40.455,311.821 40.098,311.756 39.708 C 311.691 39.319,311.577 39.000,311.504 39.000 C 311.430 39.000,311.323 38.745,311.264 38.433 C 311.206 38.122,311.047 37.775,310.912 37.663 C 310.777 37.551,310.667 37.356,310.667 37.230 C 310.667 37.103,310.592 37.000,310.500 37.000 C 310.408 37.000,310.333 36.894,310.333 36.763 C 310.333 36.470,307.540 33.667,307.248 33.667 C 307.131 33.667,306.992 33.554,306.940 33.417 C 306.887 33.279,306.687 33.167,306.495 33.167 C 306.304 33.167,306.191 33.095,306.245 33.008 C 306.299 32.921,306.078 32.801,305.755 32.740 C 305.431 32.679,305.167 32.564,305.167 32.483 C 305.167 32.403,304.868 32.290,304.503 32.231 C 304.138 32.173,303.875 32.068,303.918 31.997 C 303.994 31.875,303.547 31.767,302.083 31.552 C 301.062 31.402,297.754 31.301,297.639 31.417 M330.833 31.659 C 330.696 31.752,330.227 31.829,329.792 31.831 C 329.356 31.832,329.000 31.899,329.000 31.979 C 329.000 32.058,328.625 32.173,328.167 32.234 C 327.708 32.295,327.333 32.409,327.333 32.487 C 327.333 32.565,327.071 32.679,326.750 32.739 C 326.429 32.799,326.167 32.920,326.167 33.008 C 326.167 33.095,326.069 33.167,325.950 33.167 C 325.243 33.167,321.558 36.696,321.249 37.669 C 321.191 37.851,321.080 38.000,321.002 38.000 C 320.924 38.000,320.810 38.225,320.750 38.500 C 320.690 38.775,320.571 39.000,320.487 39.000 C 320.402 39.000,320.333 39.188,320.333 39.417 C 320.333 39.646,320.261 39.833,320.172 39.833 C 320.084 39.833,319.962 40.210,319.900 40.670 C 319.839 41.131,319.724 41.548,319.645 41.597 C 319.565 41.646,319.500 45.957,319.500 51.177 L 319.500 60.667 321.994 60.667 L 324.489 60.667 324.497 52.087 C 324.505 43.828,324.567 42.000,324.837 42.000 C 324.906 42.000,325.012 41.737,325.072 41.417 C 325.133 41.096,325.245 40.833,325.323 40.833 C 325.400 40.833,325.511 40.646,325.568 40.417 C 325.626 40.188,325.747 40.000,325.837 40.000 C 325.926 40.000,326.000 39.897,326.000 39.770 C 326.000 39.462,327.212 38.228,327.651 38.088 C 327.843 38.027,328.000 37.916,328.000 37.842 C 328.000 37.707,328.633 37.447,328.875 37.482 C 328.944 37.492,329.000 37.428,329.000 37.341 C 329.000 37.192,330.100 36.892,330.375 36.966 C 330.444 36.985,330.500 36.925,330.500 36.833 C 330.500 36.735,331.108 36.667,331.990 36.667 C 332.810 36.667,333.527 36.742,333.583 36.833 C 333.890 37.330,334.662 37.004,334.769 36.333 C 334.828 35.967,334.933 35.667,335.003 35.667 C 335.108 35.667,335.219 35.395,335.411 34.667 C 335.424 34.621,335.598 34.231,335.800 33.801 C 336.361 32.603,336.305 32.375,335.417 32.241 C 335.004 32.179,334.667 32.070,334.667 31.997 C 334.667 31.869,333.886 31.745,332.000 31.574 C 331.496 31.528,330.971 31.566,330.833 31.659 M208.444 31.944 C 208.383 32.006,208.333 38.231,208.333 45.778 L 208.333 59.500 210.917 59.500 L 213.500 59.500 213.500 45.930 C 213.500 38.467,213.454 32.242,213.399 32.097 C 213.294 31.823,208.707 31.682,208.444 31.944 M352.097 33.478 C 352.048 33.558,351.556 33.674,351.004 33.736 C 350.452 33.799,350.000 33.921,350.000 34.008 C 350.000 34.095,349.837 34.167,349.638 34.167 C 349.153 34.167,347.315 35.074,346.761 35.588 C 346.516 35.814,346.245 36.000,346.157 36.000 C 345.947 36.000,343.333 38.582,343.333 38.789 C 343.333 38.877,343.185 39.129,343.003 39.349 C 342.821 39.570,342.611 39.825,342.536 39.917 C 342.346 40.149,342.108 40.725,342.140 40.875 C 342.155 40.944,342.092 41.000,342.000 41.000 C 341.908 41.000,341.833 41.104,341.833 41.231 C 341.833 41.358,341.721 41.677,341.584 41.939 C 341.447 42.202,341.335 42.570,341.334 42.758 C 341.334 42.946,341.240 43.194,341.125 43.308 C 340.843 43.591,340.825 51.336,341.106 51.683 C 341.210 51.811,341.348 52.165,341.413 52.470 C 341.478 52.774,341.636 53.224,341.765 53.470 C 341.893 53.715,341.998 54.010,341.999 54.125 C 342.000 54.240,342.075 54.333,342.167 54.333 C 342.258 54.333,342.333 54.446,342.333 54.583 C 342.333 54.721,342.400 54.833,342.482 54.833 C 342.564 54.833,342.678 55.021,342.735 55.250 C 342.793 55.479,342.913 55.667,343.003 55.667 C 343.093 55.667,343.167 55.782,343.167 55.922 C 343.167 56.062,343.279 56.220,343.417 56.273 C 343.554 56.326,343.667 56.470,343.667 56.594 C 343.667 56.862,345.500 58.664,345.774 58.666 C 345.879 58.666,346.001 58.763,346.046 58.880 C 346.091 58.997,346.418 59.241,346.772 59.422 C 347.127 59.602,347.454 59.797,347.500 59.854 C 347.642 60.031,349.134 60.667,349.408 60.667 C 349.550 60.667,349.667 60.735,349.667 60.818 C 349.667 60.901,350.060 61.022,350.542 61.088 C 351.023 61.153,351.470 61.292,351.535 61.395 C 351.701 61.657,358.523 61.657,358.849 61.396 C 358.978 61.293,359.440 61.157,359.875 61.094 C 360.310 61.031,360.667 60.919,360.667 60.844 C 360.667 60.770,360.967 60.661,361.333 60.603 C 361.700 60.544,362.000 60.428,362.000 60.345 C 362.000 60.261,362.225 60.144,362.500 60.083 C 362.775 60.023,363.000 59.904,363.000 59.820 C 363.000 59.736,363.078 59.667,363.173 59.667 C 363.911 59.667,367.426 56.073,367.780 54.958 C 367.831 54.798,367.933 54.667,368.006 54.667 C 368.080 54.667,368.193 54.423,368.258 54.125 C 368.322 53.827,368.426 53.546,368.488 53.500 C 368.710 53.336,369.167 52.192,369.167 51.800 C 369.167 51.580,369.260 51.306,369.375 51.192 C 369.528 51.039,369.582 50.127,369.578 47.783 C 369.574 44.824,369.542 44.367,369.295 43.667 C 369.247 43.529,369.067 42.948,368.895 42.375 C 368.724 41.802,368.533 41.333,368.472 41.333 C 368.410 41.333,368.310 41.108,368.250 40.833 C 368.190 40.558,368.079 40.333,368.005 40.333 C 367.930 40.333,367.822 40.146,367.765 39.917 C 367.707 39.688,367.587 39.500,367.497 39.500 C 367.407 39.500,367.333 39.417,367.333 39.315 C 367.333 38.947,365.152 36.500,364.824 36.500 C 364.729 36.500,364.477 36.313,364.265 36.083 C 364.052 35.854,363.793 35.667,363.689 35.667 C 363.585 35.667,363.500 35.597,363.500 35.512 C 363.500 35.426,363.144 35.192,362.708 34.991 C 362.273 34.790,361.718 34.522,361.474 34.396 C 361.231 34.270,360.912 34.167,360.766 34.167 C 360.620 34.167,360.500 34.098,360.500 34.013 C 360.500 33.929,360.011 33.808,359.414 33.744 C 358.817 33.680,358.288 33.561,358.238 33.480 C 358.120 33.290,352.215 33.288,352.097 33.478 M391.583 34.423 C 391.308 34.743,390.690 35.434,390.208 35.957 C 389.727 36.480,389.333 36.957,389.333 37.016 C 389.333 37.075,388.958 37.511,388.500 37.984 C 388.042 38.457,387.667 38.900,387.667 38.968 C 387.667 39.036,387.284 39.502,386.816 40.004 C 386.348 40.506,385.635 41.270,385.232 41.701 C 384.830 42.133,384.500 42.556,384.500 42.641 C 384.500 42.727,384.106 43.210,383.625 43.716 C 380.486 47.014,380.539 46.835,382.187 48.583 C 383.748 50.240,384.497 51.093,384.499 51.215 C 384.499 51.288,384.856 51.728,385.292 52.194 C 387.128 54.158,387.333 54.393,387.333 54.536 C 387.333 54.619,387.408 54.640,387.500 54.583 C 387.592 54.527,387.667 54.597,387.667 54.739 C 387.667 54.882,388.001 55.337,388.410 55.752 C 388.819 56.167,389.219 56.623,389.298 56.765 C 389.449 57.034,390.581 58.323,391.792 59.604 C 392.181 60.016,392.500 60.419,392.500 60.500 C 392.500 61.044,393.240 61.167,396.537 61.167 C 400.558 61.167,400.656 61.045,398.375 58.872 C 397.894 58.414,397.500 57.972,397.500 57.890 C 397.500 57.808,397.369 57.619,397.208 57.471 C 397.048 57.323,396.504 56.739,396.000 56.174 C 395.496 55.608,394.747 54.794,394.337 54.365 C 393.926 53.935,393.358 53.281,393.073 52.911 C 392.789 52.541,392.225 51.897,391.820 51.480 C 390.746 50.375,389.212 48.647,388.880 48.167 C 388.514 47.639,387.831 47.000,387.632 47.000 C 387.549 47.000,387.523 46.931,387.575 46.848 C 387.626 46.764,387.584 46.667,387.480 46.632 C 387.376 46.597,387.844 46.002,388.520 45.308 C 389.197 44.614,389.863 43.875,390.000 43.665 C 390.137 43.455,390.464 43.089,390.727 42.850 C 391.700 41.965,391.927 41.734,392.385 41.165 C 392.893 40.534,394.965 38.247,396.167 36.991 C 396.906 36.218,397.800 35.217,398.380 34.512 C 398.888 33.894,398.610 33.833,395.282 33.837 L 392.083 33.840 391.583 34.423 M189.083 36.010 C 189.633 36.120,190.129 36.282,190.185 36.370 C 190.241 36.457,190.316 36.517,190.352 36.503 C 190.872 36.294,192.552 37.882,193.250 39.242 C 193.653 40.027,193.752 43.499,193.375 43.625 C 193.260 43.663,193.167 43.766,193.167 43.854 C 193.167 44.286,191.779 45.833,191.392 45.833 C 191.268 45.833,191.167 45.894,191.167 45.969 C 191.167 46.131,190.086 46.667,189.758 46.667 C 189.631 46.667,189.498 46.755,189.462 46.863 C 189.378 47.116,185.692 47.140,185.528 46.889 C 185.467 46.795,185.224 46.671,184.988 46.613 C 184.752 46.556,184.280 46.319,183.939 46.088 C 183.598 45.856,183.249 45.667,183.165 45.667 C 182.875 45.667,181.691 43.881,181.577 43.273 C 181.514 42.940,181.396 42.667,181.315 42.667 C 181.123 42.667,181.120 40.548,181.311 40.430 C 181.391 40.381,181.504 40.039,181.563 39.670 C 181.622 39.302,181.745 39.000,181.835 39.000 C 181.926 39.000,182.000 38.892,182.000 38.759 C 182.000 38.370,183.629 36.879,184.473 36.496 C 184.900 36.302,185.362 36.085,185.500 36.014 C 185.637 35.944,185.951 35.914,186.196 35.947 C 186.441 35.981,186.694 35.924,186.757 35.822 C 186.878 35.626,187.363 35.665,189.083 36.010 M128.021 36.773 C 128.147 36.873,128.465 37.006,128.728 37.069 C 128.992 37.132,129.301 37.273,129.416 37.383 C 129.532 37.493,129.791 37.696,129.992 37.833 C 130.466 38.157,131.665 39.326,131.672 39.471 C 131.675 39.533,131.823 39.883,132.000 40.250 C 132.177 40.617,132.325 41.048,132.328 41.208 C 132.331 41.369,132.401 41.500,132.484 41.500 C 132.567 41.500,132.660 41.875,132.692 42.333 L 132.750 43.167 124.875 43.167 L 117.000 43.167 117.000 42.667 C 117.000 42.392,117.068 42.167,117.152 42.167 C 117.236 42.167,117.355 41.867,117.417 41.500 C 117.479 41.133,117.590 40.833,117.663 40.833 C 117.737 40.833,117.844 40.646,117.902 40.417 C 117.959 40.188,118.080 40.000,118.170 40.000 C 118.260 40.000,118.333 39.893,118.333 39.763 C 118.333 39.455,119.788 38.000,120.096 38.000 C 120.227 38.000,120.333 37.938,120.333 37.863 C 120.333 37.685,121.704 37.000,122.060 37.000 C 122.210 37.000,122.333 36.930,122.333 36.844 C 122.333 36.492,127.583 36.426,128.021 36.773 M270.990 36.818 C 271.062 36.934,271.171 37.017,271.233 37.002 C 271.748 36.882,274.128 38.674,274.383 39.375 C 274.442 39.535,274.561 39.667,274.648 39.667 C 274.735 39.667,274.859 39.910,274.923 40.208 C 274.986 40.506,275.096 40.825,275.166 40.917 C 275.332 41.134,275.641 42.970,275.530 43.081 C 275.483 43.128,271.876 43.166,267.514 43.164 C 263.152 43.163,259.667 43.106,259.769 43.039 C 259.870 42.972,260.006 42.560,260.070 42.125 C 260.135 41.690,260.254 41.333,260.336 41.333 C 260.418 41.333,260.534 41.071,260.594 40.751 C 260.654 40.431,260.770 40.211,260.852 40.261 C 260.933 40.312,261.000 40.250,261.000 40.124 C 261.000 39.764,263.079 37.695,263.564 37.573 C 263.804 37.513,264.000 37.403,264.000 37.329 C 264.000 37.254,264.244 37.141,264.542 37.077 C 264.840 37.014,265.158 36.902,265.250 36.830 C 265.731 36.451,270.757 36.440,270.990 36.818 M302.138 36.783 C 302.200 36.879,302.489 37.010,302.780 37.073 C 303.072 37.136,303.400 37.296,303.509 37.427 C 303.618 37.559,303.798 37.667,303.910 37.667 C 304.021 37.667,304.312 37.892,304.557 38.167 C 304.802 38.442,305.081 38.667,305.178 38.667 C 305.274 38.667,305.307 38.742,305.250 38.833 C 305.193 38.925,305.226 39.000,305.323 39.000 C 305.421 39.000,305.500 39.112,305.500 39.250 C 305.500 39.387,305.574 39.500,305.663 39.500 C 305.753 39.500,305.874 39.688,305.932 39.917 C 305.989 40.146,306.098 40.333,306.175 40.333 C 306.251 40.333,306.364 40.671,306.425 41.083 C 306.487 41.496,306.604 41.833,306.686 41.833 C 306.767 41.833,306.833 42.133,306.833 42.500 L 306.833 43.167 298.950 43.167 L 291.067 43.167 291.135 42.583 C 291.172 42.262,291.261 42.000,291.331 42.000 C 291.401 42.000,291.502 41.781,291.556 41.514 C 291.828 40.153,293.659 38.062,295.167 37.390 C 295.671 37.165,296.233 36.914,296.417 36.832 C 297.052 36.549,297.428 36.519,299.722 36.563 C 301.106 36.589,302.071 36.677,302.138 36.783 M356.667 38.333 C 356.667 38.425,356.934 38.500,357.261 38.500 C 357.781 38.500,359.436 39.068,359.667 39.326 C 359.712 39.377,360.048 39.641,360.413 39.913 C 361.359 40.619,362.500 41.811,362.500 42.093 C 362.500 42.225,362.558 42.333,362.629 42.333 C 362.700 42.333,362.874 42.577,363.017 42.875 C 363.160 43.173,363.421 43.711,363.597 44.071 C 363.976 44.847,364.083 50.077,363.728 50.516 C 363.624 50.645,363.486 50.994,363.423 51.292 C 363.359 51.590,363.244 51.833,363.167 51.833 C 363.090 51.833,362.977 52.058,362.917 52.333 C 362.856 52.608,362.735 52.833,362.648 52.833 C 362.561 52.833,362.440 52.965,362.379 53.125 C 362.318 53.285,362.176 53.510,362.064 53.624 C 361.951 53.738,361.721 54.001,361.553 54.207 C 361.277 54.546,360.013 55.430,359.049 55.959 C 358.847 56.070,358.376 56.209,358.004 56.269 C 357.631 56.328,357.286 56.442,357.236 56.522 C 357.114 56.720,353.000 56.708,353.000 56.510 C 353.000 56.424,352.662 56.303,352.250 56.241 C 351.837 56.179,351.500 56.068,351.500 55.994 C 351.500 55.920,351.280 55.812,351.012 55.753 C 350.743 55.694,350.434 55.538,350.324 55.406 C 350.215 55.274,350.059 55.167,349.977 55.167 C 349.499 55.167,347.289 52.342,347.075 51.458 C 347.014 51.206,346.905 51.000,346.833 51.000 C 346.762 51.000,346.664 50.756,346.617 50.458 C 346.570 50.160,346.470 49.617,346.396 49.250 C 346.182 48.190,346.292 44.835,346.542 44.834 C 346.610 44.834,346.667 44.688,346.667 44.510 C 346.667 44.332,346.733 44.145,346.814 44.095 C 346.896 44.045,347.010 43.748,347.069 43.435 C 347.128 43.123,347.286 42.775,347.421 42.663 C 347.556 42.551,347.669 42.375,347.671 42.271 C 347.680 41.829,350.189 39.500,350.656 39.500 C 350.753 39.500,350.833 39.431,350.833 39.347 C 350.833 39.262,351.058 39.144,351.333 39.083 C 351.608 39.023,351.833 38.907,351.833 38.826 C 351.833 38.745,352.210 38.628,352.670 38.567 C 353.131 38.506,353.548 38.391,353.597 38.311 C 353.724 38.106,356.667 38.127,356.667 38.333 M186.667 54.158 C 186.438 54.236,185.706 54.308,185.042 54.317 C 184.377 54.326,183.833 54.397,183.833 54.475 C 183.833 54.553,183.220 54.665,182.470 54.722 C 181.720 54.780,181.064 54.895,181.012 54.977 C 180.959 55.059,180.598 55.179,180.208 55.244 C 179.819 55.309,179.500 55.431,179.500 55.515 C 179.500 55.598,179.405 55.667,179.289 55.667 C 179.173 55.667,178.799 55.817,178.456 56.000 C 178.114 56.183,177.756 56.333,177.660 56.333 C 177.239 56.333,174.550 58.994,174.411 59.548 C 174.348 59.797,174.234 60.000,174.156 60.000 C 174.079 60.000,173.970 60.281,173.915 60.625 C 173.860 60.969,173.744 61.380,173.658 61.539 C 173.447 61.926,173.455 64.619,173.667 64.750 C 173.758 64.807,173.833 65.039,173.833 65.267 C 173.833 66.208,175.811 69.133,176.464 69.158 C 176.581 69.163,176.720 69.279,176.773 69.417 C 176.826 69.554,176.973 69.667,177.101 69.667 C 177.229 69.667,177.333 69.736,177.333 69.820 C 177.333 69.904,177.558 70.023,177.833 70.083 C 178.108 70.144,178.333 70.262,178.333 70.347 C 178.333 70.431,178.390 70.488,178.458 70.474 C 178.596 70.444,179.105 70.615,179.506 70.825 C 179.647 70.899,180.097 71.014,180.506 71.082 C 180.915 71.149,181.336 71.274,181.442 71.359 C 181.548 71.444,182.282 71.560,183.073 71.615 C 183.864 71.671,184.551 71.781,184.599 71.858 C 184.713 72.043,190.333 72.043,190.333 71.858 C 190.333 71.781,191.059 71.669,191.947 71.611 C 192.834 71.553,193.603 71.440,193.655 71.361 C 193.707 71.282,194.072 71.167,194.466 71.106 C 194.859 71.044,195.309 70.925,195.466 70.841 C 195.622 70.756,196.125 70.514,196.583 70.302 C 197.042 70.090,197.454 69.879,197.500 69.833 C 197.623 69.710,198.214 69.348,198.500 69.219 C 198.721 69.121,199.898 67.948,200.452 67.274 C 200.562 67.139,200.705 66.816,200.769 66.556 C 200.833 66.296,200.956 66.037,201.043 65.979 C 201.130 65.922,201.242 65.378,201.290 64.771 C 201.339 64.164,201.444 63.667,201.523 63.667 C 201.709 63.667,201.711 62.714,201.525 62.599 C 201.447 62.550,201.337 61.971,201.282 61.311 C 201.227 60.652,201.109 60.067,201.021 60.013 C 200.932 59.958,200.808 59.708,200.745 59.457 C 200.682 59.205,200.582 58.999,200.524 58.999 C 200.465 58.998,200.229 58.717,200.000 58.374 C 199.570 57.730,199.016 57.182,198.785 57.172 C 198.712 57.169,198.562 57.090,198.451 56.997 C 197.648 56.319,197.422 56.167,197.224 56.167 C 197.101 56.167,197.000 56.095,197.000 56.008 C 197.000 55.920,196.737 55.799,196.417 55.739 C 196.096 55.679,195.833 55.568,195.833 55.492 C 195.833 55.416,195.495 55.303,195.081 55.241 C 194.668 55.179,194.291 55.067,194.245 54.992 C 194.199 54.918,193.731 54.809,193.206 54.751 C 192.680 54.692,192.100 54.579,191.917 54.500 C 191.733 54.420,190.983 54.314,190.250 54.264 C 189.517 54.213,188.504 54.137,188.000 54.094 C 187.496 54.051,186.896 54.080,186.667 54.158 M190.735 58.810 C 190.784 58.889,191.237 59.002,191.742 59.061 C 192.566 59.158,193.782 59.584,194.000 59.853 C 194.046 59.909,194.240 60.004,194.431 60.063 C 194.872 60.201,196.000 61.197,196.000 61.449 C 196.000 61.553,196.091 61.669,196.201 61.706 C 196.544 61.820,196.480 64.210,196.125 64.565 C 195.965 64.726,195.833 64.948,195.833 65.058 C 195.833 65.169,195.674 65.370,195.480 65.505 C 195.285 65.640,195.032 65.840,194.916 65.950 C 194.801 66.060,194.510 66.200,194.270 66.260 C 194.030 66.320,193.833 66.436,193.833 66.518 C 193.833 66.600,193.702 66.667,193.542 66.668 C 193.381 66.668,193.045 66.775,192.795 66.906 C 192.387 67.119,189.877 67.454,189.388 67.362 C 189.280 67.341,189.144 67.401,189.086 67.496 C 188.959 67.701,186.000 67.729,186.000 67.525 C 186.000 67.447,185.274 67.336,184.386 67.278 C 183.499 67.219,182.730 67.105,182.678 67.023 C 182.626 66.942,182.327 66.819,182.013 66.751 C 181.699 66.683,181.211 66.487,180.929 66.316 C 180.647 66.144,180.267 65.936,180.083 65.852 C 179.900 65.768,179.637 65.533,179.500 65.329 C 179.362 65.126,179.137 64.842,179.000 64.700 C 178.819 64.513,178.750 64.063,178.750 63.082 L 178.750 61.724 179.506 60.968 C 179.922 60.552,180.428 60.159,180.631 60.095 C 180.834 60.030,181.000 59.908,181.000 59.822 C 181.000 59.737,181.133 59.667,181.296 59.667 C 181.459 59.667,181.746 59.559,181.933 59.428 C 182.120 59.297,182.738 59.137,183.307 59.073 C 183.876 59.009,184.381 58.891,184.430 58.811 C 184.546 58.623,190.619 58.622,190.735 58.810 " stroke="none" fill="#243c63" fill-rule="evenodd"></path><path id="path2" d="M73.409 21.042 L 72.750 21.750 73.458 21.091 C 73.848 20.729,74.167 20.410,74.167 20.383 C 74.167 20.257,74.022 20.383,73.409 21.042 M72.240 22.375 L 71.750 22.917 72.292 22.427 C 72.797 21.971,72.910 21.833,72.781 21.833 C 72.752 21.833,72.509 22.077,72.240 22.375 M69.240 25.708 L 68.750 26.250 69.292 25.760 C 69.797 25.304,69.910 25.167,69.781 25.167 C 69.752 25.167,69.509 25.410,69.240 25.708 M68.667 59.917 C 68.978 60.237,69.270 60.500,69.315 60.500 C 69.361 60.500,69.144 60.237,68.833 59.917 C 68.522 59.596,68.230 59.333,68.185 59.333 C 68.139 59.333,68.356 59.596,68.667 59.917 M71.333 62.885 C 71.333 62.914,71.577 63.158,71.875 63.427 L 72.417 63.917 71.927 63.375 C 71.471 62.870,71.333 62.757,71.333 62.885 M72.917 64.667 C 73.275 65.033,73.605 65.333,73.651 65.333 C 73.697 65.333,73.441 65.033,73.083 64.667 C 72.725 64.300,72.395 64.000,72.349 64.000 C 72.303 64.000,72.559 64.300,72.917 64.667 M74.333 66.250 C 74.644 66.571,74.936 66.833,74.982 66.833 C 75.028 66.833,74.811 66.571,74.500 66.250 C 74.189 65.929,73.897 65.667,73.851 65.667 C 73.805 65.667,74.022 65.929,74.333 66.250 M62.167 74.552 C 62.167 74.581,62.410 74.825,62.708 75.094 L 63.250 75.583 62.760 75.042 C 62.304 74.537,62.167 74.423,62.167 74.552 " stroke="none" fill="#348494" fill-rule="evenodd"></path><path id="path3" d="M63.929 9.484 L 63.441 10.083 64.004 9.547 C 64.313 9.252,64.533 8.982,64.491 8.948 C 64.450 8.913,64.197 9.155,63.929 9.484 M60.740 13.208 L 60.250 13.750 60.792 13.260 C 61.297 12.804,61.410 12.667,61.281 12.667 C 61.252 12.667,61.009 12.910,60.740 13.208 M59.740 14.375 L 59.250 14.917 59.792 14.427 C 60.297 13.971,60.410 13.833,60.281 13.833 C 60.252 13.833,60.009 14.077,59.740 14.375 M57.406 17.042 L 56.917 17.583 57.458 17.094 C 57.756 16.825,58.000 16.581,58.000 16.552 C 58.000 16.423,57.862 16.537,57.406 17.042 M75.253 19.164 C 74.897 19.529,74.638 19.852,74.677 19.883 C 74.717 19.913,75.041 19.614,75.397 19.219 C 76.209 18.316,76.116 18.280,75.253 19.164 M73.836 20.748 C 73.526 21.067,73.305 21.354,73.345 21.385 C 73.384 21.417,73.669 21.155,73.978 20.804 C 74.679 20.007,74.588 19.971,73.836 20.748 M72.407 22.375 C 71.208 23.657,70.770 24.167,70.865 24.167 C 70.917 24.167,71.463 23.604,72.078 22.917 C 73.275 21.579,73.505 21.201,72.407 22.375 M69.517 25.589 C 69.233 25.913,69.000 26.228,69.000 26.289 C 69.000 26.350,69.057 26.329,69.126 26.242 C 69.196 26.155,69.472 25.840,69.741 25.542 C 70.009 25.244,70.185 25.000,70.132 25.000 C 70.078 25.000,69.802 25.265,69.517 25.589 M68.240 27.042 L 67.750 27.583 68.292 27.094 C 68.797 26.638,68.910 26.500,68.781 26.500 C 68.752 26.500,68.509 26.744,68.240 27.042 M67.022 28.362 C 66.714 28.713,66.526 28.995,66.606 28.988 C 66.774 28.974,67.741 27.845,67.647 27.773 C 67.612 27.746,67.331 28.011,67.022 28.362 M66.681 57.436 C 66.902 57.722,67.117 57.926,67.158 57.890 C 67.199 57.853,67.018 57.619,66.755 57.370 L 66.279 56.917 66.681 57.436 M67.333 58.219 C 67.333 58.248,67.577 58.491,67.875 58.760 L 68.417 59.250 67.927 58.708 C 67.471 58.203,67.333 58.090,67.333 58.219 M68.631 59.583 C 68.725 59.767,69.016 60.104,69.276 60.333 L 69.750 60.749 69.251 60.166 C 68.461 59.243,68.450 59.232,68.631 59.583 M70.006 61.132 C 70.009 61.197,70.590 61.854,71.298 62.592 C 72.562 63.911,72.330 63.590,70.785 61.882 C 70.353 61.405,70.003 61.067,70.006 61.132 M73.250 64.833 C 73.608 65.200,73.932 65.500,73.970 65.500 C 74.110 65.500,72.911 64.194,72.758 64.181 C 72.670 64.173,72.892 64.467,73.250 64.833 M74.750 66.500 C 75.108 66.867,75.438 67.167,75.484 67.167 C 75.530 67.167,75.275 66.867,74.917 66.500 C 74.559 66.133,74.228 65.833,74.182 65.833 C 74.137 65.833,74.392 66.133,74.750 66.500 M75.500 67.385 C 75.500 67.414,75.744 67.658,76.042 67.927 L 76.583 68.417 76.094 67.875 C 75.638 67.370,75.500 67.257,75.500 67.385 M59.833 72.052 C 59.833 72.081,60.077 72.325,60.375 72.594 L 60.917 73.083 60.427 72.542 C 59.971 72.037,59.833 71.923,59.833 72.052 M63.167 75.885 C 63.167 75.914,63.410 76.158,63.708 76.427 L 64.250 76.917 63.760 76.375 C 63.304 75.870,63.167 75.757,63.167 75.885 " stroke="none" fill="#2c5c74" fill-rule="evenodd"></path><path id="path4" d="M70.240 24.708 L 69.750 25.250 70.292 24.760 C 70.797 24.304,70.910 24.167,70.781 24.167 C 70.752 24.167,70.509 24.410,70.240 24.708 " stroke="none" fill="#347c94" fill-rule="evenodd"></path></g></svg>