<?xml version="1.0" encoding="UTF-8"?>
<!DOCTYPE svg PUBLIC "-//W3C//DTD SVG 1.1//EN" "http://www.w3.org/Graphics/SVG/1.1/DTD/svg11.dtd">
<!-- Creator: CorelDRAW 2020 (64-Bit) -->
<svg xmlns="http://www.w3.org/2000/svg" xml:space="preserve" width="200mm" height="200mm" version="1.1" style="shape-rendering:geometricPrecision; text-rendering:geometricPrecision; image-rendering:optimizeQuality; fill-rule:evenodd; clip-rule:evenodd"
viewBox="0 0 20000 20000"
 xmlns:xlink="http://www.w3.org/1999/xlink"
 xmlns:xodm="http://www.corel.com/coreldraw/odm/2003">
 <defs>
  <style type="text/css">
   <![CDATA[
    .fil2 {fill:#FEFEFE}
    .fil1 {fill:#3FB9B9}
    .fil0 {fill:#253D60}
   ]]>
  </style>
 </defs>
 <g id="Слой_x0020_1">
  <metadata id="CorelCorpID_0Corel-Layer"/>
  <g id="_2364274774672">
   <path class="fil0" d="M1879.65 8667.78c1763.18,-486.65 5237.14,-1385.07 7393.38,-1905.42 2156.25,-520.36 2994.79,-662.6 3556.31,-737.47 561.53,-74.88 846.03,-82.37 1051.93,-67.39 205.88,14.97 333.16,52.41 425.74,195.86 92.59,143.47 150.5,392.93 306.34,881.75 155.83,488.82 409.62,1217.01 661.04,2086.62 251.39,869.61 500.45,1880.67 622.85,2566.56 122.38,685.89 118.13,1046.63 51.95,1273.91 -66.18,227.29 -194.28,321.13 -428.04,385.21 -233.76,64.07 -586.96,41.53 -3178.22,152.56 -1831.23,78.46 -1667.98,-29.32 -1707.27,-610.37 -50,-739.54 -458.82,-1342.15 -1024.77,-1342.15 -565.96,0 -1024.78,818.82 -1024.78,1342.15 0,523.34 24.35,589.08 155.56,814.64 -2278.58,89.75 -4264.41,166.01 -6226.06,230.33 -189.94,6.23 -365.21,11.7 -527.18,15.94 -150.9,264.56 -377.56,432.86 -631.03,432.86 -260.94,0 -493.49,-178.37 -644.19,-456.51 -450.93,-61.19 -584.28,-218.43 -596.74,-561.01 -22.46,-617.67 -97.32,-1823.07 -134.76,-2560.54 -37.43,-737.47 -37.43,-1007 -26.19,-1179.21 11.22,-172.19 33.66,-247.05 71.1,-321.92 37.44,-74.88 89.85,-149.73 1853.03,-636.4z"/>
   <path class="fil0" d="M14937.66 6217.91c486.65,39.32 1422.51,136.64 1974.67,233.98 552.17,97.34 720.61,194.66 963.95,548.42 243.33,353.76 561.52,963.96 862.89,1652.75 301.34,688.81 585.83,1456.21 673.81,1944.73 87.97,488.53 -20.59,698.18 -211.5,825.45 -190.92,127.29 -464.2,172.19 -834.8,172.19 -370.6,0 -838.54,-44.9 -1227.85,-112.29 -389.33,-67.39 -700.05,-157.22 -898.45,-219 -198.4,-61.77 -284.52,-95.46 -378.1,-370.61 -93.59,-275.15 -194.66,-791.75 -355.63,-1488.04 -160.97,-696.28 -381.82,-1572.26 -580.23,-2133.79 -198.41,-561.52 -374.36,-808.59 -443.61,-941.48 -69.26,-132.89 -31.82,-151.61 454.85,-112.31z"/>
   <path class="fil0" d="M15981.21 11536.47c0.93,206.83 71.12,646.7 90.31,953.65 19.17,306.97 -12.68,481.05 -60.41,605.52 -47.74,124.46 -111.4,199.34 47.71,234.89 159.1,35.57 540.93,31.84 1227.87,9.37 686.92,-22.46 1678.95,-63.65 2178.7,-142.26 499.76,-78.61 507.25,-194.65 470.29,-464.66 -36.96,-269.99 -118.38,-693.95 -187.63,-999.05 -69.25,-305.09 -126.35,-491.32 -170.8,-494.6 -44.47,-3.28 -76.29,176.42 -255.51,302.28 -179.22,125.88 -505.83,197.95 -967.22,194.2 -461.38,-3.74 -1057.54,-83.3 -1452.93,-154.89 -395.41,-71.58 -590.08,-135.24 -721.56,-180.16 -131.48,-44.91 -199.77,-71.12 -198.82,135.71z"/>
   <path class="fil1" d="M13579.45 6516.15c334.33,-47.76 976.96,-125.9 1406.83,-143.27 429.86,-17.37 646.98,26.06 834.77,117.24 187.8,91.2 346.27,230.13 432.03,404.89 85.75,174.78 98.79,385.38 70.57,447.23 -28.24,61.88 -97.7,-24.95 -173.68,-123.73 -76,-98.78 -158.51,-209.52 -290.93,-290.93 -132.43,-81.41 -314.81,-133.52 -567.73,-137.87 -252.92,-4.33 -576.42,39.09 -904.24,94.45 -327.83,55.38 -660,122.67 -861.89,153.05 -201.92,30.41 -273.58,23.91 -309.4,-23.86 -35.82,-47.76 -35.82,-136.77 -33.64,-212.77 2.17,-75.98 6.5,-138.96 21.7,-179.13 15.21,-40.15 41.26,-57.52 375.61,-105.3z"/>
   <path class="fil1" d="M14903.78 6965.57c30.39,65.15 312.61,178.03 475.46,314.8 162.82,136.79 206.24,297.44 245.34,470.03 39.07,172.62 73.81,357.14 131.35,484.14 57.52,127.02 137.85,196.5 244.23,204.1 106.39,7.61 238.8,-46.67 316.97,-141.12 78.16,-94.43 102.03,-229.05 62.96,-397.31 -39.07,-168.26 -141.13,-370.15 -249.67,-533 -108.55,-162.82 -223.62,-286.55 -360.39,-363.63 -136.79,-77.08 -295.26,-107.47 -485.22,-113.99 -189.98,-6.52 -411.43,10.85 -381.03,75.98z"/>
   <path class="fil1" d="M13719.23 7637.62c147.86,-39.3 424.88,-80.49 576.49,-50.54 151.6,29.95 177.82,131.03 368.74,692.56 190.9,561.52 546.53,1583.48 701.88,2204.9 155.35,621.43 110.45,842.28 -185.28,962.08 -295.75,119.8 -842.3,138.51 -1121.18,74.87 -278.9,-63.63 -290.13,-209.63 -333.18,-851.65 -43.06,-642 -117.92,-1780.02 -145.98,-2367.76 -28.08,-587.72 -9.37,-625.15 138.51,-664.46z"/>
   <path class="fil2" d="M11606.02 7661.95c344.41,-134.76 1018.23,-258.29 1364.5,-321.94 346.27,-63.64 365,-67.37 389.33,237.71 24.33,305.1 54.28,919.04 99.2,1604.09 44.93,685.06 104.81,1441.26 129.15,1834.32 24.33,393.07 13.1,423 -359.37,306.95 -372.49,-116.04 -1106.21,-378.09 -1484.3,-546.54 -378.11,-168.46 -400.55,-243.32 -426.75,-675.71 -26.21,-432.37 -56.16,-1222.23 -63.65,-1690.17 -7.49,-467.94 7.49,-613.94 351.89,-748.71z"/>
   <path class="fil1" d="M8251.2 13720.17c-7.49,-27.14 -25.27,-183.9 -24.33,-415.99 0.93,-232.09 0.93,-630.78 0.93,-830.12 0,-199.34 0,-199.34 60.83,-202.16 60.84,-2.8 182.5,-8.4 244.27,-18.71 61.77,-10.29 63.63,-25.26 124.3,-156.78l2.82 -6.11c42.99,-104.79 96.64,-201.29 159.08,-287.26 55.1,-79.47 121.96,-156.81 201.67,-215.43 161.38,-132.08 353.3,-208.62 559.2,-208.62 199.61,0 386.02,72.03 544.27,196.71l6.18 4.59c115.11,86.11 218.07,207.78 282.64,305.1 64.57,97.34 90.78,170.34 173.14,204.03 82.35,33.68 220.86,28.08 754.32,0 533.44,-28.09 1461.81,-78.61 1924.15,-107.63 462.32,-29.01 458.56,-36.5 457.63,-104.82 -0.93,-68.32 0.95,-197.46 21.54,-259.23 20.58,-61.76 59.89,-56.16 171.26,-35.57 111.37,20.6 294.8,56.15 473.56,72.06 178.75,15.92 352.81,12.17 534.38,-15.91 181.55,-28.06 370.6,-80.48 480.09,-148.8 109.5,-68.32 139.45,-152.55 157.24,-296.68 17.78,-144.13 23.38,-348.14 -92.67,-872.24 -116.04,-524.09 -353.76,-1368.23 -528.75,-1929.75 -175.02,-561.53 -287.33,-840.43 -366.87,-1054.75 -79.54,-214.31 -126.35,-364.05 -152.23,-444.83 -25.89,-80.78 -30.86,-92.62 -7.06,-96.74 23.79,-4.13 76.33,-0.54 102.62,1.24 26.28,1.78 26.28,1.78 109.18,234.27 82.89,232.48 248.7,697.43 414.9,1202.25 166.19,504.83 332.76,1049.49 456.29,1501.52 123.54,452.03 204.05,811.41 277.97,1225.07 73.93,413.66 174.34,907.83 200.53,1257.84 26.2,350.01 35.73,555.51 -25.09,745.48 -197.98,618.25 -820.54,505.07 -1340.61,517.93 -832.93,20.59 -2410.81,56.14 -3201.61,68.32 -790.82,12.17 -794.57,0.93 -809.54,-173.15 -6.64,-77.42 38.23,-268.2 38.23,-384.52 0,-707.1 -453.39,-1280.3 -1012.65,-1280.3 -559.27,0 -1012.65,814.07 -1012.65,1280.3 0,466.22 65.79,528.33 146.65,712.27 -9.86,21.09 -8.5,22.29 -66.87,23.67 -58.38,1.37 -238.65,0 -326.62,4.69 -87.96,4.68 -104.84,15.89 -112.32,-11.24z"/>
   <path class="fil1" d="M7239.37 8529.75c164.01,-35.57 508.88,-91.25 677.57,-119.09 168.68,-27.84 161.2,-27.84 168.68,608.55 7.49,636.4 29.95,1909.18 37.44,2554 7.49,644.82 0,661.66 -160.04,675.7 -160.03,14.04 -472.6,25.26 -629.82,29.95 -157.24,4.69 -159.12,2.8 -170.58,-612.07 -11.46,-614.87 -32.52,-1842.72 -51.47,-2464.38 -18.94,-621.66 -35.79,-637.09 128.22,-672.66z"/>
   <path class="fil1" d="M6170.54 8743.49c157.09,-34.07 487.4,-87.39 648.98,-114.06 161.56,-26.67 154.39,-26.67 161.56,582.87 7.17,609.54 28.69,1828.61 35.86,2446.21 7.17,617.61 0,633.74 -153.29,647.19 -153.28,13.45 -452.66,24.2 -603.24,28.68 -150.6,4.49 -152.41,2.69 -163.39,-586.23 -10.97,-588.92 -31.14,-1764.96 -49.29,-2360.39 -18.14,-595.42 -34.28,-610.2 122.81,-644.27z"/>
   <path class="fil1" d="M2988.05 9406.8c125.65,-29.47 389.84,-75.61 519.07,-98.68 129.22,-23.08 123.49,-23.08 129.22,504.31 5.74,527.38 22.95,1582.13 28.68,2116.5 5.74,534.36 0,548.32 -122.6,559.95 -122.6,11.64 -362.05,20.94 -482.49,24.82 -120.46,3.88 -121.9,2.32 -130.68,-507.22 -8.78,-509.54 -24.91,-1527.07 -39.43,-2042.24 -14.51,-515.17 -27.41,-527.96 98.23,-557.44z"/>
   <path class="fil1" d="M2169.24 9569.86c120.35,-28.23 373.39,-72.42 497.17,-94.52 123.77,-22.1 118.27,-22.1 123.77,483.03 5.49,505.12 21.97,1515.37 27.47,2027.18 5.49,511.81 0,525.18 -117.43,536.32 -117.43,11.15 -346.77,20.05 -462.13,23.77 -115.38,3.72 -116.76,2.23 -125.17,-485.81 -8.41,-488.04 -23.85,-1462.63 -37.76,-1956.06 -13.9,-493.43 -26.26,-505.68 94.08,-533.91z"/>
   <path class="fil1" d="M4128.59 12457.74c383.02,-24.63 1142.02,-74.5 1521.56,-97.57 379.54,-23.05 379.6,-19.3 383.56,185.61 3.96,204.93 11.84,611.03 14.89,817.36 3.05,206.35 1.28,212.93 -378.97,228.38 -380.24,15.46 -1138.97,39.76 -1519.23,53.81 -380.27,14.04 -382.1,17.82 -388.81,-177.91 -6.73,-195.73 -18.37,-590.98 -20.67,-788.3 -2.33,-197.33 4.66,-196.74 387.67,-221.38z"/>
   <path class="fil2" d="M8735.32 8214.59c451.48,-111.08 1344.3,-267.35 1801.95,-343.62 457.64,-76.27 480.1,-72.53 506.84,396.78 26.74,469.32 57.76,1404.21 69.58,1882.29 11.8,478.07 4.41,499.36 -462.19,562.56 -466.61,63.19 -1392.4,168.32 -1854.83,220.87 -462.43,52.56 -461.5,52.54 -473.11,-368.87 -11.63,-421.42 -35.84,-1264.26 -42.86,-1718.63 -7.02,-454.38 3.13,-520.27 454.62,-631.38z"/>
   <path class="fil2" d="M4181.56 9180.55c323.77,-92.96 964.03,-223.72 1292.22,-287.53 328.18,-63.82 344.29,-60.7 364.43,347.3 20.12,408.01 44.29,1220.89 55.2,1625.94 10.91,405.07 8.57,402.31 -327,439.9 -335.56,37.59 -1004.35,115.52 -1338.41,154.48 -334.06,38.96 -333.39,38.95 -341.72,-313.68 -8.34,-352.63 -25.7,-1057.89 -30.73,-1438.1 -5.04,-380.2 2.24,-435.34 326.01,-528.31z"/>
   <path class="fil2" d="M647.75 9966.32c248.84,-78.28 740.93,-188.39 993.16,-242.13 252.23,-53.74 264.61,-51.11 280.09,292.46 15.47,343.59 34.05,1028.12 42.43,1369.21 8.38,341.11 6.59,338.79 -251.32,370.45 -257.91,31.65 -771.92,97.27 -1028.67,130.08 -256.75,32.82 -256.24,32.8 -262.64,-264.15 -6.41,-296.95 -19.75,-890.85 -23.62,-1211.02 -3.87,-320.18 1.72,-366.61 250.57,-444.9z"/>
   <ellipse class="fil0" cx="9624.27" cy="13080.49" rx="851.96" ry="1207.41"/>
  </g>
 </g>
</svg>
