<?xml version="1.0" encoding="UTF-8"?>
<!DOCTYPE svg PUBLIC "-//W3C//DTD SVG 1.1//EN" "http://www.w3.org/Graphics/SVG/1.1/DTD/svg11.dtd">
<!-- Creator: CorelDRAW 2020 (64-Bit) -->
<svg xmlns="http://www.w3.org/2000/svg" xml:space="preserve" width="200mm" height="200mm" version="1.1" style="shape-rendering:geometricPrecision; text-rendering:geometricPrecision; image-rendering:optimizeQuality; fill-rule:evenodd; clip-rule:evenodd"
viewBox="0 0 20000 20000"
 xmlns:xlink="http://www.w3.org/1999/xlink"
 xmlns:xodm="http://www.corel.com/coreldraw/odm/2003">
 <defs>
  <style type="text/css">
   <![CDATA[
    .fil0 {fill:#3FB9B9}
    .fil1 {fill:#253D60}
    .fil3 {fill:#FEFEFE;fill-rule:nonzero}
    .fil2 {fill:#253D60;fill-rule:nonzero}
   ]]>
  </style>
 </defs>
 <g id="Слой_x0020_1">
  <metadata id="CorelCorpID_0Corel-Layer"/>
  <path class="fil0" d="M9126.16 2594.03c-1604.5,728.29 -2935.06,2780.66 -2954.08,4403.33 -17.77,1516.31 31.26,3770.32 1454.2,4749.48 289.51,199.25 663.95,328.04 957.84,406.53 293.87,78.5 507.22,106.66 709.67,158.99 202.45,52.32 394.02,128.79 550.77,253.56 156.73,124.78 278.63,297.87 361.36,414.58 82.72,116.73 126.25,177.1 165.44,199.24 12.53,7.08 24.63,10.24 36.04,10.75 19.02,6.06 41.04,6.59 64.65,-6.74 39.19,-22.14 82.71,-82.5 165.44,-199.24 82.73,-116.71 204.63,-289.8 361.36,-414.58 156.75,-124.77 348.31,-201.23 550.77,-253.56 202.45,-52.33 415.8,-80.49 709.67,-158.98 293.89,-78.5 668.32,-207.29 957.84,-406.54 1422.93,-979.15 1471.97,-3233.17 1454.2,-4749.48 -19.03,-1622.94 -1344.96,-3672.97 -2954.08,-4403.33 -885.63,-402 -1699.66,-408.64 -2591.09,-4.01z"/>
  <polygon class="fil0" points="10230.06,17790.71 10230.06,17629.66 12077.01,17629.66 12077.01,17790.71 "/>
  <path class="fil1" d="M16606.3 6665.88l2056.47 0 0 2285.51c12.71,24.57 25.87,49.68 40.81,76.56 64.89,116.82 163.51,267.36 324.44,615.17 160.93,347.83 384.17,892.91 521.74,1445.79 137.56,552.87 189.48,1113.55 176.5,1674.21 -12.98,560.66 -90.84,1121.32 -228.41,1643.05 -137.58,521.72 -334.84,1004.52 -539.9,1365.32 -205.06,360.79 -417.91,599.6 -716.41,812.44 -298.51,212.85 -682.66,399.73 -983.75,488.63 -301.11,88.9 -519.13,79.8 -677.47,75.25 -141.02,-4.04 -234.67,-4.48 -299.32,-4.54l-34.31 0 -3440.31 0 0 -1409.44 3712.09 0c41.98,-15.98 85.79,-27.14 130.58,-46.07 109.02,-46.06 223.9,-138.21 398.15,-285.51 174.24,-147.29 407.87,-349.76 573.99,-575.59 166.12,-225.81 264.75,-475 329.64,-763.11 64.9,-288.12 96.04,-615.19 83.06,-978.59 -12.98,-363.38 -70.08,-763.11 -189.48,-1217.35 -119.4,-454.24 -301.11,-963.01 -521.74,-1479.54 -220.63,-516.53 -521.06,-1054.49 -619.7,-1334.82 -13.6,-38.63 -23.34,-72.34 -29.92,-101.85l-66.75 0 0 -2285.52z"/>
  <path class="fil1" d="M3115.26 6469.41l1033.11 0c609.22,0 1107.66,498.45 1107.66,1107.67l0 0.01c0,609.23 -498.44,1107.67 -1107.66,1107.67l-1033.11 0 0 -2215.35z"/>
  <path class="fil2" d="M4266.36 7587.36l0.17 4.54 -0.17 4.51 0.33 0c35.71,1058.7 472.45,2119.45 1343.73,3044.9 86.81,80.69 255.44,217.5 375.21,185.41 77.05,-20.66 115.77,-25.28 260.33,-185.91 113.18,-125.76 22.91,-295.21 -20.58,-376.12 -43.49,-80.9 -97.8,-146.59 -123.57,-185.74 -598.49,-909.59 -1034.99,-1309.05 -1076.48,-2487.05 41.49,-1178.01 477.99,-1577.48 1076.48,-2487.08 25.77,-39.15 80.08,-104.84 123.57,-185.74 43.49,-80.9 133.76,-250.35 20.58,-376.12 -144.56,-160.63 -183.28,-165.24 -260.33,-185.9 -119.77,-32.1 -288.4,104.72 -375.21,185.4 -871.28,925.46 -1308.02,1986.21 -1343.73,3044.9l-0.33 0z"/>
  <polygon class="fil0" points="4819.92,4473.37 6307.17,5062.65 6069.14,5663.4 4581.89,5074.11 "/>
  <polygon class="fil0" points="4836.15,10922.86 6323.4,10333.57 6085.4,9732.83 4598.11,10322.12 "/>
  <polygon class="fil1" points="-51.74,6064.23 992.98,6064.23 992.98,9140.07 -51.74,9140.07 "/>
  <path class="fil0" d="M220.8 6064.22l519.12 0 0 89.24 -519.12 0 0 -89.24zm519.12 213.35l0 37.76 -519.12 0 0 -37.76 519.12 0zm0 161.87l0 37.76 -519.12 0 0 -37.76 519.12 0zm0 161.87l0 37.76 -519.12 0 0 -37.76 519.12 0zm0 161.87l0 37.76 -519.12 0 0 -37.76 519.12 0zm0 161.87l0 37.76 -519.12 0 0 -37.76 519.12 0zm0 161.87l0 37.76 -519.12 0 0 -37.76 519.12 0zm0 161.87l0 37.76 -519.12 0 0 -37.76 519.12 0zm0 161.87l0 37.76 -519.12 0 0 -37.76 519.12 0zm0 161.87l0 37.76 -519.12 0 0 -37.76 519.12 0zm0 161.87l0 37.76 -519.12 0 0 -37.76 519.12 0zm0 161.87l0 37.76 -519.12 0 0 -37.76 519.12 0zm0 161.87l0 37.76 -519.12 0 0 -37.76 519.12 0zm0 161.87l0 37.76 -519.12 0 0 -37.76 519.12 0zm0 161.87l0 37.76 -519.12 0 0 -37.76 519.12 0zm0 161.88l0 37.76 -519.12 0 0 -37.76 519.12 0zm0 161.87l0 37.76 -519.12 0 0 -37.76 519.12 0zm0 161.87l0 37.76 -519.12 0 0 -37.76 519.12 0zm0 161.87l0 110.7 -519.12 0 0 -110.7 519.12 0z"/>
  <polygon class="fil0" points="992.98,6543.42 1176.28,6543.42 1176.28,8645.92 992.98,8645.92 "/>
  <polygon class="fil0" points="3115.28,6498.64 3249.59,6498.64 3249.59,8671.19 3115.28,8671.19 "/>
  <path class="fil0" d="M6150.24 6740.35c8.72,0 17.38,1.02 25.94,2.96 -2.07,63.47 -3.35,129.28 -4.1,198.19 -5.27,487.07 16.61,1127.06 48.22,1666.69 -22.58,14.23 -46.02,21.81 -70.06,21.81 -180.64,0 -327.05,-423.02 -327.05,-944.82 0,-521.81 146.41,-944.83 327.05,-944.83z"/>
  <path class="fil0" d="M14676.95 6745.09c-8.72,0 -17.38,1.02 -25.94,2.96 2.07,63.47 3.35,129.28 4.11,198.19 5.26,487.07 -16.62,1127.06 -48.23,1666.69 22.58,14.23 46.02,21.81 70.06,21.81 180.64,0 327.06,-423.03 327.06,-944.82 0,-521.82 -146.42,-944.83 -327.06,-944.83z"/>
  <path class="fil1" d="M1620.9 17173.95c47.7,139.93 107.18,322.37 173.26,420.07 66.09,97.71 138.77,110.69 1971.31,106.79 1832.54,-3.89 5424.92,-24.65 7305.47,-37.63 1880.56,-12.98 2049.29,-18.16 2159.61,-29.84 110.31,-11.69 162.21,-29.86 199.85,-75.29 37.64,-45.42 61,-118.09 38.94,-237.49 -22.06,-119.4 -89.56,-285.53 -202.47,-572.35 -112.91,-286.82 -271.24,-694.33 -368.57,-918.86 -97.34,-224.52 -133.69,-266.06 -260.87,-289.43 -127.19,-23.35 -345.21,-28.53 -1931.16,-29.84 -1585.96,-1.29 -4539.82,1.31 -6024.52,6.49 -1484.73,5.19 -1500.31,12.98 -1557.41,-94.74 -57.11,-107.72 -155.73,-330.95 -277,-739.03 -121.29,-408.07 -265.22,-1000.99 -356.06,-1389.05 -21.95,-93.78 -40.8,-175.56 -58.29,-246.33 -44.92,-364.26 -67.88,-738.54 -55.94,-1112.18 16.07,-503.06 96.79,-1028.79 209.84,-1565.83 109.22,-518.93 260.42,-1085.54 412.77,-1653.44l115.6 0 0 -2246.56 -1938.97 0 0 1840.09c-146.41,546.31 -291.32,1095.19 -414.48,1680.3 -131.6,625.18 -226.1,1253.25 -246.34,1887.05 -20.36,637.12 35.69,1256.31 130.34,1834.88 92.49,565.43 221.78,1093.3 351.55,1559.9 188.7,678.52 374.87,1218.45 560.37,1721.36 20.25,56.83 40.37,114.03 63.17,180.96z"/>
  <polygon class="fil0" points="16418.99,6738.11 16602.29,6738.11 16602.29,8840.61 16418.99,8840.61 "/>
  <polygon class="fil0" points="18619.22,6697.22 18806.34,6697.22 18806.34,8869.77 18619.22,8869.77 "/>
  <polygon class="fil1" points="18802.52,6893.87 19106.19,6893.87 19106.19,8870.54 18802.52,8870.54 "/>
  <polygon class="fil0" points="19098.34,6483.08 19948.26,6483.08 19948.26,8985.33 19098.34,8985.33 "/>
  <path class="fil1" d="M19320.06 6483.1l422.31 0 0 72.59 -422.31 0 0 -72.59zm422.31 173.56l0 30.71 -422.31 0 0 -30.71 422.31 0zm0 131.68l0 30.72 -422.31 0 0 -30.72 422.31 0zm0 131.68l0 30.72 -422.31 0 0 -30.72 422.31 0zm0 131.68l0 30.72 -422.31 0 0 -30.72 422.31 0zm0 131.69l0 30.71 -422.31 0 0 -30.71 422.31 0zm0 131.68l0 30.72 -422.31 0 0 -30.72 422.31 0zm0 131.68l0 30.72 -422.31 0 0 -30.72 422.31 0zm0 131.69l0 30.71 -422.31 0 0 -30.71 422.31 0zm0 131.68l0 30.72 -422.31 0 0 -30.72 422.31 0zm0 131.68l0 30.72 -422.31 0 0 -30.72 422.31 0zm0 131.68l0 30.72 -422.31 0 0 -30.72 422.31 0zm0 131.69l0 30.72 -422.31 0 0 -30.72 422.31 0zm0 131.68l0 30.72 -422.31 0 0 -30.72 422.31 0zm0 131.68l0 30.72 -422.31 0 0 -30.72 422.31 0zm0 131.69l0 30.71 -422.31 0 0 -30.71 422.31 0zm0 131.68l0 30.72 -422.31 0 0 -30.72 422.31 0zm0 131.68l0 30.72 -422.31 0 0 -30.72 422.31 0zm0 131.68l0 90.06 -422.31 0 0 -90.06 422.31 0z"/>
  <polygon class="fil1" points="14958.12,7365.56 16408.48,7365.56 16408.48,8085.9 14958.12,8085.9 "/>
  <polygon class="fil0" points="15386.43,7353.89 15512.97,7353.89 15512.97,8085.9 15386.43,8085.9 "/>
  <polygon class="fil1" points="9809.08,18708.47 9809.08,17790.71 12511.1,17790.71 12511.1,18708.47 "/>
  <path class="fil0" d="M9809.09 18469.03l0 -456.02 78.39 0 0 456.02 -78.39 0zm187.41 -456.02l33.17 0 0 456.02 -33.17 0 0 -456.02zm142.2 0l33.17 0 0 456.02 -33.17 0 0 -456.02zm142.2 0l33.17 0 0 456.02 -33.17 0 0 -456.02zm142.19 0l33.17 0 0 456.02 -33.17 0 0 -456.02zm142.2 0l33.17 0 0 456.02 -33.17 0 0 -456.02zm142.2 0l33.17 0 0 456.02 -33.17 0 0 -456.02zm142.19 0l33.17 0 0 456.02 -33.17 0 0 -456.02zm142.2 0l33.17 0 0 456.02 -33.17 0 0 -456.02zm142.19 0l33.17 0 0 456.02 -33.17 0 0 -456.02zm142.2 0l33.17 0 0 456.02 -33.17 0 0 -456.02zm142.2 0l33.17 0 0 456.02 -33.17 0 0 -456.02zm142.19 0l33.17 0 0 456.02 -33.17 0 0 -456.02zm142.2 0l33.17 0 0 456.02 -33.17 0 0 -456.02zm142.19 0l33.18 0 0 456.02 -33.18 0 0 -456.02zm142.2 0l33.17 0 0 456.02 -33.17 0 0 -456.02zm142.2 0l33.17 0 0 456.02 -33.17 0 0 -456.02zm142.19 0l33.17 0 0 456.02 -33.17 0 0 -456.02zm142.2 0l97.25 0 0 456.02 -97.25 0 0 -456.02z"/>
  <path class="fil0" d="M11139.5 15649c466.62,0 844.88,378.26 844.88,844.87 0,466.63 -378.26,844.89 -844.88,844.89 -466.62,0 -844.89,-378.26 -844.89,-844.89 0,-466.61 378.27,-844.87 844.89,-844.87zm0 225.82c341.9,0 619.06,277.15 619.06,619.05 0,341.9 -277.16,619.07 -619.06,619.07 -341.9,0 -619.06,-277.17 -619.06,-619.07 0,-341.9 277.16,-619.05 619.06,-619.05z"/>
  <path class="fil2" d="M10686.28 15777.64l138.43 192.54 -23.81 17.12 -138.43 -192.53 23.81 -17.13zm-164 803.23l-216.59 -0.97 0.12 -29.31 216.58 0.97 -0.11 29.31zm1233.73 -76.65l216.58 -0.97 0.12 29.31 -216.58 0.97 -0.12 -29.31zm-1428.76 226.42l223.77 -72.29 8.97 27.93 -223.76 72.29 -8.98 -27.93zm43.97 129.27l224.93 -114.11 13.21 26.22 -224.92 114.11 -13.22 -26.22zm85.1 115.54l183.55 -131.6 17.13 23.93 -183.55 131.6 -17.13 -23.93zm82.39 122.32l161.76 -179.02 21.72 19.66 -161.76 179.02 -21.72 -19.66zm1427.94 -379.53l-222.84 -67.04 8.39 -28.17 222.84 67.04 -8.39 28.17zm-67.15 124.58l-206.87 -90.65 11.72 -26.9 206.87 90.65 -11.72 26.9zm-58.45 106.38l-181.44 -112.6 15.39 -24.96 181.44 112.6 -15.39 24.96zm-83.32 107.53l-157.73 -146.5 20.01 -21.48 157.74 146.49 -20.02 21.49zm-87.64 84.09l-132.81 -162.26 22.75 -18.63 132.81 162.26 -22.75 18.63zm-95.86 84.81l-118.05 -195.22 25.17 -15.18 118.04 195.21 -25.16 15.19zm-115.1 43.71l-86.74 -196.87 26.9 -11.83 86.74 196.86 -26.9 11.84zm-139.68 45.04l-53.3 -211.12 28.52 -7.13 53.29 211.13 -28.51 7.12zm-164.69 26.75l0.33 -225.01 29.31 0 -0.32 225.01 -29.32 0zm-149.2 -14.62l22.28 -220.37 29.2 2.88 -22.28 220.37 -29.2 -2.88zm-146.86 -37.29l76.35 -210.51 27.6 10.01 -76.34 210.5 -27.61 -10zm-123.27 -53.14l119.64 -202.19 25.28 14.95 -119.64 202.19 -25.28 -14.95zm-110.51 -69.69l144.15 -187.48 23.22 17.92 -144.15 187.48 -23.22 -17.92zm-317.4 -800.45l224.12 27.98 -3.57 29.2 -224.11 -27.99 3.56 -29.19zm46.47 -176.3l214.77 89.41 -11.27 27.14 -214.77 -89.41 11.27 -27.14zm58.23 -123.4l200.17 117.38 -14.83 25.29 -200.17 -117.39 14.83 -25.28zm73.22 -118.12l184.12 142 -17.92 23.22 -184.12 -142 17.92 -23.22zm110.78 -106.88l148.22 174.72 -22.43 18.98 -148.21 -174.72 22.42 -18.98zm1378.33 493.09l-221.56 43.91 -5.62 -28.85 221.56 -43.91 5.62 28.85zm-39.42 -142.38l-210.05 83.04 -10.8 -27.37 210.05 -83.04 10.8 27.37zm-50.12 -110.67l-190.13 122.71 -15.86 -24.72 190.12 -122.71 15.87 24.72zm-74.89 -113.81l-161.9 151.44 -20.01 -21.4 161.9 -151.44 20.01 21.4zm-82.07 -89.66l-148.79 170.03 -22.07 -19.3 148.79 -170.04 22.07 19.31zm-90.17 -91.53l-131.05 200.42 -24.6 -16.1 131.04 -200.42 24.61 16.1zm-111.75 -50.9l-106.52 208.16 -26.1 -13.33 106.51 -208.17 26.11 13.34zm-136.08 -54.86l-67.78 221.67 -28.05 -8.51 67.78 -221.67 28.05 8.51zm-141.14 -29.95l-28.94 224.06 -29.08 -3.68 28.95 -224.06 29.07 3.68zm-170.93 -3.94l16.77 225.28 -29.31 2.17 -16.77 -225.28 29.31 -2.17zm-162.75 11.84l83.68 237.51 -27.69 9.77 -83.69 -237.51 27.7 -9.77zm-113.79 57.08l104.28 207.98 -26.22 13.09 -104.28 -207.97 26.22 -13.1z"/>
  <circle class="fil0" cx="10523.84" cy="16522.73" r="115.83"/>
  <circle class="fil0" cx="11129.28" cy="15893.93" r="115.83"/>
  <circle class="fil0" cx="11744.46" cy="16526.63" r="115.83"/>
  <circle class="fil0" cx="11121.67" cy="17161.13" r="115.83"/>
  <polygon class="fil0" points="1386.49,6640.8 2772.57,6640.8 2772.57,6687.51 1386.49,6687.51 "/>
  <polygon class="fil0" points="1378.74,8754.1 2764.83,8754.1 2764.83,8800.81 1378.74,8800.81 "/>
  <polygon class="fil0" points="1378.74,8871.83 2764.83,8871.83 2764.83,8918.54 1378.74,8918.54 "/>
  <polygon class="fil1" points="16933.18,6853.57 18319.23,6853.57 18319.23,6900.28 16933.18,6900.28 "/>
  <polygon class="fil1" points="16925.4,8966.9 18311.49,8966.9 18311.49,9013.61 16925.4,9013.61 "/>
  <polygon class="fil1" points="16925.4,9084.6 18311.49,9084.6 18311.49,9131.35 16925.4,9131.35 "/>
  <g id="мозг_x0020_1.eps">
   <path class="fil3" d="M8640.75 7210.06c32.53,-82.89 52.39,-170.17 69.35,-257.36 8.37,-42.95 15.97,-86.05 24.03,-129.04 7.06,-37.75 10.29,-82.32 27.09,-117.42 10.4,-21.73 18.78,-24.94 19.45,4.46 0.47,20.22 -9.13,41.13 -15.01,60.16 -6.56,21.19 -12.43,42.54 -17.25,64.21 -18.53,83.35 -24.65,169.69 -18.39,254.82 12.63,171.16 70.76,336.78 164.05,480.59 35.48,54.68 75.45,105.93 118.86,154 -4.82,-3.9 -9.61,-7.72 -14.42,-11.64 -84.98,-69.44 -174.1,-122.88 -279.41,-155.61 -91.6,-28.48 -187.85,-44.02 -283.71,-52.34 94.65,-75.27 161.13,-182.12 205.36,-294.83zm-1150.85 571.07c71.94,-55.1 157.92,-89.26 244.38,-114.07 210.82,-60.49 437.23,-84.33 655.98,-70.12 109.55,7.1 220.33,23.79 324.57,59.25 101.74,34.61 180.29,95.82 262.77,162.42 78.39,63.35 161.69,114.68 261.28,136.51 97.15,21.29 199.05,18.29 295.08,-7.32 184.41,-49.2 336.96,-184.33 428.66,-349.26 22.54,-40.55 41.23,-83.16 57.2,-126.69 21.19,-57.79 -71.09,-82.7 -92.1,-25.39 -63.75,173.79 -196.99,332.42 -374.85,395.46 -72.27,25.62 -150.03,36.66 -226.44,30.19 -2.3,-2.32 -4.85,-4.57 -7.8,-6.57 -275.65,-189.43 -491.63,-486.09 -495.47,-831.05 -0.99,-89.87 15.54,-173.21 41.15,-258.79 12.25,-40.94 18.51,-85.25 -1.8,-124.81 -17.81,-34.67 -53.03,-60.44 -93.21,-58.36 -86.61,4.46 -107.38,102.8 -120.59,170.59 -18.22,93.58 -32.94,187.92 -56.06,280.49 -42.71,171.01 -122.14,346.78 -286.27,431.4 -11.18,5.76 -17.85,13.83 -21.26,22.7 -195.24,-2.07 -394.98,24.5 -580.95,78.62 -190.44,55.43 -363.99,160.02 -437.72,352.73 -68.4,178.76 -61.95,424.14 78.46,567.75 149.44,152.85 384.9,147.2 573.42,83.39 214.42,-72.54 407.34,-196.63 617.1,-280.54 205.82,-82.32 418.58,-107.81 638.47,-117.87 217.35,-9.99 438.34,-11.39 650.28,-66.54 51.86,-13.47 102.63,-30.49 152.14,-50.99 23.74,-9.83 40.93,-31.73 33.37,-58.76 -6.29,-22.47 -34.7,-43.33 -58.76,-33.34 -397.2,164.36 -840.45,68.05 -1250.6,172.41 -213.05,54.21 -406.57,162.33 -603.39,256.78 -176.41,84.64 -390.03,178.85 -584.63,95.33 -186.55,-80.08 -218.01,-301.95 -173.33,-479.79 23.67,-94.15 73.43,-176.42 150.92,-235.76z"/>
   <path class="fil3" d="M7291.71 5880.08c-89.79,149.54 -134.47,319.67 -109.93,493.56 3.59,25.46 36.19,39.65 58.74,33.34 27.47,-7.7 36.98,-33.01 33.35,-58.74 -39.33,-278.91 147,-538.18 354.33,-703.18 219.25,-174.48 508.13,-291.98 789.97,-299.47 121.64,-3.2 268.37,19.92 333.92,135.48 5.26,9.27 12.14,15.31 19.67,18.98 -51.11,169.95 -20.13,362.84 90.67,508.59 93.88,123.48 230.63,211.22 381.87,245.69 59.84,13.63 85.41,-78.42 25.4,-92.11 -223.84,-50.99 -422.56,-240.87 -428.46,-479.72 -2.71,-110.37 32.71,-225.44 104.85,-310.21 86.09,-101.17 210.54,-140.98 336.86,-167.17 150.05,-31.1 315.12,-38.18 454.07,36.17 46.23,24.73 99.16,-36.86 57.87,-75.02 -145.54,-134.51 -222.77,-337.41 -190.67,-534.79 15.94,-98.19 55.19,-192.25 114.92,-271.92 56.21,-75.02 138.36,-151.87 238.23,-148.28 61.49,2.2 61.41,-93.32 0,-95.51 -186.12,-6.68 -330.84,175.24 -397.33,330.15 -73.1,170.41 -77.35,363.97 -6.62,535.97 17.07,41.47 37.98,81 62.12,118.39 -96.1,-17.75 -196.12,-14.04 -294.11,1.12 -148.55,22.97 -306.27,65.87 -416.05,174.4 -37.72,37.3 -68.48,79.3 -92.61,124.28 -74.18,-98.63 -198.35,-139.13 -319.6,-148.3 -149.12,-11.25 -305.59,20.61 -447,65.82 -162.26,51.91 -320.99,131.99 -458.82,237.62 -84.05,-46.07 -177.35,-100.59 -215.09,-192.49 -34.47,-83.97 -19.16,-190.04 40.09,-259.37 68.84,-80.57 190.36,-113.68 292.37,-123.02 100.94,-9.25 201.99,3.69 297.71,36.88 108.09,37.49 204.56,102.32 280.49,187.72 37.29,41.95 99.39,-11.51 75.01,-57.87 -161.69,-307.56 -65.98,-696.94 161.14,-944.8 120.7,-131.69 274.15,-231.69 439.19,-298.83 172.69,-70.25 369.08,-120.07 556.48,-114.24 88.53,2.76 240.72,22.18 260.69,131.43 21.37,116.81 -151.02,125.19 -224.53,126.29 -61.41,0.92 -61.59,96.43 0,95.52 108.48,-1.63 230.9,-13.94 294.8,-114.55 61.13,-96.3 7.85,-213.6 -80.08,-270.78 -97.4,-63.35 -229.79,-69.44 -342.08,-61.28 -110.77,8.05 -221.62,29.31 -328.37,59.75 -394.77,112.53 -756.2,380.14 -874.38,787.62 -44.5,153.36 -51.11,316.84 -13.52,470.58 -146.68,-97.48 -327.24,-145.04 -502.55,-128.96 -124.52,11.41 -266.45,49.62 -354.05,144.47 -79.5,86.04 -109.64,212.15 -81.14,325.42 31.41,124.86 133.19,203.49 239.32,265.59 -84.59,75.93 -158.78,162.55 -217.14,259.78z"/>
   <path class="fil3" d="M9721.56 3405.73c150.2,-45.95 342.66,-63.47 457.43,64.75 50.13,56.01 78.59,129.09 95.39,201.4 8.66,37.27 13.96,75.04 16.16,113.22 0.7,12.46 1.5,25.83 1.22,39.2 -33.55,-43.93 -73.23,-82.91 -118.11,-116.2 -76.11,-56.47 -166.92,-89.12 -256.93,-116.04 -127.89,-38.21 -256.75,-75.34 -386.86,-106.45 63.52,-27.58 125.17,-59.52 191.7,-79.88zm-1268.91 518.19c152.83,-263.7 450.04,-413.25 751.84,-392.21 33.75,2.37 66.79,4.1 99.47,3.88 187.79,33.77 371.6,86.11 554.76,139.04 85.61,24.73 171.47,51.35 246.18,101.4 66.22,44.37 118.34,105.96 155.48,176.11 14.62,27.58 53.84,30.44 75.01,9.66 61.1,-59.96 55.5,-152.32 45.64,-230.67 -10.13,-80.62 -30.69,-159.43 -68.16,-231.92 -35.5,-68.75 -88.54,-130.44 -156.01,-169.38 -82.37,-47.55 -180.34,-58.02 -273.74,-50.87 -103.26,7.92 -201.56,34.64 -296.15,76.34 -87.29,38.48 -171.04,83.52 -268.09,86.25 -3.54,-0.62 -7.07,-1.35 -10.62,-1.97 -9.27,-1.6 -17.57,-0.55 -25.01,2.05 -85.76,-2.1 -169.1,-12.21 -255.4,-0.87 -84.11,11.02 -164.61,33.98 -242.43,67.62 -172.73,74.66 -320.8,204.38 -415.24,367.32 -30.88,53.29 51.63,101.43 82.47,48.22z"/>
   <path class="fil3" d="M13606.71 10206.21c-114.45,116.3 -269.21,189.18 -431.24,205.04 64.29,-87.78 111.14,-188.3 136.41,-294.78 25.18,-106.24 28.21,-214.92 10.16,-322.46 -10.19,-60.49 -102.24,-34.85 -92.13,25.42 27.94,166.18 -10.14,340.22 -96.59,483.95 -43.56,72.39 -99.95,137.44 -166.73,189.43 -80.54,62.71 -171.5,114.98 -257.67,169.54 -81.1,51.35 -164.34,99.44 -254.63,131.28 9.29,-171.83 99.59,-333.12 88.81,-508.54 -5.32,-87.49 -34.11,-173.86 -97.86,-236.37 -60.01,-58.74 -141.44,-90.7 -222.89,-105.73 -57.67,-10.68 -122.75,-19.79 -184.26,-13.5 47.7,-101.3 80.23,-211.23 86.88,-322.29 81.64,104.49 194.86,176.96 322.72,222.8 168.42,60.36 362,62.18 519.23,-30.73 112.79,-66.67 184.38,-174.62 214.16,-297.11 0.16,0.1 0.23,0.28 0.38,0.38 132.17,103.13 285.92,175.78 451.28,206.27 55.58,10.21 116.07,17.87 176.2,17.77 -1.96,4.97 -3.38,10.42 -3.61,16.66 -6.78,172.01 -77.64,340.02 -198.62,462.97zm-1989.92 596.92c-40.19,76.33 -93.12,147.63 -161.89,200.64 -17.14,13.19 -63.63,47.42 -84.92,27.07 -23.03,-22.03 -7.54,-86.84 -2.37,-113.88 35.25,-184.9 167.01,-334.26 287.29,-471.47 26.11,-29.75 52.47,-59.51 78.76,-89.38 -16.97,154.33 -44.22,308.91 -116.87,447.02zm-173.15 -1465.85c-30.92,76.23 -74.35,149.37 -127.43,212.28 -54.84,64.9 -118.67,115.99 -207.06,86.13 -82.88,-28.05 -139.4,-101.48 -193.71,-165.73 -52.39,-61.96 -125.21,-158.02 -217.06,-146.33 -74.38,9.5 -114.24,84.21 -128.38,150.82 -19.96,93.94 -14.49,194.88 -18.64,290.42 -6.6,151.25 -26.31,315.46 -112.56,440.85 -71.12,-103.62 -98.16,-234.66 -107.71,-360.36 -7.85,-103.21 -6.73,-206.88 -15.16,-310.06 -5.73,-70.15 -23.97,-151.81 -86.68,-193.56 -80.11,-53.31 -162.23,14.06 -216.68,71.31 -61.39,64.59 -111.31,144.89 -187.27,193.98 -33.24,21.47 -71.14,38.56 -111.41,38.69 -41.11,0.13 -76.61,-20.18 -106.24,-47.35 -61.56,-56.45 -109.45,-129.29 -146.96,-203.42 -84.96,-167.8 -111.17,-364.87 -71.48,-548.72 0.61,-2.78 0.74,-5.38 0.92,-8 0.35,-0.46 0.76,-0.84 1.09,-1.3 91.52,-118.01 117.6,-275.63 213.88,-389.45 110.09,-130.16 311.29,-113.04 453.98,-50.03 167.64,74.12 297.96,223.56 324.17,407.53 3.46,24.36 33.26,38.19 55.63,33.87 22.16,4.42 52.21,-9.46 55.68,-33.87 23.1,-162.32 126.95,-298.28 267.88,-378.88 67.93,-38.84 144.73,-65.63 222.89,-72.95 85.38,-7.99 180.57,-0.5 249.27,56.04 113.83,93.76 143.07,258.84 218.44,379.81 10.65,17.11 22.21,33.52 34.62,49.13 0.17,2.64 0.35,5.27 0.94,8.1 35.35,163.75 17.93,336.01 -44.96,491.05zm-2754.84 600.42c-82.54,11.53 -164.36,36.69 -230.58,88.89 -148.29,116.86 -138.2,320.35 -95.8,485.58 23.92,93.25 55.12,185.53 60.73,281.43 -75.82,-26.75 -146.72,-64.92 -215.61,-107.13 -88.91,-54.46 -177.74,-110.75 -263.55,-169.97 -140.99,-97.3 -240.1,-246.2 -282.55,-411.57 -23.83,-92.88 -29.46,-190.83 -13.54,-285.5 10.1,-60.16 -81.93,-85.99 -92.11,-25.42 -31.74,188.9 4.49,383.98 101.37,549.41 13.64,23.34 28.85,45.82 44.83,67.8 -161.79,-15.92 -316.78,-88.71 -430.88,-205.01 -120.9,-123.18 -191.84,-290.78 -198.62,-462.97 -0.27,-6.69 -1.81,-12.57 -4.06,-17.83 36.88,0.39 74.06,-2.11 110.45,-6.65 189.95,-23.48 366.8,-98.7 517.47,-216.22 0.06,-0.05 0.11,-0.1 0.16,-0.15 24.48,101.88 78.02,195.36 163.24,261.61 142.83,111.05 332.02,130.83 503.71,86.53 150.66,-38.82 294,-118.67 389.73,-242 6.83,108.41 38.03,215.76 83.7,315.03 1.05,2.29 2.3,4.46 3.38,6.72 -50.33,-4.79 -102.6,0.58 -151.47,7.42zm804.64 913.97c13.6,42.18 22.77,85.97 23.61,130.4 0.66,35.09 -4.91,62.97 -45.36,49.59 -37.68,-12.46 -69.49,-43.43 -96.93,-70.87 -30.56,-30.51 -57.3,-64.21 -80.59,-100.55 -96.86,-151.2 -130.26,-327.77 -149.89,-504.06 10.11,11.5 20.23,23.03 30.31,34.46 121.83,138.06 261.18,281.82 318.85,461.03zm123 -5106.43c81.51,-14.19 163.02,-28.38 244.52,-42.57 83.4,-14.49 166.68,-30.46 250.31,-43.48 45.59,-7.1 109.52,-15.87 149.44,13.81 43.2,32.12 20.35,95.28 -14.42,124.07 -52.7,43.63 -131.92,44.93 -196.64,42.41 -148.65,-5.76 -290.06,-58.36 -433.21,-94.24zm1055.04 75.14c-44.7,-18.39 -95.88,-69.84 -73.74,-123.13 19.74,-47.61 88.33,-45.67 130.34,-42.61 73.76,5.37 147.68,23.51 220.47,36.16 104.42,18.19 208.79,36.35 313.17,54.51 -124.83,31.49 -247.24,74.94 -375.44,89.66 -69.28,7.95 -148.81,12.56 -214.8,-14.59zm3745.76 1873.79c-83.03,-61.54 -193.32,-76.57 -293.75,-64.14 -39.64,4.92 -84.92,20.48 -125.12,13.19 -41.87,-7.59 -30.64,-61.1 -34.33,-93.65 -12.38,-107.95 -54.71,-217.55 -148.45,-280.01 -39.09,-26.06 -84.02,-40.55 -129.19,-42.84 176.85,-342.18 -36.44,-778.25 -303.38,-1016.89 -71.73,-64.13 -152.09,-119.79 -239.99,-159.34 -90.48,-40.68 -184.8,-62.24 -282.68,-75.94 -95.93,-13.42 -193.2,-21.44 -287.19,-45.92 -45.16,-11.77 -89.08,-27.39 -129.75,-50.53 -29.14,-16.61 -84.57,-46.36 -87.42,-84.52 -3.57,-47.19 57.32,-70.6 94.8,-69.92 63.17,1.17 125.04,34.75 181.87,58.97 128.76,54.86 257.49,109.75 386.27,164.64 23.92,10.19 50.92,6.93 65.36,-17.14 11.92,-19.97 6.52,-55.25 -17.14,-65.33 -119.15,-50.79 -238.31,-101.58 -357.44,-152.37 -100.99,-43.02 -225.06,-115.74 -337.08,-70.63 -97.05,39.1 -148.35,152.87 -77.13,240.12 61.39,75.19 165.46,116.75 256.95,139.99 195.98,49.79 403.31,36.39 586.68,132.65 181.2,95.11 324.78,256.29 419.77,435.81 110.28,208.33 141.36,470.12 -5.41,668.67 -1.3,0.79 -2.62,1.63 -3.92,2.44 -55.45,-253.48 -200.84,-485.29 -397.58,-654.96 -266.17,-229.52 -614.24,-342.03 -961.48,-362.3 -168.49,-9.84 -369.03,-13.4 -513.22,88.26 -144.98,102.21 -199.6,282.11 -198.17,452.74 0.82,98.99 18.67,196.52 34.8,293.87 8.05,48.57 14.67,97.48 13.82,146.81 -0.43,26.09 1.18,97.58 -29.34,111.69 -24.45,11.31 -52.9,-25.93 -64.26,-42.61 -25.09,-36.91 -38.36,-82.98 -49.95,-125.6 -23.23,-85.56 -31.1,-173.77 -32.99,-262.15 -7.33,-341.56 70.82,-771.78 -215.43,-1028.91 20.65,-5.75 41.11,-11.54 61.31,-17.14 171.26,-47.53 367.8,-97.99 537.26,-16.79 55.17,26.44 103.67,-55.87 48.2,-82.47 -68.96,-33.06 -141.43,-48.96 -215.04,-53.08 -5.47,-5.12 -12.73,-9.07 -22.44,-10.75 -186.24,-32.43 -372.46,-64.82 -558.71,-97.23 -82.68,-14.39 -165.94,-33.41 -249.61,-41 -64.44,-5.88 -135.97,0.76 -186.68,45.1 -55.84,48.81 -63.86,127.51 -34.59,192.88 30.82,68.82 98.16,110.18 169.89,126.28 116.81,26.24 237.93,8 355.09,-20.63 -0.05,10.82 4.49,21.91 15.7,31.43 255.17,216.94 202.52,596.26 199.23,893.32 -0.99,90.18 2.47,180.19 16.31,269.42 12.73,82.01 33.44,175.34 80,245.54 43.25,65.23 125.7,123.28 202.06,72.21 72.37,-48.4 73.31,-161.95 68.11,-238.56 -13.04,-193.03 -82.83,-383.19 -22.38,-575.7 22.64,-72.16 63.92,-141.32 126.02,-186.2 66.59,-48.14 150.03,-67.04 230.62,-74.05 342.46,-29.72 710.67,49.45 999.98,237.34 296.53,192.62 513.14,521.86 522.41,880.92 1.58,61.37 97.09,61.6 95.51,0 -0.86,-33.74 -3.82,-67.24 -7.92,-100.5 9.6,-1.76 19,-6.12 27,-12.69 57.06,-46.73 147.48,-23.33 196.03,24.13 63.16,61.71 77.05,148.51 83.16,232.49 3.31,45.27 16.2,88.62 56.32,114.57 33.45,21.63 75.11,24.84 113.83,20.97 89.17,-8.92 171.42,-29.29 259.48,1.8 71.21,25.17 131.35,88.57 136.8,166.49 5.63,80.43 -56.39,126.97 -118.44,164.52 -68.8,41.61 -158.1,85.01 -186.88,166.12 -17.66,49.77 0.99,94.03 30.97,133.93 29.5,39.24 55.76,80.54 76.18,125.26 78.46,171.68 50.36,397.56 -121.54,496.72 -28.41,-53.63 -62.77,-104.13 -102.42,-149.83 -104,-119.8 -246.92,-207.25 -402.86,-238.68 -60.03,-12.08 -85.73,79.98 -25.39,92.12 237.24,47.78 433.9,236.25 497.63,469.23 31.15,114.02 33.8,249.19 -30.31,352.86 -75.09,121.41 -230.54,121.24 -356.75,104.58 -162.43,-21.38 -320.69,-87.44 -449.93,-188.23 -16.42,-12.83 -37.03,-17.47 -54.91,-8.73 1.2,-11.87 2.11,-23.83 2.57,-35.83 7.64,-203.46 -89.61,-390.75 -198.57,-555.84 -33.72,-51.06 -116.48,-3.27 -82.48,48.23 86.48,131 170.66,276.75 183.86,436.64 11.61,140.85 -29.09,288.63 -147.28,375.44 -127.43,93.6 -293.25,99.87 -440.4,55.65 -147.45,-44.27 -279.01,-129.03 -354.46,-265.79 -76.23,-138.2 -99.25,-300.52 -121.09,-454.66 -1.4,-9.88 -7.2,-18.01 -15.07,-23.94 163.67,-16.97 324.19,-78.54 438.46,-199.76 42.16,-44.7 -25.24,-112.37 -67.52,-67.51 -123.79,131.25 -307.32,179.39 -483.16,176.59 -91.6,-1.46 -187.53,-14.93 -266.87,-63.7 -65.39,-40.2 -106.57,-104.73 -140.35,-171.89 -67.14,-133.54 -112.55,-295.66 -250.84,-375.09 -157.69,-90.54 -372.69,-50.68 -524.81,32.2 -126.05,68.7 -231.84,179.39 -287.18,311.85 -47.35,-112.99 -131.43,-209.71 -233.27,-278.94 -142.53,-96.94 -340.88,-147.99 -509.32,-95.11 -164.95,51.76 -229.4,208.36 -295.24,352.6 -30.21,66.2 -62.99,134.15 -115.66,185.68 -65.13,63.71 -157.87,90.22 -246.56,98.62 -196.64,18.65 -413.12,-24.37 -553.09,-172.81 -42.26,-44.83 -109.72,22.79 -67.55,67.51 114.56,121.53 275.29,182.39 438.84,199.5 -8.03,5.95 -14.05,14.19 -15.45,24.2 -19.66,138.89 -39.97,284.05 -99.71,412.45 -64.51,138.54 -173.77,231.36 -315.36,287.12 -145.19,57.18 -313.44,71.57 -454.35,-5.53 -131.26,-71.81 -195.55,-207.41 -195.86,-353.98 -0.4,-179.34 89.83,-341.79 185.92,-487.34 33.97,-51.48 -48.71,-99.34 -82.47,-48.23 -98.5,149.23 -185.58,313.26 -197.66,494.97 -2.14,32.15 -1.58,64.42 1.54,96.36 -17.86,-8.74 -38.62,-3.56 -54.81,9.07 -116.12,90.55 -254.21,151.5 -398.49,179.65 -123.52,24.12 -290.08,39.6 -383.58,-62.94 -80.77,-88.61 -87.65,-230.32 -65.3,-342.03 23.29,-116.37 79.49,-224.88 159.36,-312.53 92.8,-101.87 213.29,-173.33 348.67,-200.59 60.21,-12.12 34.73,-104.22 -25.39,-92.12 -215.99,43.5 -403.49,194.16 -505.68,388.46 -146.54,-85.14 -192.37,-268.46 -146.74,-426.7 13.51,-46.82 33.63,-90.85 58.81,-132.53 24.35,-40.31 63.94,-77.56 76.93,-123.56 26.67,-94.62 -66.81,-164.28 -136.41,-207.2 -59.04,-36.43 -141.46,-70.97 -165.52,-142.21 -23.15,-68.54 14.36,-148.11 70.32,-189.23 72.44,-53.23 170.52,-57.81 256.05,-42.91 75.73,13.17 175.41,26.51 217.6,-56.09 22.45,-43.91 14.42,-96.84 23.21,-144.14 8.69,-46.67 24.3,-92.67 52.45,-131.38 46.25,-63.65 150.76,-107.39 219.59,-51 8.15,6.67 17.56,10.96 27.16,12.59 -4.11,33.26 -7.19,66.76 -8.07,100.6 -1.58,61.5 93.93,61.47 95.52,0 8.28,-321.21 183.32,-619.53 431.98,-816.5 270.12,-213.98 623.35,-305.14 963.48,-306.23 162.86,-0.52 345.48,16.55 439.73,168.59 97.68,157.51 70.91,350.99 41.41,524.25 -16.5,97.14 -35.63,202.31 -8.5,299.46 21.82,78.22 95.21,131.28 174.86,93.05 75.52,-36.23 110.26,-120.3 134.1,-195.26 28.12,-88.44 39.97,-181.95 44.24,-274.41 8.9,-191.01 -16.86,-382.34 2.1,-573.05 16.4,-165.36 68.64,-333.34 198.98,-444.14 11.23,-9.57 15.74,-20.68 15.66,-31.56 97.56,23.64 196.56,39.53 296.46,29.62 77.61,-7.66 157,-32.42 205.88,-97.06 41.37,-54.69 55.43,-133.6 18.64,-194.53 -81.48,-134.95 -282.9,-72.54 -404.83,-51.32 -206.9,36.01 -413.83,72.01 -620.76,108.02 -9.65,1.68 -16.91,5.6 -22.39,10.72 -73.58,4.13 -146.07,20.05 -215.08,53.11 -55.42,26.57 -7.03,108.94 48.2,82.47 150.45,-72.11 326,-39.73 480.33,1.25 39.07,10.4 78.48,21.68 118.13,32.68 -247.12,222.55 -223.71,590.5 -216.09,893.33 2.34,93.38 2.92,187.6 -8.97,280.41 -10.21,79.68 -27.2,175.27 -73.23,242.92 -11.33,16.68 -39.78,53.92 -64.24,42.61 -30.51,-14.11 -28.91,-85.6 -29.34,-111.69 -1.68,-98.7 24.12,-196.2 37.04,-293.58 23.99,-181.35 14.57,-377.12 -105.74,-525.06 -113.01,-138.97 -296.48,-164.98 -465.11,-166.31 -349.16,-2.67 -709.69,85.06 -995.8,291.09 -243.79,175.58 -428.32,436.58 -492.36,729.49 -1.44,-0.91 -2.76,-2.08 -4.22,-2.97 -262.59,-355.1 28.49,-860.42 350.87,-1066.79 84.75,-54.25 176.5,-90.25 275.09,-109.78 100.7,-19.95 203.41,-26.67 304.37,-44.85 96.05,-17.3 193.13,-46.69 272.53,-105.33 40.89,-30.18 79.82,-66.68 88.49,-119.15 8.17,-49.44 -13.01,-98.45 -48.99,-132.22 -103.32,-97.07 -241.47,-34.77 -351.99,12.35 -134.52,57.34 -269.04,114.67 -403.56,172.01 -23.92,10.18 -28.74,44.96 -17.15,65.33 14.07,24.71 41.75,27.21 65.35,17.14 113.39,-48.31 226.77,-96.66 340.15,-144.98 53.51,-22.79 106.75,-48.8 162.36,-66.15 45.72,-14.26 98.47,-22.51 137.29,11.82 78.04,69.03 -73.83,139.66 -125.79,159.22 -89.15,33.55 -184.5,45.29 -278.42,57.21 -95.73,12.17 -192.51,24.02 -284.12,55.76 -93.38,32.37 -179.34,80.99 -257.32,141.41 -161.16,124.84 -289.39,297.48 -365.38,486.4 -73.82,183.5 -84.24,401.07 4.95,579.06 -33.53,1.88 -67.25,10.5 -99.38,25.32 -88.11,40.7 -142.98,130.61 -166.34,221.93 -5.92,23.13 -9.63,46.74 -12.54,70.43 -2.91,23.84 -0.45,50.17 -6.29,73.38 -8.8,34.92 -53.78,27.28 -81.57,23.41 -100.86,-14.01 -197.22,-26.26 -294.69,13.55 -88.52,36.17 -159.93,109.85 -181.58,204.76 -20.33,89.13 8.96,177.05 78.24,236.65 34.16,29.4 72.86,52.17 111.43,75.14 36.2,21.56 78.28,44.1 104.21,78.43 31.06,41.16 -22.54,83.24 -44.51,116.99 -29.93,46.03 -54.08,96.05 -71.83,147.99 -70.15,205.12 -9.07,459.4 191.58,565.38 -10.42,28.2 -19.45,56.93 -26.18,86.3 -31.2,135.99 -26.36,297.09 56.35,415.11 58.05,82.8 141.93,122.18 233.29,136.75 -3.88,6.67 -6.21,14.82 -5.82,24.7 7.76,197.35 87.78,389.25 226.6,530.52 138.89,141.34 329.58,224.02 526.73,235.25 18.24,1.04 30.91,-6.78 38.3,-18.19 21.39,22.49 43.64,44.1 67.62,63.58 86.69,70.37 185.54,127.61 279.64,187.37 106.98,67.92 218.64,130.88 342.29,162.53 31.91,8.2 58.03,-15.05 60.46,-46.03 9.4,-119.68 -27.49,-234.43 -58.04,-348.54 -24.85,-92.8 -45.57,-193.03 -20.11,-288.09 24.58,-91.77 95.72,-147.47 184.33,-173.39 45.16,-13.21 91.72,-19.83 138.6,-22.83 48.64,-3.09 98.45,-4.07 141.13,22.64 39.48,63.35 84.38,123.39 131.73,181.48 19.36,212.43 41.42,430.03 142.28,621.78 44.91,85.36 105.56,163.98 181.61,223.77 68.09,53.56 185.64,92.99 236.21,-5.95 21.62,-42.3 17.74,-93.65 11.92,-139.22 -6.53,-50.91 -19.52,-100.1 -38.8,-147.68 -37.93,-93.58 -93.04,-177.08 -154.91,-256.42 -128.99,-165.43 -282.76,-310.79 -400.72,-484.94 -125.4,-185.21 -212.32,-417.73 -141.46,-640.22 3.85,-12.08 2.84,-22.63 -1.09,-31.38 31.22,-102.01 47.62,-209.48 62.39,-313.76 2.37,-16.83 -1.19,-33.36 -11.43,-45.04 123.38,4.52 253.33,-13.32 358,-76.05 -12.31,136.63 4.93,275.55 52.7,404.64 30.71,83 71.95,162 125.26,232.75 52.8,70.1 118.16,146.88 208.91,164.52 89.79,17.45 176.04,-19.9 245.27,-75.18 73.1,-58.41 123.05,-139.49 190.62,-203.52 19.03,-18.03 52.42,-54.72 79.22,-31.92 22.75,19.31 31.53,58.38 35.82,86.2 15.22,99.16 9.37,202.5 15.43,302.52 9.78,161.35 41.62,335.45 140.39,465.76 -6.92,6.29 -13.82,12.61 -21.31,18.52 -4.64,3.64 -7.87,8.36 -10.14,13.5 -8.43,3.43 -16.12,9.8 -22.04,19.74 -94.46,159.07 -197.93,313.81 -312.86,458.86 -104.76,132.22 -227.36,247.33 -383.62,315.59 -149.49,65.25 -319.89,79.32 -475.8,28.81 -162.51,-52.7 -276.16,-179.35 -366.91,-318.62 -108.6,-166.65 -188.9,-350.33 -221.64,-547.25 -10.06,-60.5 -102.12,-34.84 -92.12,25.4 31.15,187.31 105.3,365.74 204.23,527.26 94.14,153.6 211.72,303.28 380.57,378.02 345.87,153.05 726.97,-0.98 964.29,-271.15 147.09,-167.43 272.74,-357.42 386.34,-548.73 1,-1.68 1.58,-3.36 2.35,-5.02 5.22,-2.28 10.26,-5.22 14.87,-8.89 6.57,-5.16 12.74,-10.64 18.93,-16.12 6.16,5.43 12.2,10.98 18.69,16.12 4.66,3.7 9.68,6.61 14.88,8.81 0.79,1.72 1.35,3.42 2.37,5.1 101.55,171.06 213.8,336.61 338.53,491.65 114.37,142.18 252.63,260.25 422.65,330.02 164.82,67.63 353.92,80.46 523.97,23.82 177.45,-59.14 305.01,-190.26 406.9,-342.53 118.64,-177.31 208.25,-377.11 243.37,-588.36 9.99,-60.14 -82.04,-85.99 -92.13,-25.4 -28.96,174.41 -95.11,338.7 -185.81,489.99 -85.48,142.59 -190.32,282.91 -345.44,353.86 -149.33,68.33 -323.3,66.96 -477.1,14.74 -157.41,-53.49 -289.25,-158.59 -396.03,-283.93 -134.53,-157.9 -250.66,-333.92 -356.44,-512.05 -5.91,-9.96 -13.63,-16.31 -22.08,-19.74 -2.27,-5.17 -5.51,-9.86 -10.09,-13.5 -7.54,-5.96 -14.67,-12.23 -21.65,-18.6 81.3,-107.58 118.47,-245.79 133.47,-379.24 12.05,-106.98 11.05,-214.84 17.34,-322.23 1.89,-32.34 5.71,-175.22 67.71,-159.3 37.62,9.66 72.92,57.47 97.48,85.23 31.17,35.23 60.13,72.41 92.41,106.7 61.76,65.59 140.62,120.07 232.44,128.88 94.96,9.17 173.36,-46.99 232.71,-115.38 56.83,-65.49 104.33,-139.03 139.89,-218.14 66.61,-148.06 94.78,-309.85 80.95,-470.3 11.43,6.9 23.17,13.45 35.53,19.18 84.59,39.17 177.89,53.44 270.53,55.43 17.04,0.35 34.13,0.1 51.27,-0.44 -10.19,11.65 -13.57,28.18 -11.21,45.01 14.88,104.95 31.71,211.16 62.89,312.74 -4.33,8.96 -5.6,19.87 -1.6,32.4 61.69,193.66 3.31,399.97 -96.87,569.97 -107.33,182.12 -259.48,331.41 -394.42,492.43 -123.92,147.91 -255,329.95 -248.85,532.84 1.45,48.03 17.98,97.57 62.71,121.8 41.82,22.69 91.08,13.7 132.24,-5.45 83.11,-38.65 150.89,-120.43 200.36,-195.34 134.13,-202.99 159.42,-450.92 180.97,-687.19 47.4,-58.17 92.34,-118.19 131.89,-181.74 42.61,-26.61 92.41,-25.65 140.96,-22.56 46.89,3 93.43,9.62 138.64,22.83 88.61,25.92 159.7,81.6 184.31,173.39 25.44,95.04 4.74,195.31 -20.12,288.09 -30.55,114.11 -67.43,228.82 -58.03,348.54 2.42,30.98 28.55,54.23 60.47,46.03 108.61,-27.76 208.64,-79.83 303.67,-138.33 96.3,-59.3 195.36,-118.91 286.04,-186.58 35.81,-26.69 69.08,-56.47 99.72,-88.69 7.36,11.48 20.07,19.35 38.41,18.31 197.15,-11.23 387.85,-93.91 526.74,-235.25 138.82,-141.27 218.82,-333.17 226.59,-530.52 0.36,-9.11 -1.62,-16.7 -4.94,-23.12 73.64,-11.34 142.72,-39.11 196.62,-94.4 103,-105.68 122.08,-265.87 102.01,-405.83 -6.83,-47.73 -19.39,-94.32 -36.14,-139.36 173.86,-91.89 245.87,-300.02 212.2,-487.08 -9.71,-53.92 -28.43,-105.99 -52.2,-155.24 -23.15,-48.05 -54.38,-88.7 -84.1,-132.51 -13.98,-20.63 -16.08,-35.13 -0.56,-55.68 12.71,-16.83 30.71,-30.82 47.86,-42.84 35.17,-24.6 73.28,-44.53 109.37,-67.7 77.63,-49.87 141.19,-118.98 143.58,-216.07 2.22,-89.63 -46.28,-176.62 -117.3,-229.24z"/>
   <path class="fil3" d="M12384.62 4091.72c-148.37,-145.11 -333.75,-247.86 -529.59,-313.67 -98.55,-33.14 -200.26,-56.65 -303.21,-71.27 -120.21,-17.07 -250.08,-24.74 -366.71,15.99 -108.48,37.86 -214.98,145.47 -169.9,269.87 46.82,129.16 192.87,148.01 311.7,149.8 61.48,0.91 61.51,-94.6 0,-95.52 -71.45,-1.07 -208.1,-1.91 -224.76,-96.86 -16.99,-96.9 104.35,-139.56 177.2,-152.73 103.82,-18.78 212.91,-6.04 315.79,12.65 87.72,15.98 174.28,38.62 258.36,68.37 332.8,117.81 625.57,362.56 717.88,713.63 48.44,184.31 38.05,384.74 -51.5,555.09 -24.16,45.93 37.39,100.21 75.01,57.87 134.61,-151.4 334.54,-233.95 536.65,-227.2 103.34,3.47 224.14,28.88 305.05,97.02 70.85,59.7 101.75,160.49 80.58,250.28 -26.87,114.13 -131.71,177.87 -228.19,230.94 -120.91,-91.74 -254.05,-164.92 -396.7,-217.49 -145.89,-53.8 -307.23,-90.81 -463.47,-88.64 -135.17,1.88 -281.47,39.76 -364.49,151.22 -16.93,-31.58 -36.62,-61.71 -59.42,-89.56 -98.42,-120.17 -247.5,-171.24 -395.21,-200.66 -114.37,-22.77 -233.5,-31.56 -347.17,-10.52 66.88,-103.38 106.77,-223.87 112.78,-347.71 8.94,-184.74 -61.79,-371.82 -187.92,-506.57 -69.24,-73.99 -162.2,-134.02 -266.94,-130.28 -61.29,2.19 -61.6,97.71 0,95.51 99.74,-3.59 182.16,73.21 238.23,148.28 59.62,79.82 98.95,173.63 114.95,271.92 32.07,197.38 -45.14,400.28 -190.7,534.79 -40.91,37.83 11.2,99.98 57.86,75.02 122.32,-65.44 266.72,-68.09 400.93,-46.08 126.43,20.74 265.22,53.13 360.05,145.03 167.22,162.07 174.71,430.95 36.71,612.84 -80.95,106.68 -200.51,179.55 -330.37,209.14 -59.9,13.66 -34.53,105.76 25.43,92.11 267.24,-60.9 494.14,-294.32 498.62,-576.26 0.97,-60.42 -8.43,-120.51 -26.36,-177.86 7.62,-3.65 14.59,-9.77 19.94,-19.14 56.96,-100.48 177.31,-131.22 285.43,-135.25 138.29,-5.17 279.73,25.53 410.35,68.88 266.42,88.43 523.75,259.35 674.14,500.58 79.98,128.27 129.77,280.62 108.28,432.96 -3.64,25.73 6.29,50.99 33.36,58.74 22.32,6.39 55.15,-7.83 58.74,-33.34 41.19,-291.96 -114.95,-563.33 -327.89,-752.83 95.24,-55.43 185.76,-122.9 227.84,-228.63 42.31,-106.22 25.4,-237.13 -41.87,-329.52 -77,-105.71 -210.65,-154.69 -336.12,-172.46 -118.75,-16.81 -240.7,-6.78 -354.82,30.46 -67.97,22.18 -132.73,53.51 -192.1,92.89 80.08,-326.54 -45.87,-686.57 -286.45,-921.83z"/>
   <path class="fil3" d="M12141.04 6900.38c-5.6,-40.25 -13.99,-80.01 -25.62,-118.92 -3.47,-11.59 -35.1,-88.31 -10.11,-93.79 -1.71,0.39 8.6,12.94 11.27,18.57 5.36,11.21 8.21,23.48 10.96,35.53 11.16,48.37 19.05,97.64 28.05,146.44 16.86,91.61 34.35,183.54 63.64,272.18 43.33,131.28 114.91,259.09 223.74,345.19 -42.02,3.79 -83.97,8.55 -125.67,15.35 -108.22,17.68 -216.4,47.1 -312.3,101.61 -54.1,30.72 -101.12,71.19 -149.09,110.37 147,-160.37 253.67,-355.12 284.34,-575.09 11.97,-85.84 12.79,-171.55 0.79,-257.44zm-581.84 965.16c-2.8,1.88 -5.17,4 -7.36,6.16 -27.74,2.39 -55.73,2.83 -83.67,0.89 -194.14,-13.35 -360.4,-137.59 -458.3,-301.15 -23.82,-39.78 -43.81,-81.45 -59.78,-124.98 -20.99,-57.24 -113.35,-32.48 -92.11,25.39 64.39,175.52 184.26,333.6 351.24,422.57 173.24,92.28 389.97,102.65 565.65,11 92.41,-48.19 163.02,-127.04 249.92,-183.21 88.69,-57.29 191.29,-86.63 294.37,-105.15 225.83,-40.53 460.34,-27.43 684.54,16.94 172.24,34.08 374.14,88.31 476.24,244.73 55.32,84.69 77.04,188.16 76.59,288.33 -0.44,90.24 -21.81,187.04 -84.57,255.28 -140.34,152.49 -371.14,112.8 -542.38,45.48 -204.72,-80.43 -393.03,-197.35 -599.28,-274.78 -201.3,-75.57 -413.05,-97.01 -626.4,-106.77 -210.72,-9.68 -424.93,-10.06 -630.21,-64.5 -50.05,-13.27 -99,-29.85 -146.83,-49.61 -24,-9.96 -52.27,10.75 -58.75,33.34 -7.81,27.36 9.64,48.93 33.38,58.76 410.56,169.9 868.23,62 1289.02,182.78 214.72,61.66 408.07,176.52 610.21,268.7 193.63,88.33 412.68,155.22 617.32,61.41 191.47,-87.72 252.7,-302.14 228.58,-497.66 -13.05,-105.73 -47.46,-207.05 -114.9,-290.75 -58.35,-72.44 -138.16,-125.75 -222.67,-163.09 -91.55,-40.45 -187.98,-65.79 -285.96,-84.93 -116.16,-22.69 -234.24,-37.56 -352.55,-41.79 -25.91,-0.92 -51.83,-1.07 -77.74,-0.89 -3.34,-9.02 -10.07,-17.22 -21.37,-23.03 -140.86,-72.62 -222.26,-215.74 -267.29,-362.68 -27.95,-91.16 -44.61,-185.23 -61.85,-278.86 -13.19,-71.7 -16.91,-177.23 -83.63,-223.46 -75.46,-52.29 -157.5,20.68 -157.02,100.69 0.22,44.14 19.89,86.06 30.53,128.19 10.7,42.44 17.69,85.53 20.61,129.19 11.8,175.09 -33.01,349.95 -119.66,501.83 -90.93,159.45 -223.28,292.08 -373.92,395.63z"/>
   <path class="fil3" d="M10597.74 3698.73c12.79,-66.86 34.59,-132.09 71.75,-189.51 37.55,-57.97 92.13,-102.54 158.92,-122.08 84.87,-24.86 179.49,-16.71 264.82,2.04 87.47,19.23 165.62,57.43 247.05,93.04 2.67,1.17 5.32,2.17 7.97,3.32 -130.21,31.1 -259.2,68.21 -387.16,106.52 -88.39,26.46 -177.64,58.32 -252.9,113.04 -47.43,34.49 -89.18,75.54 -124.17,121.97 -3.4,-44.03 7.33,-94.87 13.72,-128.34zm19.69 253.41c37.14,-70.17 89.25,-131.74 155.48,-176.11 74.71,-50.05 160.57,-76.67 246.18,-101.4 180.76,-52.26 362.22,-103.89 547.5,-137.69 12.81,0.3 25.72,0.22 38.94,-0.46 82.15,-4.28 162.36,-12.31 244.28,-0.1 71.11,10.59 141.87,30.79 207.48,60.23 153.21,68.75 283.5,181.74 367.89,327.31 30.79,53.16 113.37,5.12 82.44,-48.22 -83.98,-144.91 -210.44,-263.8 -359.11,-340.75 -153.98,-79.73 -321.48,-110.31 -493.69,-97.38 -19.91,1.51 -40.07,3.16 -60.21,4.06 -7.47,-2.6 -15.79,-3.65 -25.07,-2.05 -4.61,0.8 -9.19,1.73 -13.78,2.55 -19.2,-0.48 -38.33,-2.19 -57.18,-6.04 -47.33,-9.65 -92.05,-27.94 -135.81,-47.91 -92.61,-42.23 -183.67,-82.09 -284.84,-98.95 -96.92,-16.12 -202.32,-21.55 -296.16,12.79 -77.84,28.44 -140.5,80.31 -187.44,148.11 -49.98,72.16 -78.91,159.57 -92.62,245.75 -13.82,86.98 -28.6,197.93 40.71,265.92 21.16,20.78 60.42,17.92 75.01,-9.66z"/>
  </g>
 </g>
</svg>
