<?xml version="1.0" encoding="UTF-8"?>
<!DOCTYPE svg PUBLIC "-//W3C//DTD SVG 1.1//EN" "http://www.w3.org/Graphics/SVG/1.1/DTD/svg11.dtd">
<!-- Creator: CorelDRAW 2020 (64-Bit) -->
<svg xmlns="http://www.w3.org/2000/svg" xml:space="preserve" width="200mm" height="200mm" version="1.1" style="shape-rendering:geometricPrecision; text-rendering:geometricPrecision; image-rendering:optimizeQuality; fill-rule:evenodd; clip-rule:evenodd"
viewBox="0 0 20000 20000"
 xmlns:xlink="http://www.w3.org/1999/xlink"
 xmlns:xodm="http://www.corel.com/coreldraw/odm/2003">
 <defs>
  <style type="text/css">
   <![CDATA[
    .fil2 {fill:#FEFEFE}
    .fil0 {fill:#3FB9B9}
    .fil1 {fill:#253D60}
   ]]>
  </style>
   <clipPath id="id0">
    <rect x="15243.69" y="11735.88" width="3788.38" height="3788.39"/>
   </clipPath>
   <clipPath id="id1">
    <rect x="16312.81" y="12805" width="1650.14" height="1650.14"/>
   </clipPath>
   <clipPath id="id2">
    <rect x="4645.52" y="14036.8" width="2905.19" height="1092.34"/>
   </clipPath>
   <clipPath id="id3">
    <rect x="10804.55" y="11782.35" width="1533.95" height="2812.24"/>
   </clipPath>
 </defs>
 <g id="Слой_x0020_1">
  <metadata id="CorelCorpID_0Corel-Layer"/>
  <path class="fil0" d="M733.04 15292.52c480.85,-876.21 1597.04,-2364.49 2999.45,-3366.2 1402.41,-1001.72 3091.01,-1516.89 4751.01,-1760.16 1659.99,-243.27 3291.35,-214.65 4271.61,-85.87 980.25,128.8 1309.38,357.76 1280.77,1316.55 -28.62,958.79 -415.01,2647.4 -694.04,3670.58 -279.05,1023.19 -450.79,1380.94 -2563.01,1541.64 -2112.22,160.7 -6164.94,124.32 -8268.55,-25.94 -2103.61,-150.25 -2258.11,-414.39 -1777.24,-1290.6z"/>
  <circle class="fil1" cx="17137.58" cy="13625.2" r="2489.98"/>
  <circle class="fil2" cx="17137.58" cy="13625.2" r="2098.29"/>
  <circle class="fil1" cx="17137.58" cy="13625.2" r="1877.42"/>
  <g style="clip-path:url(#id0)">
   <image x="15243.69" y="11735.86" width="3788.4" height="3788.41" xlink:href="Swithes 2_1_Images\Swithes 2_1_ImgID1.png"/>
  </g>
  <circle class="fil0" cx="17137.63" cy="13630.75" r="817.22"/>
  <g style="clip-path:url(#id1)">
   <image x="16312.81" y="12804.98" width="1650.16" height="1650.16" xlink:href="Swithes 2_1_Images\Swithes 2_1_ImgID2.png"/>
  </g>
  <path class="fil1" d="M5765.83 13655.47l702.55 0 1068.77 0c418.38,0 720.05,823.39 920.32,1319.09 126.17,312.32 85.64,406.47 -466.36,460.03 -1191.46,115.69 -2559.63,115.31 -3748.01,0 -552,-53.56 -592.54,-147.71 -466.36,-460.03 200.27,-495.7 501.94,-1319.09 920.32,-1319.09l1068.77 0z"/>
  <path class="fil2" d="M5779.58 13775.2l643.71 0 979.27 0c383.33,0 659.74,717.71 843.24,1149.79 115.61,272.24 78.47,354.3 -427.3,400.99 -1091.69,100.84 -2345.28,100.51 -3434.13,0 -505.78,-46.69 -542.92,-128.75 -427.3,-400.99 183.49,-432.08 459.9,-1149.79 843.24,-1149.79l979.27 0z"/>
  <path class="fil1" d="M5891.27 14057.37l420.33 0 639.44 0c250.32,0 430.81,468.66 550.63,750.79 75.49,177.77 51.24,231.36 -279.02,261.84 -712.86,65.85 -1531.43,65.63 -2242.43,0 -330.27,-30.48 -354.52,-84.07 -279.03,-261.84 119.82,-282.13 300.31,-750.79 550.63,-750.79l639.45 0z"/>
  <g style="clip-path:url(#id2)">
   <image x="4645.52" y="14036.78" width="2905.21" height="1092.36" xlink:href="Swithes 2_1_Images\Swithes 2_1_ImgID3.png"/>
  </g>
  <path class="fil1" d="M10555.92 13184.38l181.32 -678.74 275.83 -1032.57c107.98,-404.2 981.34,-483.15 1511.93,-548.7 334.31,-41.3 414.8,22.16 324.09,569.29 -195.73,1180.95 -549.2,2502.68 -967.3,3621.03 -194.21,519.48 -295.63,534.34 -564.81,331.83 -427.22,-321.41 -1144.86,-825.37 -1036.89,-1229.57l275.83 -1032.57z"/>
  <path class="fil2" d="M10675.15 13202.01l166.13 -621.91 252.73 -946.09c98.93,-370.35 863.67,-452.17 1328.47,-517.93 292.85,-41.44 362.55,15.62 277.12,516.31 -184.32,1080.73 -508.17,2291.76 -886.29,3317.79 -175.64,476.59 -264.5,491.29 -497.68,309.34 -370.08,-288.79 -992.15,-741.07 -893.22,-1111.42l252.74 -946.09z"/>
  <path class="fil1" d="M10976.58 13166.92l108.49 -406.09 165.03 -617.78c64.6,-241.83 563.96,-295.26 867.46,-338.2 191.23,-27.06 236.74,10.2 180.96,337.14 -120.36,705.7 -331.83,1496.49 -578.73,2166.46 -114.69,311.21 -172.72,320.81 -324.98,202 -241.66,-188.58 -647.86,-483.91 -583.26,-725.74l165.03 -617.79z"/>
  <g style="clip-path:url(#id3)">
   <image x="10804.55" y="11782.34" width="1533.96" height="2812.25" xlink:href="Swithes 2_1_Images\Swithes 2_1_ImgID4.png"/>
  </g>
 </g>
</svg>
